<svg width="500" height="500" viewBox="0 0 500 500" fill="none" xmlns="http://www.w3.org/2000/svg">
<path d="M98.6999 53.5L72.8199 44L47.1999 53.37C43.9299 55 41.0599 55.9 41.0599 59V74.59C41.0029 85.4984 43.9208 96.216 49.4999 105.59C54.9899 114.954 63.22 122.41 73.0799 126.95C83.5499 123.46 91.3699 114.15 96.1499 106.19C101.732 96.8174 104.65 86.0989 104.59 75.19V61.19C104.59 56.75 102.29 54.57 98.6999 53.5Z" fill="#EBEBEB"/>
<path d="M408.13 401.21H419.59V389.75H408.13V401.21Z" fill="#E0E0E0"/>
<path d="M378.34 401.21H389.8V389.75H378.34V401.21Z" fill="#E0E0E0"/>
<path d="M423.03 314.67H411.57V326.13H423.03V314.67Z" fill="#E0E0E0"/>
<path d="M406.99 314.67H395.53V326.13H406.99V314.67Z" fill="#E0E0E0"/>
<path d="M393.25 314.67H381.79V326.13H393.25V314.67Z" fill="#E0E0E0"/>
<path d="M423.03 300.92H411.57V312.38H423.03V300.92Z" fill="#E0E0E0"/>
<path d="M393.25 300.92H381.79V312.38H393.25V300.92Z" fill="#E0E0E0"/>
<path d="M377.21 300.92H365.75V312.38H377.21V300.92Z" fill="#E0E0E0"/>
<path d="M406.99 284.88H395.53V296.34H406.99V284.88Z" fill="#E0E0E0"/>
<path d="M393.25 284.88H381.79V296.34H393.25V284.88Z" fill="#E0E0E0"/>
<path d="M423.03 268.84H411.57V280.3H423.03V268.84Z" fill="#E0E0E0"/>
<path d="M406.99 268.84H395.53V280.3H406.99V268.84Z" fill="#E0E0E0"/>
<path d="M393.25 268.84H381.79V280.3H393.25V268.84Z" fill="#E0E0E0"/>
<path d="M445.66 253.91H434.2V265.37H445.66V253.91Z" fill="#E0E0E0"/>
<path d="M445.66 268.22H434.2V279.68H445.66V268.22Z" fill="#E0E0E0"/>
<path d="M423.03 252.8H411.57V264.26H423.03V252.8Z" fill="#E0E0E0"/>
<path d="M393.25 252.8H381.79V264.26H393.25V252.8Z" fill="#E0E0E0"/>
<path d="M377.21 252.8H365.75V264.26H377.21V252.8Z" fill="#E0E0E0"/>
<path d="M462.83 261.62H451.37V273.08H462.83V261.62Z" fill="#E0E0E0"/>
<path d="M406.99 239.05H395.53V250.51H406.99V239.05Z" fill="#E0E0E0"/>
<path d="M393.25 239.05H381.79V250.51H393.25V239.05Z" fill="#E0E0E0"/>
<path d="M406.99 223.01H395.53V234.47H406.99V223.01Z" fill="#E0E0E0"/>
<path d="M393.25 223.01H381.79V234.47H393.25V223.01Z" fill="#E0E0E0"/>
<path d="M377.21 223.01H365.75V234.47H377.21V223.01Z" fill="#E0E0E0"/>
<path d="M423.03 206.97H411.57V218.43H423.03V206.97Z" fill="#E0E0E0"/>
<path d="M393.25 206.97H381.79V218.43H393.25V206.97Z" fill="#E0E0E0"/>
<path d="M377.21 206.97H365.75V218.43H377.21V206.97Z" fill="#E0E0E0"/>
<path d="M393.25 193.22H381.79V204.68H393.25V193.22Z" fill="#E0E0E0"/>
<path d="M423.03 177.18H411.57V188.64H423.03V177.18Z" fill="#E0E0E0"/>
<path d="M406.99 177.18H395.53V188.64H406.99V177.18Z" fill="#E0E0E0"/>
<path d="M393.25 177.18H381.79V188.64H393.25V177.18Z" fill="#E0E0E0"/>
<path d="M377.21 177.18H365.75V188.64H377.21V177.18Z" fill="#E0E0E0"/>
<path d="M406.99 161.14H395.53V172.6H406.99V161.14Z" fill="#E0E0E0"/>
<path d="M377.21 161.14H365.75V172.6H377.21V161.14Z" fill="#E0E0E0"/>
<path d="M423.03 147.39H411.57V158.85H423.03V147.39Z" fill="#E0E0E0"/>
<path d="M393.25 147.39H381.79V158.85H393.25V147.39Z" fill="#E0E0E0"/>
<path d="M387.52 121.58H376.06V133.04H387.52V121.58Z" fill="#E0E0E0"/>
<path d="M406.99 376.54H395.53V388H406.99V376.54Z" fill="#E0E0E0"/>
<path d="M423.03 360.5H411.57V371.96H423.03V360.5Z" fill="#E0E0E0"/>
<path d="M406.99 360.5H395.53V371.96H406.99V360.5Z" fill="#E0E0E0"/>
<path d="M393.25 360.5H381.79V371.96H393.25V360.5Z" fill="#E0E0E0"/>
<path d="M389.81 413.15H378.35V424.61H389.81V413.15Z" fill="#E0E0E0"/>
<path d="M393.25 346.75H381.79V358.21H393.25V346.75Z" fill="#E0E0E0"/>
<path d="M377.21 346.75H365.75V358.21H377.21V346.75Z" fill="#E0E0E0"/>
<path d="M406.99 330.71H395.53V342.17H406.99V330.71Z" fill="#E0E0E0"/>
<path d="M393.25 330.71H381.79V342.17H393.25V330.71Z" fill="#E0E0E0"/>
<path d="M439.93 288.28H428.47V299.74H439.93V288.28Z" fill="#E0E0E0"/>
<path d="M99.1199 157.02H87.6599V168.48H99.1199V157.02Z" fill="#E0E0E0"/>
<path d="M128.91 157.02H117.45V168.48H128.91V157.02Z" fill="#E0E0E0"/>
<path d="M95.68 232.1H84.22V243.56H95.68V232.1Z" fill="#E0E0E0"/>
<path d="M111.72 232.1H100.26V243.56H111.72V232.1Z" fill="#E0E0E0"/>
<path d="M125.47 232.1H114.01V243.56H125.47V232.1Z" fill="#E0E0E0"/>
<path d="M95.68 245.85H84.22V257.31H95.68V245.85Z" fill="#E0E0E0"/>
<path d="M125.47 245.85H114.01V257.31H125.47V245.85Z" fill="#E0E0E0"/>
<path d="M141.51 245.85H130.05V257.31H141.51V245.85Z" fill="#E0E0E0"/>
<path d="M111.72 261.89H100.26V273.35H111.72V261.89Z" fill="#E0E0E0"/>
<path d="M125.47 261.89H114.01V273.35H125.47V261.89Z" fill="#E0E0E0"/>
<path d="M95.68 277.93H84.22V289.39H95.68V277.93Z" fill="#E0E0E0"/>
<path d="M111.72 277.93H100.26V289.39H111.72V277.93Z" fill="#E0E0E0"/>
<path d="M125.47 277.93H114.01V289.39H125.47V277.93Z" fill="#E0E0E0"/>
<path d="M73.0498 292.87H61.5898V304.33H73.0498V292.87Z" fill="#E0E0E0"/>
<path d="M73.0498 278.55H61.5898V290.01H73.0498V278.55Z" fill="#E0E0E0"/>
<path d="M95.68 293.97H84.22V305.43H95.68V293.97Z" fill="#E0E0E0"/>
<path d="M125.47 293.97H114.01V305.43H125.47V293.97Z" fill="#E0E0E0"/>
<path d="M141.51 293.97H130.05V305.43H141.51V293.97Z" fill="#E0E0E0"/>
<path d="M55.8899 285.16H44.4299V296.62H55.8899V285.16Z" fill="#E0E0E0"/>
<path d="M111.72 307.72H100.26V319.18H111.72V307.72Z" fill="#E0E0E0"/>
<path d="M125.47 307.72H114.01V319.18H125.47V307.72Z" fill="#E0E0E0"/>
<path d="M111.72 323.76H100.26V335.22H111.72V323.76Z" fill="#E0E0E0"/>
<path d="M125.47 323.76H114.01V335.22H125.47V323.76Z" fill="#E0E0E0"/>
<path d="M141.51 323.76H130.05V335.22H141.51V323.76Z" fill="#E0E0E0"/>
<path d="M95.68 339.8H84.22V351.26H95.68V339.8Z" fill="#E0E0E0"/>
<path d="M125.47 339.8H114.01V351.26H125.47V339.8Z" fill="#E0E0E0"/>
<path d="M141.51 339.8H130.05V351.26H141.51V339.8Z" fill="#E0E0E0"/>
<path d="M125.47 353.55H114.01V365.01H125.47V353.55Z" fill="#E0E0E0"/>
<path d="M95.68 369.59H84.22V381.05H95.68V369.59Z" fill="#E0E0E0"/>
<path d="M111.72 369.59H100.26V381.05H111.72V369.59Z" fill="#E0E0E0"/>
<path d="M125.47 369.59H114.01V381.05H125.47V369.59Z" fill="#E0E0E0"/>
<path d="M141.51 369.59H130.05V381.05H141.51V369.59Z" fill="#E0E0E0"/>
<path d="M111.72 385.63H100.26V397.09H111.72V385.63Z" fill="#E0E0E0"/>
<path d="M141.51 385.63H130.05V397.09H141.51V385.63Z" fill="#E0E0E0"/>
<path d="M95.68 399.38H84.22V410.84H95.68V399.38Z" fill="#E0E0E0"/>
<path d="M125.47 399.38H114.01V410.84H125.47V399.38Z" fill="#E0E0E0"/>
<path d="M131.2 425.2H119.74V436.66H131.2V425.2Z" fill="#E0E0E0"/>
<path d="M111.72 170.23H100.26V181.69H111.72V170.23Z" fill="#E0E0E0"/>
<path d="M95.68 186.27H84.22V197.73H95.68V186.27Z" fill="#E0E0E0"/>
<path d="M111.72 186.27H100.26V197.73H111.72V186.27Z" fill="#E0E0E0"/>
<path d="M125.47 186.27H114.01V197.73H125.47V186.27Z" fill="#E0E0E0"/>
<path d="M128.91 133.62H117.45V145.08H128.91V133.62Z" fill="#E0E0E0"/>
<path d="M125.47 200.02H114.01V211.48H125.47V200.02Z" fill="#E0E0E0"/>
<path d="M141.51 200.02H130.05V211.48H141.51V200.02Z" fill="#E0E0E0"/>
<path d="M111.72 216.06H100.26V227.52H111.72V216.06Z" fill="#E0E0E0"/>
<path d="M125.47 216.06H114.01V227.52H125.47V216.06Z" fill="#E0E0E0"/>
<path d="M78.7798 258.49H67.3198V269.95H78.7798V258.49Z" fill="#E0E0E0"/>
<path d="M430.54 51.34L429.8 47.83C429.114 44.7919 427.25 42.1507 424.617 40.4872C421.984 38.8238 418.798 38.2744 415.76 38.96C412.722 39.6456 410.081 41.51 408.417 44.143C406.754 46.776 406.204 49.9619 406.89 53L407.64 56.57C406.179 57.1434 404.972 58.2214 404.238 59.6085C403.505 60.9956 403.292 62.5997 403.64 64.13L408.29 84.72C408.476 85.5655 408.827 86.366 409.323 87.0754C409.819 87.7848 410.45 88.3892 411.181 88.8539C411.911 89.3185 412.726 89.6342 413.579 89.7828C414.432 89.9315 415.305 89.9101 416.15 89.72L437.52 84.89C438.365 84.7054 439.165 84.3555 439.875 83.8604C440.584 83.3654 441.188 82.7349 441.653 82.0053C442.118 81.2757 442.434 80.4613 442.582 79.6092C442.731 78.7571 442.71 77.8839 442.52 77.04L437.8 56.4C437.44 54.8026 436.495 53.3978 435.152 52.4615C433.808 51.5252 432.163 51.1251 430.54 51.34V51.34ZM427.12 75.07L421.53 76.33V72.09C420.948 71.9034 420.425 71.5671 420.013 71.1147C419.602 70.6624 419.316 70.1099 419.186 69.5126C419.055 68.9153 419.084 68.2941 419.268 67.7113C419.453 67.1285 419.788 66.6045 420.239 66.1917C420.69 65.779 421.242 65.492 421.839 65.3595C422.436 65.227 423.057 65.2536 423.64 65.4367C424.224 65.6198 424.749 65.953 425.163 66.4029C425.577 66.8527 425.866 67.4035 426 68C426.127 68.5607 426.115 69.1442 425.963 69.6989C425.811 70.2535 425.525 70.7622 425.13 71.18C425.92 72.67 427.12 75.07 427.12 75.07V75.07ZM428.06 51.86L410.06 55.92L409.32 52.45C408.779 50.0631 409.208 47.5589 410.513 45.4885C411.819 43.4181 413.893 41.951 416.28 41.41C418.667 40.869 421.171 41.2983 423.241 42.6035C425.312 43.9088 426.779 45.983 427.32 48.37L428.06 51.86Z" fill="#EBEBEB"/>
<path d="M297.33 466.66L156 466.57C151.958 466.569 147.956 465.771 144.222 464.223C140.488 462.675 137.095 460.407 134.238 457.548C131.381 454.689 129.115 451.295 127.569 447.56C126.024 443.825 125.229 439.822 125.23 435.78L125.3 81.46C125.3 77.4162 126.097 73.4121 127.645 69.6764C129.193 65.9407 131.462 62.5466 134.322 59.6882C137.183 56.8297 140.578 54.5629 144.315 53.0172C148.052 51.4716 152.056 50.6774 156.1 50.68L297.43 50.77C305.593 50.7753 313.419 54.0216 319.189 59.7952C324.959 65.5689 328.2 73.3974 328.2 81.56L328.13 435.88C328.13 439.924 327.333 443.928 325.785 447.664C324.237 451.399 321.968 454.793 319.108 457.652C316.247 460.51 312.852 462.777 309.115 464.323C305.378 465.868 301.374 466.663 297.33 466.66V466.66Z" fill="#455A64"/>
<path d="M297.28 63.3H269.88C268.983 63.3207 268.099 63.5185 267.279 63.8819C266.458 64.2454 265.718 64.7673 265.1 65.4178C264.482 66.0683 263.999 66.8344 263.678 67.6723C263.357 68.5101 263.205 69.4031 263.23 70.3V75.3C263.255 76.1977 263.103 77.0915 262.781 77.93C262.46 78.7685 261.976 79.5351 261.357 80.1857C260.738 80.8363 259.996 81.358 259.174 81.7209C258.353 82.0838 257.468 82.2806 256.57 82.3H203.16C202.263 82.2793 201.379 82.0815 200.559 81.7181C199.738 81.3546 198.998 80.8327 198.38 80.1822C197.762 79.5317 197.279 78.7655 196.958 77.9277C196.637 77.0899 196.485 76.1969 196.51 75.3V70.3C196.535 69.4023 196.383 68.5085 196.061 67.67C195.74 66.8315 195.256 66.0649 194.637 65.4143C194.017 64.7637 193.276 64.242 192.454 63.8791C191.633 63.5162 190.748 63.3194 189.85 63.3H156.23C153.398 63.2974 150.594 63.8528 147.977 64.9347C145.36 66.0165 142.982 67.6034 140.979 69.6048C138.976 71.6061 137.387 73.9827 136.302 76.5985C135.218 79.2144 134.66 82.0183 134.66 84.85L134.59 430.69C134.59 436.407 136.86 441.891 140.901 445.935C144.942 449.98 150.423 452.255 156.14 452.26L297.19 452.34C300.022 452.343 302.826 451.787 305.443 450.705C308.06 449.624 310.438 448.037 312.441 446.035C314.444 444.034 316.034 441.657 317.118 439.041C318.202 436.426 318.76 433.622 318.76 430.79L318.83 84.94C318.841 82.1028 318.291 79.2914 317.213 76.6671C316.135 74.0427 314.549 71.657 312.547 69.6466C310.545 67.6362 308.166 66.0407 305.546 64.9517C302.926 63.8626 300.117 63.3013 297.28 63.3Z" fill="white"/>
<path d="M299.41 345.64V436.94C298.876 437.063 298.406 437.378 298.09 437.825C297.773 438.272 297.632 438.82 297.694 439.365C297.756 439.909 298.016 440.412 298.425 440.777C298.833 441.142 299.362 441.343 299.91 441.343C300.458 441.343 300.986 441.142 301.395 440.777C301.804 440.412 302.064 439.909 302.126 439.365C302.187 438.82 302.047 438.272 301.73 437.825C301.414 437.378 300.944 437.063 300.41 436.94V345.23L244.66 289.48V244.92H243.66V289.92L299.41 345.64Z" fill="#E0E0E0"/>
<path d="M187 344.81C187.536 344.687 188.009 344.371 188.327 343.922C188.646 343.473 188.788 342.922 188.726 342.375C188.664 341.828 188.403 341.323 187.992 340.956C187.582 340.589 187.05 340.386 186.5 340.386C185.949 340.386 185.418 340.589 185.008 340.956C184.597 341.323 184.336 341.828 184.274 342.375C184.212 342.922 184.354 343.473 184.672 343.922C184.991 344.371 185.463 344.687 186 344.81V351.3L170.07 367.22V372.89C169.536 373.013 169.066 373.328 168.749 373.775C168.433 374.222 168.292 374.77 168.354 375.315C168.416 375.859 168.676 376.362 169.085 376.727C169.493 377.092 170.022 377.293 170.57 377.293C171.118 377.293 171.646 377.092 172.055 376.727C172.464 376.362 172.724 375.859 172.786 375.315C172.847 374.77 172.707 374.222 172.39 373.775C172.074 373.328 171.604 373.013 171.07 372.89V367.62L187 351.71V344.81Z" fill="#E0E0E0"/>
<path d="M175 329.5C174.998 329.166 174.92 328.837 174.773 328.538C174.626 328.238 174.413 327.975 174.15 327.769C173.888 327.563 173.582 327.419 173.256 327.348C172.93 327.276 172.592 327.279 172.267 327.356C171.942 327.433 171.639 327.583 171.38 327.793C171.121 328.004 170.913 328.27 170.771 328.572C170.629 328.874 170.557 329.204 170.56 329.538C170.564 329.872 170.642 330.201 170.79 330.5L155.1 346.19V369.55L186.49 400.93V426.75C185.956 426.873 185.486 427.188 185.17 427.635C184.853 428.082 184.713 428.631 184.774 429.175C184.836 429.719 185.096 430.222 185.505 430.587C185.914 430.952 186.442 431.153 186.99 431.153C187.538 431.153 188.067 430.952 188.475 430.587C188.884 430.222 189.144 429.719 189.206 429.175C189.268 428.631 189.127 428.082 188.81 427.635C188.494 427.188 188.024 426.873 187.49 426.75V400.51L156.1 369.13V346.59L171.43 331.26C171.76 331.508 172.152 331.659 172.562 331.698C172.973 331.736 173.386 331.66 173.756 331.478C174.126 331.295 174.438 331.014 174.658 330.665C174.877 330.316 174.996 329.912 175 329.5V329.5Z" fill="#E0E0E0"/>
<path d="M180.77 335.25C180.773 334.829 180.657 334.416 180.435 334.059C180.213 333.701 179.895 333.414 179.517 333.23C179.138 333.046 178.716 332.972 178.298 333.018C177.879 333.063 177.483 333.227 177.153 333.488C176.824 333.75 176.575 334.099 176.436 334.496C176.297 334.893 176.272 335.321 176.366 335.732C176.46 336.142 176.668 336.517 176.966 336.814C177.264 337.111 177.64 337.318 178.05 337.41V343.32L164.6 356.77C164.206 356.458 163.718 356.288 163.215 356.289C162.713 356.29 162.225 356.462 161.833 356.776C161.44 357.09 161.166 357.528 161.055 358.018C160.944 358.508 161.002 359.021 161.221 359.474C161.439 359.927 161.805 360.292 162.258 360.51C162.711 360.728 163.225 360.785 163.715 360.673C164.205 360.561 164.642 360.286 164.956 359.893C165.269 359.5 165.44 359.013 165.44 358.51C165.441 358.181 165.365 357.856 165.22 357.56L179 343.73V337.41C179.499 337.309 179.947 337.039 180.269 336.645C180.592 336.251 180.769 335.759 180.77 335.25V335.25Z" fill="#E0E0E0"/>
<path d="M177.18 383.9C177.16 384.205 177.202 384.51 177.305 384.798C177.407 385.086 177.568 385.349 177.776 385.572C177.985 385.796 178.237 385.973 178.517 386.095C178.797 386.217 179.1 386.279 179.405 386.279C179.71 386.279 180.013 386.217 180.293 386.095C180.573 385.973 180.825 385.796 181.034 385.572C181.242 385.349 181.403 385.086 181.506 384.798C181.608 384.51 181.651 384.205 181.63 383.9C181.631 383.482 181.513 383.073 181.29 382.72L187.49 376.53V364.42C187.978 364.179 188.36 363.767 188.564 363.263C188.768 362.758 188.78 362.197 188.597 361.684C188.414 361.172 188.049 360.744 187.572 360.483C187.095 360.222 186.539 360.145 186.008 360.267C185.478 360.389 185.011 360.701 184.696 361.144C184.381 361.588 184.24 362.132 184.299 362.673C184.359 363.213 184.615 363.714 185.018 364.078C185.422 364.443 185.946 364.646 186.49 364.65V376.12L180.58 382.02C180.226 381.8 179.817 381.682 179.4 381.68C178.812 381.683 178.249 381.917 177.833 382.333C177.417 382.749 177.183 383.312 177.18 383.9Z" fill="#E0E0E0"/>
<path d="M195 313.36V307.78C195.534 307.657 196.004 307.342 196.32 306.895C196.637 306.448 196.778 305.9 196.716 305.355C196.654 304.811 196.394 304.308 195.985 303.943C195.577 303.578 195.048 303.377 194.5 303.377C193.952 303.377 193.423 303.578 193.015 303.943C192.606 304.308 192.346 304.811 192.284 305.355C192.222 305.9 192.363 306.448 192.68 306.895C192.996 307.342 193.466 307.657 194 307.78V313.78L209.93 329.72V341.07C209.399 341.193 208.931 341.507 208.617 341.952C208.302 342.397 208.163 342.943 208.224 343.485C208.286 344.026 208.545 344.526 208.952 344.889C209.359 345.252 209.885 345.453 210.43 345.453C210.975 345.453 211.501 345.252 211.908 344.889C212.315 344.526 212.574 344.026 212.636 343.485C212.698 342.943 212.558 342.397 212.243 341.952C211.929 341.507 211.461 341.193 210.93 341.07V329.3L195 313.36Z" fill="#E0E0E0"/>
<path d="M227.32 392.4V360.66L221.25 354.6C221.485 354.244 221.61 353.827 221.61 353.4C221.61 352.959 221.479 352.528 221.234 352.161C220.989 351.794 220.641 351.509 220.233 351.34C219.826 351.171 219.377 351.127 218.945 351.213C218.512 351.299 218.115 351.511 217.803 351.823C217.491 352.135 217.279 352.532 217.193 352.965C217.107 353.398 217.151 353.846 217.32 354.253C217.488 354.661 217.774 355.009 218.141 355.254C218.508 355.499 218.939 355.63 219.38 355.63C219.792 355.626 220.196 355.513 220.55 355.3L226.33 361.08V392L217.61 400.72V436.95C217.076 437.073 216.606 437.388 216.289 437.835C215.973 438.282 215.832 438.83 215.894 439.375C215.956 439.919 216.216 440.422 216.625 440.787C217.033 441.152 217.562 441.353 218.11 441.353C218.658 441.353 219.186 441.152 219.595 440.787C220.004 440.422 220.264 439.919 220.326 439.375C220.387 438.83 220.247 438.282 219.93 437.835C219.614 437.388 219.144 437.073 218.61 436.95V401.12L227.32 392.4Z" fill="#E0E0E0"/>
<path d="M245.14 328.81L222.14 305.81C222.363 305.457 222.481 305.048 222.48 304.63C222.48 304.191 222.35 303.762 222.106 303.397C221.862 303.032 221.515 302.747 221.11 302.579C220.704 302.411 220.258 302.367 219.827 302.453C219.396 302.538 219.001 302.75 218.69 303.06C218.38 303.371 218.168 303.766 218.083 304.197C217.997 304.628 218.041 305.074 218.209 305.48C218.377 305.885 218.662 306.232 219.027 306.476C219.392 306.72 219.821 306.85 220.26 306.85C220.677 306.848 221.086 306.73 221.44 306.51L244.14 329.2V353.59L256.63 366.08C256.339 366.462 256.181 366.929 256.18 367.41C256.178 367.851 256.307 368.284 256.551 368.652C256.795 369.02 257.142 369.307 257.55 369.477C257.957 369.648 258.406 369.693 258.839 369.608C259.272 369.523 259.67 369.312 259.983 369C260.296 368.689 260.51 368.292 260.596 367.859C260.683 367.426 260.64 366.977 260.471 366.569C260.303 366.161 260.017 365.812 259.65 365.567C259.283 365.321 258.852 365.19 258.41 365.19C258.061 365.192 257.718 365.278 257.41 365.44L245.14 353.2V328.81Z" fill="#E0E0E0"/>
<path d="M276.44 357.36L283.5 364.41C283.21 364.872 283.1 365.425 283.192 365.963C283.283 366.501 283.57 366.986 283.996 367.326C284.423 367.666 284.96 367.837 285.505 367.807C286.05 367.776 286.564 367.546 286.95 367.16C287.336 366.774 287.566 366.26 287.597 365.715C287.627 365.17 287.456 364.633 287.116 364.206C286.776 363.78 286.291 363.493 285.753 363.402C285.215 363.31 284.662 363.42 284.2 363.71L277.44 357V332.09L271.82 326.48C272.045 326.128 272.163 325.718 272.16 325.3C272.16 324.861 272.03 324.432 271.786 324.067C271.542 323.702 271.195 323.417 270.79 323.249C270.384 323.081 269.938 323.037 269.507 323.123C269.076 323.208 268.681 323.42 268.37 323.73C268.06 324.041 267.848 324.436 267.763 324.867C267.677 325.298 267.721 325.744 267.889 326.15C268.057 326.555 268.342 326.902 268.707 327.146C269.072 327.39 269.501 327.52 269.94 327.52C270.358 327.523 270.768 327.405 271.12 327.18L276.44 332.5V357.36Z" fill="#E0E0E0"/>
<path d="M284.32 439.1C284.319 438.597 284.147 438.11 283.833 437.717C283.518 437.325 283.08 437.051 282.59 436.94V401L266.7 385.06V337.2L219 289.48L218.91 249.23H217.91L218.01 289.89L265.73 337.61V385.47L281.62 401.36V436.94C281.213 437.034 280.841 437.241 280.546 437.537C280.251 437.833 280.046 438.207 279.954 438.614C279.862 439.022 279.887 439.447 280.026 439.841C280.165 440.235 280.412 440.582 280.739 440.841C281.066 441.101 281.46 441.263 281.875 441.309C282.291 441.355 282.71 441.283 283.087 441.101C283.463 440.92 283.78 440.635 284.001 440.281C284.223 439.927 284.34 439.518 284.34 439.1H284.32Z" fill="#E0E0E0"/>
<path d="M267.72 439.1C267.719 438.597 267.547 438.11 267.233 437.717C266.918 437.325 266.48 437.051 265.99 436.94V423.62L243.35 401V369.34C243.884 369.217 244.354 368.902 244.67 368.455C244.987 368.008 245.127 367.46 245.066 366.915C245.004 366.371 244.744 365.868 244.335 365.503C243.926 365.138 243.398 364.937 242.85 364.937C242.302 364.937 241.773 365.138 241.365 365.503C240.956 365.868 240.696 366.371 240.634 366.915C240.572 367.46 240.713 368.008 241.029 368.455C241.346 368.902 241.816 369.217 242.35 369.34V401.4L265 424V436.9C264.593 436.994 264.221 437.201 263.926 437.497C263.631 437.793 263.426 438.167 263.334 438.574C263.242 438.982 263.267 439.407 263.406 439.801C263.545 440.195 263.792 440.542 264.119 440.801C264.446 441.061 264.84 441.223 265.255 441.269C265.671 441.315 266.09 441.243 266.466 441.061C266.843 440.88 267.16 440.595 267.381 440.241C267.603 439.887 267.72 439.478 267.72 439.06V439.1Z" fill="#E0E0E0"/>
<path d="M238 439.1C237.999 438.599 237.829 438.112 237.517 437.72C237.204 437.328 236.768 437.053 236.28 436.94V336.31L211.43 311.46V248H210.43V311.92L235.27 336.77V436.94C234.864 437.036 234.493 437.244 234.2 437.541C233.907 437.838 233.703 438.212 233.613 438.619C233.522 439.026 233.548 439.451 233.688 439.844C233.828 440.237 234.075 440.583 234.402 440.842C234.73 441.1 235.123 441.262 235.538 441.307C235.953 441.353 236.372 441.281 236.747 441.099C237.123 440.917 237.44 440.633 237.661 440.28C237.883 439.926 238 439.517 238 439.1Z" fill="#E0E0E0"/>
<path d="M225.84 411.31V426.74C225.303 426.856 224.829 427.166 224.508 427.612C224.187 428.057 224.042 428.606 224.102 429.151C224.161 429.697 224.421 430.201 224.831 430.567C225.24 430.932 225.771 431.133 226.32 431.13C226.872 431.141 227.408 430.946 227.824 430.583C228.239 430.22 228.505 429.715 228.569 429.167C228.632 428.618 228.49 428.066 228.168 427.617C227.847 427.169 227.37 426.856 226.83 426.74V411.31C227.364 411.187 227.834 410.872 228.15 410.425C228.467 409.978 228.608 409.429 228.546 408.885C228.484 408.341 228.224 407.838 227.815 407.473C227.407 407.108 226.878 406.907 226.33 406.907C225.782 406.907 225.253 407.108 224.845 407.473C224.436 407.838 224.176 408.341 224.114 408.885C224.052 409.429 224.193 409.978 224.51 410.425C224.826 410.872 225.296 411.187 225.83 411.31H225.84Z" fill="#E0E0E0"/>
<path d="M198.62 439.1C198.619 438.595 198.446 438.105 198.13 437.71C197.814 437.316 197.373 437.041 196.88 436.93V337.27L181.88 322.21C182.139 321.792 182.252 321.3 182.201 320.81C182.15 320.321 181.938 319.862 181.598 319.507C181.259 319.151 180.81 318.918 180.324 318.845C179.837 318.772 179.34 318.862 178.911 319.102C178.481 319.342 178.143 319.718 177.951 320.17C177.758 320.623 177.721 321.127 177.846 321.603C177.97 322.078 178.25 322.499 178.639 322.8C179.029 323.1 179.508 323.261 180 323.26C180.417 323.256 180.825 323.139 181.18 322.92L195.94 337.68V436.94C195.534 437.036 195.163 437.244 194.87 437.541C194.577 437.838 194.373 438.212 194.283 438.619C194.192 439.026 194.218 439.451 194.358 439.844C194.498 440.237 194.745 440.583 195.072 440.842C195.4 441.1 195.793 441.262 196.208 441.307C196.623 441.353 197.042 441.281 197.417 441.099C197.793 440.917 198.109 440.633 198.331 440.28C198.553 439.926 198.67 439.517 198.67 439.1H198.62Z" fill="#E0E0E0"/>
<path d="M165.44 439.1C165.438 438.574 165.25 438.066 164.91 437.666C164.569 437.265 164.098 436.997 163.58 436.91V407.5L141.14 385.06V345.64L196.75 290L196.89 289.86V246.2H195.89V289.48L140.28 345.08L140.14 345.23V385.47L162.58 407.91V437C162.185 437.117 161.83 437.341 161.556 437.648C161.281 437.955 161.097 438.332 161.025 438.738C160.952 439.143 160.994 439.561 161.145 439.944C161.296 440.327 161.551 440.66 161.881 440.907C162.211 441.154 162.603 441.303 163.013 441.34C163.423 441.377 163.836 441.298 164.204 441.114C164.572 440.929 164.882 440.646 165.098 440.296C165.315 439.946 165.43 439.542 165.43 439.13L165.44 439.1Z" fill="#E0E0E0"/>
<path d="M228.55 337.79C228.57 337.485 228.528 337.18 228.425 336.892C228.323 336.604 228.162 336.341 227.954 336.118C227.745 335.895 227.493 335.717 227.213 335.595C226.933 335.474 226.63 335.411 226.325 335.411C226.02 335.411 225.717 335.474 225.437 335.595C225.157 335.717 224.905 335.895 224.696 336.118C224.488 336.341 224.327 336.604 224.224 336.892C224.122 337.18 224.079 337.485 224.1 337.79C224.096 338.137 224.174 338.48 224.33 338.79L210.15 353V426.79C209.616 426.913 209.146 427.228 208.83 427.675C208.513 428.122 208.372 428.67 208.434 429.215C208.496 429.759 208.756 430.262 209.165 430.627C209.573 430.992 210.102 431.193 210.65 431.193C211.198 431.193 211.726 430.992 212.135 430.627C212.544 430.262 212.804 429.759 212.866 429.215C212.927 428.67 212.787 428.122 212.47 427.675C212.154 427.228 211.684 426.913 211.15 426.79V353.36L225 339.54C225.386 339.848 225.866 340.013 226.36 340.01C226.943 340.002 227.5 339.765 227.91 339.349C228.32 338.934 228.55 338.374 228.55 337.79V337.79Z" fill="#E0E0E0"/>
<path d="M256.19 281.73C256.19 282.022 256.248 282.312 256.36 282.582C256.472 282.852 256.636 283.097 256.844 283.303C257.051 283.51 257.297 283.673 257.567 283.784C257.838 283.895 258.128 283.951 258.42 283.95C258.769 283.945 259.112 283.856 259.42 283.69L290.33 314.61C290.11 314.964 289.992 315.373 289.99 315.79C289.988 316.232 290.117 316.664 290.362 317.033C290.606 317.401 290.954 317.688 291.362 317.858C291.77 318.028 292.219 318.073 292.653 317.988C293.086 317.902 293.484 317.689 293.797 317.377C294.109 317.064 294.322 316.666 294.408 316.233C294.493 315.799 294.448 315.35 294.278 314.942C294.108 314.534 293.821 314.186 293.453 313.942C293.084 313.697 292.652 313.568 292.21 313.57C291.792 313.569 291.383 313.687 291.03 313.91L260.21 283C260.42 282.718 260.561 282.389 260.619 282.042C260.678 281.695 260.653 281.338 260.546 281.003C260.44 280.667 260.255 280.361 260.007 280.111C259.759 279.861 259.456 279.673 259.121 279.564C258.786 279.454 258.43 279.426 258.082 279.481C257.735 279.536 257.405 279.673 257.12 279.881C256.836 280.089 256.605 280.361 256.447 280.676C256.288 280.99 256.207 281.338 256.21 281.69L256.19 281.73Z" fill="#E0E0E0"/>
<path d="M259 385.37L252.21 378.58C252.359 378.268 252.434 377.926 252.43 377.58C252.427 377.078 252.255 376.591 251.94 376.2C251.625 375.808 251.187 375.535 250.697 375.425C250.207 375.315 249.694 375.374 249.242 375.593C248.79 375.812 248.426 376.178 248.209 376.63C247.991 377.083 247.934 377.596 248.046 378.086C248.158 378.575 248.432 379.013 248.825 379.326C249.217 379.639 249.704 379.81 250.207 379.811C250.709 379.812 251.197 379.642 251.59 379.33L258.01 385.75V401.4L271.53 414.91C271.305 415.262 271.187 415.672 271.19 416.09C271.19 416.529 271.32 416.958 271.564 417.323C271.808 417.688 272.155 417.973 272.56 418.141C272.966 418.309 273.412 418.353 273.843 418.267C274.274 418.182 274.669 417.97 274.98 417.66C275.29 417.349 275.502 416.954 275.587 416.523C275.673 416.092 275.629 415.646 275.461 415.24C275.293 414.835 275.008 414.488 274.643 414.244C274.278 414 273.849 413.87 273.41 413.87C272.992 413.867 272.582 413.985 272.23 414.21L259 401V385.37Z" fill="#E0E0E0"/>
<path d="M151.9 213V125.76C152.41 125.643 152.86 125.343 153.163 124.916C153.465 124.488 153.6 123.965 153.541 123.445C153.483 122.924 153.234 122.444 152.844 122.095C152.454 121.746 151.948 121.554 151.425 121.554C150.901 121.554 150.396 121.746 150.006 122.095C149.615 122.444 149.367 122.924 149.308 123.445C149.25 123.965 149.385 124.488 149.687 124.916C149.99 125.343 150.44 125.643 150.95 125.76V213.42L204.23 266.7V309.29H205.23V266.29L151.9 213Z" fill="#E0E0E0"/>
<path d="M259.33 213.82C258.817 213.937 258.365 214.238 258.06 214.667C257.756 215.096 257.62 215.623 257.678 216.146C257.737 216.668 257.987 217.151 258.379 217.502C258.771 217.853 259.279 218.047 259.805 218.047C260.331 218.047 260.839 217.853 261.231 217.502C261.624 217.151 261.873 216.668 261.932 216.146C261.99 215.623 261.854 215.096 261.55 214.667C261.245 214.238 260.793 213.937 260.28 213.82V207.62L275.5 192.4V187C276.011 186.884 276.462 186.584 276.765 186.158C277.069 185.731 277.205 185.207 277.147 184.686C277.089 184.165 276.841 183.684 276.45 183.335C276.06 182.986 275.554 182.792 275.03 182.792C274.506 182.792 274.001 182.986 273.61 183.335C273.219 183.684 272.971 184.165 272.913 184.686C272.855 185.207 272.991 185.731 273.295 186.158C273.598 186.584 274.049 186.884 274.56 187V192L259.33 207.23V213.82Z" fill="#E0E0E0"/>
<path d="M270.79 228.46C270.787 228.785 270.859 229.107 270.999 229.4C271.14 229.694 271.346 229.951 271.601 230.152C271.857 230.354 272.155 230.494 272.473 230.562C272.791 230.631 273.121 230.625 273.437 230.546C273.752 230.467 274.046 230.317 274.294 230.107C274.543 229.897 274.74 229.633 274.871 229.335C275.001 229.037 275.062 228.713 275.048 228.388C275.034 228.063 274.946 227.746 274.79 227.46L289.79 212.46V190.19L259.79 160.19V135.51C260.3 135.393 260.75 135.093 261.053 134.666C261.355 134.238 261.49 133.715 261.432 133.195C261.373 132.674 261.125 132.194 260.734 131.845C260.344 131.496 259.839 131.304 259.315 131.304C258.792 131.304 258.286 131.496 257.896 131.845C257.506 132.194 257.257 132.674 257.199 133.195C257.14 133.715 257.275 134.238 257.577 134.666C257.88 135.093 258.33 135.393 258.84 135.51V160.58L288.84 190.58V212.12L274.19 226.77C273.816 226.487 273.36 226.332 272.89 226.33C272.33 226.338 271.796 226.566 271.403 226.964C271.01 227.363 270.79 227.9 270.79 228.46V228.46Z" fill="#E0E0E0"/>
<path d="M265.29 223C265.27 223.291 265.31 223.584 265.408 223.859C265.506 224.134 265.659 224.386 265.858 224.6C266.057 224.813 266.298 224.983 266.566 225.099C266.834 225.216 267.123 225.276 267.415 225.276C267.707 225.276 267.996 225.216 268.264 225.099C268.531 224.983 268.772 224.813 268.972 224.6C269.171 224.386 269.324 224.134 269.422 223.859C269.52 223.584 269.56 223.291 269.54 223C269.542 222.518 269.38 222.051 269.08 221.674C268.78 221.298 268.36 221.035 267.89 220.93V215.28L280.75 202.42C281.124 202.729 281.595 202.896 282.08 202.89C282.501 202.89 282.913 202.765 283.263 202.531C283.614 202.297 283.887 201.964 284.048 201.575C284.209 201.186 284.251 200.758 284.169 200.344C284.087 199.931 283.884 199.552 283.586 199.254C283.288 198.956 282.909 198.753 282.495 198.671C282.082 198.589 281.654 198.631 281.265 198.792C280.876 198.953 280.543 199.226 280.309 199.577C280.075 199.927 279.95 200.339 279.95 200.76C279.952 201.078 280.024 201.392 280.16 201.68L267 214.85V220.85C266.506 220.947 266.063 221.217 265.75 221.611C265.436 222.004 265.273 222.497 265.29 223V223Z" fill="#E0E0E0"/>
<path d="M268.72 176.45C268.683 175.912 268.443 175.407 268.049 175.039C267.654 174.671 267.135 174.466 266.595 174.466C266.055 174.466 265.536 174.671 265.141 175.039C264.747 175.407 264.507 175.912 264.47 176.45C264.469 176.851 264.584 177.243 264.8 177.58L258.87 183.51V195.08C258.46 195.303 258.134 195.655 257.943 196.081C257.753 196.507 257.707 196.984 257.814 197.439C257.921 197.893 258.174 198.3 258.535 198.597C258.895 198.893 259.343 199.063 259.81 199.08C260.101 199.1 260.394 199.06 260.669 198.962C260.944 198.864 261.196 198.711 261.41 198.512C261.623 198.313 261.793 198.072 261.91 197.804C262.026 197.536 262.086 197.247 262.086 196.955C262.086 196.663 262.026 196.374 261.91 196.106C261.793 195.838 261.623 195.597 261.41 195.398C261.196 195.199 260.944 195.046 260.669 194.948C260.394 194.85 260.101 194.81 259.81 194.83V183.83L265.46 178.18C265.792 178.399 266.182 178.514 266.58 178.51C267.135 178.513 267.669 178.299 268.068 177.915C268.468 177.53 268.702 177.004 268.72 176.45V176.45Z" fill="#E0E0E0"/>
<path d="M251.73 243.88V249.21C251.223 249.332 250.779 249.636 250.481 250.064C250.184 250.492 250.053 251.015 250.115 251.532C250.177 252.05 250.426 252.527 250.816 252.873C251.206 253.219 251.709 253.41 252.23 253.41C252.751 253.41 253.255 253.219 253.644 252.873C254.034 252.527 254.283 252.05 254.345 251.532C254.407 251.015 254.276 250.492 253.979 250.064C253.681 249.636 253.237 249.332 252.73 249.21V243.48L237.5 228.25V217.41C238.01 217.293 238.46 216.993 238.763 216.566C239.065 216.138 239.2 215.615 239.142 215.095C239.083 214.574 238.835 214.094 238.444 213.745C238.054 213.396 237.549 213.204 237.025 213.204C236.501 213.204 235.996 213.396 235.606 213.745C235.216 214.094 234.967 214.574 234.908 215.095C234.85 215.615 234.985 216.138 235.287 216.566C235.59 216.993 236.04 217.293 236.55 217.41V228.65L251.73 243.88Z" fill="#E0E0E0"/>
<path d="M220.8 168.33V198.67L226.6 204.46C226.352 204.859 226.243 205.33 226.291 205.797C226.339 206.265 226.542 206.703 226.866 207.043C227.191 207.383 227.619 207.606 228.084 207.676C228.549 207.746 229.024 207.66 229.434 207.431C229.844 207.201 230.167 206.842 230.351 206.41C230.535 205.977 230.57 205.496 230.45 205.041C230.331 204.586 230.064 204.184 229.691 203.898C229.318 203.612 228.86 203.458 228.39 203.46C227.997 203.46 227.613 203.571 227.28 203.78L221.75 198.25V168.72L230.08 160.39V125.76C230.587 125.638 231.031 125.334 231.329 124.906C231.626 124.478 231.757 123.955 231.695 123.438C231.633 122.92 231.384 122.443 230.994 122.097C230.605 121.751 230.101 121.56 229.58 121.56C229.059 121.56 228.556 121.751 228.166 122.097C227.776 122.443 227.527 122.92 227.465 123.438C227.403 123.955 227.534 124.478 227.831 124.906C228.129 125.334 228.573 125.638 229.08 125.76V160L220.8 168.33Z" fill="#E0E0E0"/>
<path d="M203.77 229.11L225.77 251.11C225.553 251.447 225.439 251.839 225.44 252.24C225.44 252.661 225.565 253.073 225.799 253.423C226.033 253.774 226.366 254.047 226.755 254.208C227.144 254.369 227.572 254.411 227.986 254.329C228.399 254.247 228.778 254.044 229.076 253.746C229.374 253.448 229.577 253.069 229.659 252.656C229.741 252.242 229.699 251.814 229.538 251.425C229.377 251.036 229.104 250.703 228.753 250.469C228.403 250.235 227.991 250.11 227.57 250.11C227.169 250.109 226.777 250.223 226.44 250.44L204.75 228.75V205.41L192.81 193.47C193.081 193.102 193.229 192.657 193.23 192.2C193.228 191.741 193.075 191.295 192.796 190.93C192.517 190.565 192.127 190.301 191.684 190.178C191.242 190.055 190.771 190.08 190.344 190.249C189.917 190.418 189.556 190.722 189.317 191.114C189.079 191.507 188.974 191.966 189.021 192.423C189.067 192.88 189.261 193.31 189.574 193.647C189.886 193.983 190.3 194.209 190.752 194.289C191.205 194.369 191.671 194.299 192.08 194.09L203.8 205.8L203.77 229.11Z" fill="#E0E0E0"/>
<path d="M173.85 201.82L167.11 195.08C167.322 194.741 167.436 194.35 167.44 193.95C167.44 193.529 167.315 193.117 167.081 192.767C166.847 192.416 166.514 192.143 166.125 191.982C165.736 191.821 165.308 191.779 164.894 191.861C164.481 191.943 164.102 192.146 163.804 192.444C163.506 192.742 163.303 193.121 163.221 193.534C163.139 193.948 163.181 194.376 163.342 194.765C163.503 195.154 163.776 195.487 164.127 195.721C164.477 195.955 164.889 196.08 165.31 196.08C165.71 196.08 166.102 195.965 166.44 195.75L172.9 202.21V226L178.27 231.37C178.053 231.707 177.939 232.099 177.94 232.5C177.94 232.922 178.065 233.334 178.3 233.684C178.534 234.035 178.867 234.308 179.257 234.469C179.647 234.63 180.076 234.671 180.489 234.588C180.903 234.505 181.282 234.301 181.58 234.003C181.877 233.704 182.079 233.323 182.16 232.909C182.241 232.496 182.198 232.067 182.035 231.678C181.872 231.289 181.598 230.957 181.246 230.724C180.894 230.491 180.482 230.368 180.06 230.37C179.662 230.366 179.272 230.481 178.94 230.7L173.85 225.61V201.82Z" fill="#E0E0E0"/>
<path d="M166.32 123.69C166.319 124.171 166.482 124.638 166.782 125.014C167.082 125.39 167.501 125.653 167.97 125.76V160.16L183.16 175.35V221.09L228.77 266.71L228.86 305.17H229.81L229.72 266.31L184.11 220.7V175L168.92 159.81V125.81C169.308 125.72 169.663 125.522 169.944 125.239C170.225 124.957 170.42 124.601 170.508 124.212C170.596 123.823 170.572 123.418 170.44 123.042C170.308 122.666 170.072 122.335 169.761 122.087C169.449 121.838 169.073 121.683 168.677 121.638C168.281 121.594 167.881 121.662 167.522 121.834C167.163 122.007 166.859 122.277 166.647 122.614C166.434 122.951 166.321 123.342 166.32 123.74V123.69Z" fill="#E0E0E0"/>
<path d="M182.19 123.69C182.189 124.171 182.352 124.638 182.652 125.014C182.952 125.39 183.371 125.653 183.84 125.76V138.49L205.48 160.13V190.37C204.973 190.492 204.529 190.796 204.231 191.224C203.934 191.652 203.803 192.175 203.865 192.692C203.926 193.21 204.176 193.687 204.566 194.033C204.955 194.379 205.459 194.57 205.98 194.57C206.501 194.57 207.004 194.379 207.394 194.033C207.784 193.687 208.033 193.21 208.095 192.692C208.157 192.175 208.026 191.652 207.729 191.224C207.431 190.796 206.987 190.492 206.48 190.37V159.73L184.84 138.09V125.76C185.228 125.67 185.583 125.472 185.864 125.189C186.145 124.907 186.34 124.551 186.428 124.162C186.516 123.773 186.492 123.368 186.36 122.992C186.228 122.616 185.992 122.285 185.68 122.037C185.369 121.788 184.993 121.633 184.597 121.588C184.201 121.544 183.801 121.612 183.442 121.784C183.082 121.957 182.779 122.227 182.567 122.564C182.354 122.901 182.241 123.292 182.24 123.69H182.19Z" fill="#E0E0E0"/>
<path d="M210.63 123.69C210.627 124.172 210.79 124.639 211.09 125.016C211.39 125.392 211.81 125.655 212.28 125.76V222L236 245.69V306.4H237V245.3L213.26 221.55V125.76C213.648 125.67 214.003 125.472 214.284 125.189C214.565 124.907 214.76 124.551 214.848 124.162C214.936 123.773 214.912 123.368 214.78 122.992C214.648 122.616 214.412 122.285 214.1 122.037C213.789 121.788 213.413 121.633 213.017 121.588C212.621 121.544 212.221 121.612 211.862 121.784C211.502 121.957 211.199 122.227 210.987 122.564C210.774 122.901 210.661 123.292 210.66 123.69H210.63Z" fill="#E0E0E0"/>
<path d="M222.22 150.26V135.51C222.728 135.393 223.175 135.094 223.475 134.669C223.776 134.243 223.91 133.722 223.851 133.205C223.793 132.687 223.546 132.21 223.157 131.863C222.769 131.516 222.266 131.324 221.745 131.324C221.224 131.324 220.721 131.516 220.333 131.863C219.944 132.21 219.697 132.687 219.639 133.205C219.58 133.722 219.714 134.243 220.015 134.669C220.315 135.094 220.762 135.393 221.27 135.51V150.26C220.76 150.377 220.31 150.677 220.007 151.104C219.705 151.532 219.57 152.055 219.628 152.575C219.687 153.096 219.935 153.576 220.326 153.925C220.716 154.274 221.221 154.466 221.745 154.466C222.269 154.466 222.774 154.274 223.164 153.925C223.555 153.576 223.803 153.096 223.862 152.575C223.92 152.055 223.785 151.532 223.483 151.104C223.18 150.677 222.73 150.377 222.22 150.26V150.26Z" fill="#E0E0E0"/>
<path d="M248.23 123.69C248.229 124.174 248.393 124.643 248.695 125.021C248.997 125.399 249.418 125.663 249.89 125.77V221L264.28 235.39C264.029 235.79 263.919 236.263 263.966 236.733C264.013 237.203 264.215 237.644 264.541 237.986C264.866 238.329 265.296 238.554 265.763 238.625C266.23 238.697 266.707 238.611 267.12 238.382C267.533 238.153 267.858 237.792 268.044 237.358C268.23 236.924 268.266 236.44 268.147 235.983C268.028 235.526 267.76 235.121 267.386 234.833C267.012 234.545 266.552 234.389 266.08 234.39C265.68 234.39 265.288 234.505 264.95 234.72L250.84 220.61V125.76C251.227 125.668 251.581 125.469 251.86 125.185C252.139 124.902 252.333 124.546 252.42 124.157C252.506 123.769 252.481 123.364 252.348 122.989C252.215 122.614 251.979 122.284 251.667 122.036C251.356 121.789 250.98 121.635 250.585 121.59C250.189 121.546 249.79 121.614 249.431 121.787C249.072 121.959 248.769 122.229 248.557 122.566C248.345 122.903 248.231 123.292 248.23 123.69V123.69Z" fill="#E0E0E0"/>
<path d="M280 123.69C280 124.193 280.177 124.679 280.501 125.063C280.825 125.448 281.274 125.705 281.77 125.79V153.9L303.22 175.35V213L250 266.17L249.86 266.31V308.07H250.86V266.7L304 213.56L304.14 213.42V175L282.69 153.55V125.73C283.069 125.618 283.408 125.403 283.671 125.108C283.934 124.814 284.11 124.452 284.178 124.063C284.246 123.674 284.204 123.274 284.057 122.907C283.91 122.541 283.664 122.223 283.345 121.989C283.027 121.755 282.65 121.614 282.257 121.583C281.863 121.552 281.469 121.632 281.118 121.813C280.767 121.994 280.473 122.269 280.271 122.608C280.068 122.947 279.964 123.335 279.97 123.73L280 123.69Z" fill="#E0E0E0"/>
<path d="M219.63 220.53C219.61 220.821 219.65 221.114 219.748 221.389C219.846 221.664 219.999 221.916 220.198 222.13C220.397 222.343 220.638 222.513 220.906 222.629C221.174 222.746 221.463 222.806 221.755 222.806C222.047 222.806 222.336 222.746 222.604 222.629C222.872 222.513 223.113 222.343 223.312 222.13C223.511 221.916 223.664 221.664 223.762 221.389C223.86 221.114 223.9 220.821 223.88 220.53C223.879 220.207 223.804 219.889 223.66 219.6L237.21 206V135.51C237.721 135.394 238.172 135.094 238.475 134.668C238.779 134.241 238.915 133.717 238.857 133.196C238.799 132.675 238.551 132.194 238.16 131.845C237.77 131.496 237.264 131.302 236.74 131.302C236.216 131.302 235.71 131.496 235.32 131.845C234.929 132.194 234.681 132.675 234.623 133.196C234.565 133.717 234.701 134.241 235.005 134.668C235.308 135.094 235.759 135.394 236.27 135.51V205.65L223.06 218.86C222.689 218.56 222.227 218.398 221.75 218.4C221.187 218.403 220.648 218.628 220.25 219.027C219.853 219.427 219.63 219.967 219.63 220.53V220.53Z" fill="#E0E0E0"/>
<path d="M193.2 274.11C193.2 273.548 192.977 273.009 192.579 272.611C192.182 272.213 191.642 271.99 191.08 271.99C190.732 271.988 190.389 272.071 190.08 272.23L160.52 242.68C160.739 242.348 160.854 241.958 160.85 241.56C160.852 241.138 160.729 240.725 160.495 240.373C160.262 240.021 159.929 239.747 159.54 239.584C159.15 239.422 158.721 239.379 158.307 239.46C157.893 239.542 157.512 239.745 157.214 240.044C156.915 240.342 156.712 240.723 156.631 241.137C156.549 241.551 156.592 241.98 156.754 242.37C156.917 242.759 157.191 243.092 157.543 243.325C157.895 243.559 158.308 243.682 158.73 243.68C159.129 243.678 159.52 243.568 159.86 243.36L189.36 272.86C189.089 273.22 188.942 273.659 188.94 274.11C188.92 274.401 188.96 274.694 189.058 274.969C189.156 275.244 189.309 275.496 189.508 275.71C189.707 275.923 189.949 276.093 190.216 276.209C190.484 276.326 190.773 276.386 191.065 276.386C191.357 276.386 191.646 276.326 191.914 276.209C192.182 276.093 192.423 275.923 192.622 275.71C192.821 275.496 192.974 275.244 193.072 274.969C193.17 274.694 193.21 274.401 193.19 274.11H193.2Z" fill="#E0E0E0"/>
<path d="M190.51 175.05L197 181.55C196.864 181.838 196.792 182.152 196.79 182.47C196.79 182.891 196.915 183.303 197.149 183.653C197.383 184.004 197.716 184.277 198.105 184.438C198.494 184.599 198.922 184.641 199.336 184.559C199.749 184.477 200.128 184.274 200.426 183.976C200.724 183.678 200.927 183.299 201.009 182.886C201.091 182.472 201.049 182.044 200.888 181.655C200.727 181.266 200.454 180.933 200.103 180.699C199.753 180.465 199.341 180.34 198.92 180.34C198.44 180.338 197.975 180.5 197.6 180.8L191.46 174.66V159.73L178.54 146.82C178.748 146.48 178.858 146.089 178.86 145.69C178.862 145.268 178.739 144.855 178.505 144.503C178.272 144.151 177.939 143.877 177.55 143.714C177.16 143.552 176.731 143.509 176.317 143.59C175.903 143.672 175.522 143.875 175.224 144.174C174.925 144.472 174.722 144.853 174.641 145.267C174.559 145.681 174.602 146.11 174.764 146.5C174.927 146.889 175.201 147.222 175.553 147.455C175.905 147.689 176.318 147.812 176.74 147.81C177.139 147.808 177.53 147.698 177.87 147.49L190.51 160.13V175.05Z" fill="#E0E0E0"/>
<path d="M267.06 276.14H255V210.72C255 203.315 252.059 196.214 246.823 190.978C241.587 185.742 234.485 182.8 227.08 182.8C219.675 182.8 212.574 185.742 207.338 190.978C202.102 196.214 199.16 203.315 199.16 210.72V276.14H187.16V210.72C187.16 200.127 191.368 189.968 198.858 182.478C206.349 174.988 216.507 170.78 227.1 170.78C237.693 170.78 247.852 174.988 255.342 182.478C262.832 189.968 267.04 200.127 267.04 210.72L267.06 276.14Z" fill="#5865F2"/>
<g opacity="0.4">
<path d="M267.06 276.14H255V210.72C255 203.315 252.059 196.214 246.823 190.978C241.587 185.742 234.485 182.8 227.08 182.8C219.675 182.8 212.574 185.742 207.338 190.978C202.102 196.214 199.16 203.315 199.16 210.72V276.14H187.16V210.72C187.16 200.127 191.368 189.968 198.858 182.478C206.349 174.988 216.507 170.78 227.1 170.78C237.693 170.78 247.852 174.988 255.342 182.478C262.832 189.968 267.04 200.127 267.04 210.72L267.06 276.14Z" fill="black"/>
</g>
<path d="M275.14 247.04H179.1C175.891 247.04 173.29 249.641 173.29 252.85V310.3C173.29 313.509 175.891 316.11 179.1 316.11H275.14C278.349 316.11 280.95 313.509 280.95 310.3V252.85C280.95 249.641 278.349 247.04 275.14 247.04Z" fill="#5865F2"/>
<g opacity="0.5">
<path d="M236.12 272.58C236.129 270.904 235.669 269.259 234.794 267.83C233.918 266.401 232.66 265.245 231.163 264.492C229.665 263.739 227.987 263.419 226.318 263.569C224.649 263.718 223.054 264.331 221.714 265.337C220.374 266.344 219.342 267.705 218.734 269.267C218.125 270.829 217.965 272.529 218.272 274.177C218.578 275.825 219.338 277.355 220.467 278.594C221.596 279.833 223.048 280.732 224.66 281.19V294.65H229.57V281.19C231.448 280.659 233.102 279.532 234.283 277.979C235.464 276.426 236.109 274.531 236.12 272.58V272.58Z" fill="black"/>
</g>
<path d="M179 309.56C178.76 309.56 178.56 298.04 178.56 283.84C178.56 269.64 178.76 258.11 179 258.11C179.24 258.11 179.45 269.63 179.45 283.84C179.45 298.05 179.28 309.56 179 309.56Z" fill="#FAFAFA"/>
<path d="M220.07 284.11C220.07 284.16 219.65 283.97 219.07 283.51C218.18 282.848 217.397 282.051 216.75 281.15C215.627 279.669 214.846 277.959 214.462 276.141C214.078 274.322 214.101 272.442 214.529 270.634C214.957 268.825 215.78 267.134 216.938 265.681C218.097 264.229 219.562 263.05 221.23 262.23C222.214 261.717 223.269 261.353 224.36 261.15C224.755 261.045 225.167 261.024 225.57 261.09C224.195 261.55 222.858 262.115 221.57 262.78C220.043 263.62 218.709 264.771 217.654 266.158C216.599 267.545 215.846 269.138 215.445 270.834C215.043 272.531 215.002 274.292 215.323 276.005C215.645 277.718 216.321 279.345 217.31 280.78C218.143 281.96 219.065 283.073 220.07 284.11Z" fill="#FAFAFA"/>
<path d="M299 341.64L299.72 340.64L300.13 340.1C300.27 339.9 300.39 339.65 300.54 339.4C300.899 338.819 301.204 338.207 301.45 337.57C301.6 337.21 301.77 336.83 301.91 336.42C302.05 336.01 302.15 335.57 302.27 335.1C302.414 334.619 302.517 334.128 302.58 333.63C302.687 333.095 302.76 332.554 302.8 332.01C303.02 329.406 302.902 326.784 302.45 324.21C301.54 318.36 299.07 311.49 295.27 304.01C290.873 295.576 285.719 287.56 279.87 280.06C272.821 270.929 265.135 262.307 256.87 254.26C247.434 244.986 237.359 236.385 226.72 228.52C221.09 224.39 215.15 220.38 208.89 216.6C202.524 212.711 195.91 209.244 189.09 206.22C182.075 203.006 174.684 200.684 167.09 199.31C163.21 198.624 159.249 198.526 155.34 199.02C153.383 199.308 151.476 199.863 149.67 200.67C147.876 201.522 146.259 202.702 144.9 204.15C143.622 205.664 142.632 207.399 141.98 209.27C141.389 211.16 141.053 213.121 140.98 215.1C140.935 219.039 141.481 222.963 142.6 226.74C144.834 234.156 147.992 241.262 152 247.89C155.782 254.321 159.981 260.498 164.57 266.38C169.03 272.17 173.7 277.61 178.45 282.73C187.467 292.404 197.158 301.426 207.45 309.73C216.387 317.013 225.827 323.656 235.7 329.61C243.816 334.565 252.365 338.776 261.24 342.19C269.1 345.1 276.24 346.78 282.12 347.01C284.732 347.169 287.354 346.991 289.92 346.48C290.454 346.374 290.982 346.237 291.5 346.07C291.988 345.951 292.466 345.794 292.93 345.6L294.2 345.09C294.59 344.9 294.94 344.69 295.29 344.51C295.892 344.188 296.464 343.813 297 343.39C297.23 343.21 297.46 343.06 297.65 342.9L298.13 342.44L299.01 341.61C299.01 341.61 298.73 341.91 298.17 342.47L297.69 342.95C297.5 343.11 297.28 343.26 297.04 343.44C296.51 343.879 295.937 344.265 295.33 344.59C294.99 344.77 294.63 344.99 294.25 345.18L292.97 345.71C292.507 345.907 292.029 346.068 291.54 346.19C291.019 346.361 290.488 346.501 289.95 346.61C287.376 347.144 284.744 347.339 282.12 347.19C276.18 346.99 269.04 345.33 261.12 342.43C252.217 339.037 243.641 334.839 235.5 329.89C225.603 323.947 216.139 317.311 207.18 310.03C196.861 301.728 187.144 292.705 178.1 283.03C173.34 277.91 168.67 272.46 164.19 266.66C159.589 260.76 155.376 254.567 151.58 248.12C147.564 241.473 144.399 234.347 142.16 226.91C141.016 223.09 140.463 219.117 140.52 215.13C140.579 213.094 140.915 211.075 141.52 209.13C142.142 207.175 143.17 205.373 144.537 203.843C145.903 202.313 147.578 201.088 149.45 200.25C151.298 199.428 153.249 198.859 155.25 198.56C159.206 198.059 163.215 198.16 167.14 198.86C174.782 200.237 182.22 202.568 189.28 205.8C196.113 208.837 202.741 212.318 209.12 216.22C215.39 220.01 221.33 224.03 226.97 228.22C237.622 236.091 247.704 244.706 257.14 254C265.39 262.072 273.059 270.717 280.09 279.87C285.932 287.388 291.08 295.421 295.47 303.87C299.24 311.38 301.7 318.29 302.58 324.16C303.024 326.752 303.131 329.39 302.9 332.01C302.847 332.557 302.767 333.101 302.66 333.64C302.596 334.138 302.493 334.629 302.35 335.11C302.21 335.58 302.09 336.02 301.97 336.44C301.85 336.86 301.65 337.22 301.5 337.59C301.242 338.227 300.928 338.839 300.56 339.42C300.41 339.67 300.28 339.91 300.14 340.12C300 340.33 299.85 340.49 299.72 340.64C299.23 341.33 299 341.64 299 341.64Z" fill="#5865F2"/>
<path d="M327.46 272.85C327.46 272.85 327.46 272.44 327.36 271.65C327.36 271.45 327.36 271.23 327.3 270.98C327.24 270.73 327.2 270.47 327.14 270.18C327.026 269.498 326.849 268.829 326.61 268.18C326.47 267.82 326.35 267.42 326.18 267.02L325.58 265.79C325.36 265.34 325.11 264.905 324.83 264.49C324.53 264.06 324.28 263.57 323.92 263.14C322.343 261.051 320.505 259.172 318.45 257.55C313.89 253.79 307.45 250.3 299.65 247.25C290.756 243.886 281.575 241.335 272.22 239.63C260.892 237.49 249.427 236.154 237.91 235.63C224.693 234.986 211.446 235.277 198.27 236.5C191.27 237.16 184.22 238.12 177.03 239.5C169.693 240.866 162.451 242.704 155.35 245C147.981 247.283 140.927 250.478 134.35 254.51C130.98 256.574 127.945 259.14 125.35 262.12C124.078 263.634 123.021 265.317 122.21 267.12C121.396 268.935 120.975 270.901 120.975 272.89C120.975 274.879 121.396 276.845 122.21 278.66C123.026 280.461 124.082 282.143 125.35 283.66C127.944 286.641 130.979 289.207 134.35 291.27C140.928 295.302 147.982 298.5 155.35 300.79C162.444 303.049 169.675 304.849 177 306.18C184.19 307.53 191.29 308.48 198.24 309.18C211.416 310.403 224.663 310.694 237.88 310.05C249.397 309.527 260.862 308.19 272.19 306.05C281.548 304.345 290.733 301.794 299.63 298.43C307.43 295.38 313.86 291.89 318.42 288.13C320.475 286.508 322.313 284.629 323.89 282.54C324.25 282.11 324.5 281.62 324.8 281.19C325.08 280.775 325.33 280.34 325.55 279.89C325.76 279.46 325.96 279.05 326.16 278.66C326.36 278.27 326.44 277.87 326.58 277.5C326.819 276.851 326.996 276.182 327.11 275.5C327.17 275.21 327.24 274.94 327.27 274.7C327.3 274.46 327.27 274.23 327.33 274.03C327.39 273.24 327.43 272.83 327.43 272.83C327.43 272.83 327.43 273.24 327.37 274.04C327.37 274.24 327.37 274.46 327.37 274.71C327.37 274.96 327.27 275.22 327.22 275.51C327.109 276.191 326.935 276.861 326.7 277.51C326.57 277.88 326.45 278.28 326.29 278.68L325.69 279.92C325.478 280.377 325.227 280.816 324.94 281.23C324.665 281.706 324.364 282.166 324.04 282.61C322.466 284.714 320.632 286.609 318.58 288.25C314.01 292.05 307.58 295.57 299.76 298.65C290.856 302.048 281.662 304.628 272.29 306.36C260.949 308.507 249.47 309.843 237.94 310.36C224.704 311.022 211.438 310.748 198.24 309.54C191.24 308.88 184.16 307.93 176.96 306.59C169.6 305.249 162.335 303.432 155.21 301.15C147.789 298.859 140.683 295.647 134.06 291.59C130.668 289.497 127.613 286.901 125 283.89C123.706 282.335 122.626 280.613 121.79 278.77C120.956 276.895 120.525 274.867 120.525 272.815C120.525 270.763 120.956 268.735 121.79 266.86C122.624 265.016 123.704 263.294 125 261.74C127.617 258.732 130.675 256.139 134.07 254.05C140.69 249.993 147.792 246.781 155.21 244.49C162.348 242.216 169.627 240.412 177 239.09C184.2 237.74 191.32 236.79 198.28 236.09C211.474 234.882 224.737 234.608 237.97 235.27C249.503 235.792 260.985 237.129 272.33 239.27C281.702 240.995 290.897 243.573 299.8 246.97C307.61 250.05 314.05 253.57 318.61 257.37C320.667 259.009 322.505 260.904 324.08 263.01C324.404 263.454 324.705 263.914 324.98 264.39C325.267 264.804 325.518 265.243 325.73 265.7L326.33 266.94C326.49 267.35 326.61 267.74 326.74 268.11C326.975 268.759 327.149 269.429 327.26 270.11C327.31 270.4 327.38 270.67 327.41 270.91C327.44 271.15 327.41 271.38 327.41 271.59C327.45 272.44 327.46 272.85 327.46 272.85Z" fill="#5865F2"/>
<path d="M289.7 187.22L288.7 186.57L288.14 186.2C287.92 186.08 287.67 185.97 287.41 185.84C286.805 185.521 286.172 185.256 285.52 185.05C285.15 184.94 284.76 184.79 284.35 184.68L283 184.4C282.513 184.295 282.018 184.228 281.52 184.2C280.99 184.2 280.45 184.07 279.88 184.09C277.266 184.053 274.658 184.352 272.12 184.98C266.35 186.29 259.66 189.23 252.46 193.53C244.353 198.497 236.712 204.186 229.63 210.53C221.01 218.179 212.94 226.426 205.48 235.21C196.87 245.259 188.984 255.905 181.88 267.07C178.14 272.97 174.55 279.16 171.21 285.67C167.773 292.289 164.766 299.123 162.21 306.13C159.497 313.362 157.693 320.903 156.84 328.58C156.423 332.497 156.598 336.455 157.36 340.32C157.777 342.251 158.45 344.117 159.36 345.87C160.296 347.634 161.594 349.182 163.169 350.41C164.744 351.639 166.561 352.521 168.5 353C170.425 353.46 172.402 353.659 174.38 353.59C178.314 353.372 182.192 352.556 185.88 351.17C193.11 348.443 199.968 344.814 206.29 340.37C212.449 336.156 218.325 331.542 223.88 326.56C229.34 321.71 234.45 316.68 239.24 311.56C248.287 301.894 256.641 291.602 264.24 280.76C270.894 271.345 276.873 261.471 282.13 251.21C286.515 242.771 290.127 233.951 292.92 224.86C295.29 216.86 296.47 209.61 296.29 203.7C296.269 201.085 295.909 198.483 295.22 195.96C295.077 195.432 294.907 194.911 294.71 194.4C294.557 193.922 294.366 193.458 294.14 193.01L293.54 191.78C293.33 191.41 293.09 191.07 292.89 190.78C292.53 190.198 292.115 189.652 291.65 189.15C291.46 188.92 291.29 188.71 291.12 188.53C290.95 188.35 290.77 188.22 290.63 188.08L289.74 187.26C289.74 187.26 290.06 187.52 290.66 188.05L291.16 188.49C291.34 188.66 291.51 188.88 291.71 189.1C292.175 189.604 292.594 190.15 292.96 190.73C293.17 191.06 293.41 191.4 293.63 191.73C293.85 192.06 294.03 192.53 294.25 192.97C294.479 193.418 294.672 193.882 294.83 194.36C294.99 194.86 295.23 195.36 295.36 195.92C296.058 198.452 296.431 201.063 296.47 203.69C296.68 209.63 295.52 216.87 293.17 224.93C290.398 234.048 286.799 242.895 282.42 251.36C277.165 261.653 271.183 271.558 264.52 281C256.928 291.869 248.573 302.185 239.52 311.87C234.73 316.97 229.62 322.01 224.14 326.87C218.575 331.869 212.689 336.499 206.52 340.73C200.159 345.188 193.265 348.833 186 351.58C182.277 352.964 178.366 353.779 174.4 354C172.382 354.068 170.364 353.866 168.4 353.4C166.427 352.858 164.57 351.96 162.92 350.75C161.336 349.456 160.007 347.88 159 346.1C158.055 344.309 157.355 342.398 156.92 340.42C156.146 336.509 155.967 332.504 156.39 328.54C157.238 320.831 159.049 313.259 161.78 306C164.329 298.974 167.335 292.123 170.78 285.49C174.13 278.97 177.78 272.76 181.49 266.86C188.622 255.695 196.535 245.048 205.17 235C212.658 226.209 220.755 217.956 229.4 210.3C236.511 203.952 244.182 198.262 252.32 193.3C259.55 189.01 266.27 186.08 272.07 184.8C274.626 184.18 277.251 183.891 279.88 183.94C280.429 183.952 280.976 183.995 281.52 184.07C282.025 184.097 282.527 184.167 283.02 184.28L284.36 184.57C284.78 184.69 285.17 184.83 285.54 184.96C286.196 185.164 286.83 185.435 287.43 185.77C287.69 185.9 287.94 186.01 288.16 186.14L288.71 186.52C289.37 187 289.7 187.22 289.7 187.22Z" fill="#5865F2"/>
<path d="M336.2 196.56C336.2 197.319 335.975 198.062 335.553 198.693C335.131 199.325 334.531 199.817 333.83 200.108C333.128 200.398 332.356 200.474 331.611 200.326C330.866 200.178 330.182 199.812 329.645 199.275C329.108 198.738 328.742 198.054 328.594 197.309C328.446 196.564 328.522 195.792 328.812 195.09C329.103 194.389 329.595 193.789 330.227 193.367C330.858 192.945 331.601 192.72 332.36 192.72C332.864 192.72 333.364 192.819 333.83 193.012C334.295 193.205 334.719 193.488 335.075 193.845C335.432 194.201 335.715 194.625 335.908 195.09C336.101 195.556 336.2 196.056 336.2 196.56V196.56Z" fill="#5865F2"/>
<path d="M330.47 227.37C330.47 227.568 330.411 227.761 330.301 227.926C330.192 228.09 330.035 228.218 329.853 228.294C329.67 228.37 329.469 228.389 329.275 228.351C329.081 228.312 328.903 228.217 328.763 228.077C328.623 227.937 328.528 227.759 328.489 227.565C328.451 227.371 328.47 227.17 328.546 226.987C328.622 226.805 328.75 226.648 328.914 226.539C329.079 226.429 329.272 226.37 329.47 226.37C329.735 226.37 329.99 226.475 330.177 226.663C330.365 226.85 330.47 227.105 330.47 227.37Z" fill="#5865F2"/>
<path d="M374.26 434.88L373.55 468.38L417.65 469.38C417.49 465.38 394.89 456.86 394.89 456.86L396.28 435.42L374.26 434.88Z" fill="#5865F2"/>
<g opacity="0.6">
<path d="M381.31 454.78C380.893 454.876 380.527 455.126 380.286 455.48C380.045 455.834 379.946 456.266 380.01 456.69C380.128 457.109 380.399 457.468 380.77 457.696C381.14 457.924 381.583 458.004 382.01 457.92C382.445 457.815 382.825 457.552 383.076 457.182C383.328 456.813 383.432 456.363 383.37 455.92C383.198 455.496 382.874 455.152 382.462 454.954C382.05 454.757 381.578 454.719 381.14 454.85" fill="white"/>
</g>
<g opacity="0.6">
<path d="M373.55 468.38L373.77 465.01L416 467.26C416 467.26 417.94 468.12 417.69 469.42L373.55 468.38Z" fill="white"/>
</g>
<path d="M395.61 456.71C395.61 456.91 394.52 456.98 393.45 457.61C392.38 458.24 391.78 459.08 391.59 458.99C391.4 458.9 391.74 457.74 393.06 456.99C394.38 456.24 395.67 456.52 395.61 456.71Z" fill="#263238"/>
<path d="M400.19 458.62C400.19 458.82 399.29 459.15 398.54 459.99C397.79 460.83 397.54 461.74 397.34 461.72C397.14 461.7 397.02 460.56 397.97 459.52C398.92 458.48 400.19 458.43 400.19 458.62Z" fill="#263238"/>
<path d="M402.68 463.92C402.48 463.92 402.21 462.92 402.79 461.83C403.37 460.74 404.39 460.31 404.48 460.48C404.57 460.65 403.93 461.23 403.48 462.14C403.03 463.05 402.89 463.9 402.68 463.92Z" fill="#263238"/>
<path d="M395.36 451.79C395.26 451.97 394.28 451.67 393.06 451.72C391.84 451.77 390.88 452.11 390.78 451.93C390.68 451.75 391.6 451.05 393.04 451.01C394.48 450.97 395.46 451.63 395.36 451.79Z" fill="#263238"/>
<path d="M394.44 446.82C393.71 446.986 392.95 446.965 392.23 446.76C391.438 446.605 390.666 446.36 389.93 446.03C389.5 445.832 389.083 445.608 388.68 445.36C388.437 445.231 388.217 445.062 388.03 444.86C387.896 444.714 387.816 444.526 387.803 444.327C387.79 444.129 387.846 443.932 387.96 443.77C388.081 443.624 388.235 443.508 388.408 443.432C388.582 443.355 388.771 443.321 388.96 443.33C389.241 443.337 389.52 443.38 389.79 443.46C390.257 443.578 390.713 443.738 391.15 443.94C391.882 444.267 392.558 444.71 393.15 445.25C394.15 446.17 394.48 446.93 394.41 446.97C394.34 447.01 393.83 446.39 392.81 445.62C392.208 445.177 391.553 444.811 390.86 444.53C390.455 444.362 390.037 444.229 389.61 444.13C389.14 444 388.75 443.99 388.61 444.18C388.47 444.37 388.56 444.29 388.61 444.42C388.755 444.562 388.916 444.686 389.09 444.79C389.462 445.03 389.845 445.251 390.24 445.45C390.92 445.788 391.63 446.063 392.36 446.27C393.065 446.406 393.76 446.59 394.44 446.82Z" fill="#263238"/>
<path d="M394.15 447.1C394.07 447.1 393.66 446.39 393.62 445.1C393.601 444.328 393.723 443.558 393.98 442.83C394.135 442.39 394.336 441.967 394.58 441.57C394.713 441.295 394.915 441.059 395.165 440.884C395.415 440.709 395.706 440.601 396.01 440.57C396.205 440.572 396.394 440.631 396.556 440.739C396.718 440.848 396.844 441.001 396.92 441.18C397.03 441.424 397.097 441.684 397.12 441.95C397.196 442.414 397.196 442.886 397.12 443.35C396.973 444.136 396.629 444.872 396.12 445.49C395.23 446.55 394.32 446.77 394.31 446.7C394.3 446.63 395 446.22 395.69 445.2C396.077 444.611 396.333 443.946 396.44 443.25C396.495 442.852 396.495 442.448 396.44 442.05C396.38 441.6 396.21 441.24 396.04 441.28C395.87 441.32 395.44 441.6 395.25 441.95C395.02 442.3 394.826 442.671 394.67 443.06C394.403 443.724 394.241 444.426 394.19 445.14C394.06 446.31 394.27 447.08 394.15 447.1Z" fill="#263238"/>
<path d="M340.84 437.67L336.63 470.9L292.86 465.47C293.59 461.55 317.2 456.42 317.2 456.42L319 435L340.84 437.67Z" fill="#5865F2"/>
<g opacity="0.6">
<path d="M331 456.31C331.398 456.467 331.722 456.769 331.907 457.154C332.092 457.54 332.126 457.981 332 458.39C331.824 458.786 331.505 459.102 331.106 459.274C330.708 459.446 330.26 459.463 329.85 459.32C329.427 459.154 329.084 458.833 328.889 458.422C328.694 458.012 328.662 457.543 328.8 457.11C329.031 456.715 329.402 456.422 329.838 456.287C330.275 456.152 330.747 456.185 331.16 456.38" fill="white"/>
</g>
<g opacity="0.6">
<path d="M336.63 470.9L336.91 467.54L294.84 463.54C294.84 463.54 292.84 464.1 292.84 465.42L336.63 470.9Z" fill="white"/>
</g>
<path d="M316.51 456.13C316.51 456.33 317.51 456.55 318.51 457.33C319.51 458.11 320 459 320.16 459C320.32 459 320.16 457.73 319 456.81C317.84 455.89 316.49 455.93 316.51 456.13Z" fill="#263238"/>
<path d="M311.71 457.35C311.63 457.54 312.52 458 313.14 458.94C313.76 459.88 313.86 460.82 314.08 460.84C314.3 460.86 314.56 459.73 313.77 458.57C312.98 457.41 311.73 457.16 311.71 457.35Z" fill="#263238"/>
<path d="M308.47 462.22C308.66 462.29 309.08 461.32 308.66 460.14C308.24 458.96 307.3 458.4 307.19 458.56C307.08 458.72 307.63 459.39 307.95 460.35C308.27 461.31 308.26 462.18 308.47 462.22Z" fill="#263238"/>
<path d="M317.49 451.3C317.56 451.49 318.57 451.3 319.77 451.56C320.97 451.82 321.87 452.27 322 452.11C322.13 451.95 321.31 451.11 319.9 450.87C318.49 450.63 317.41 451.12 317.49 451.3Z" fill="#263238"/>
<path d="M319.13 446.52C319.827 446.789 320.58 446.878 321.32 446.78C322.125 446.742 322.923 446.614 323.7 446.4C324.153 446.268 324.597 446.108 325.03 445.92C325.289 445.823 325.531 445.688 325.75 445.52C325.907 445.396 326.015 445.222 326.057 445.026C326.099 444.831 326.072 444.627 325.98 444.45C325.886 444.294 325.758 444.16 325.606 444.06C325.454 443.96 325.281 443.895 325.1 443.87C324.825 443.829 324.545 443.829 324.27 443.87C323.79 443.92 323.315 444.01 322.85 444.14C322.079 444.358 321.347 444.696 320.68 445.14C319.55 445.9 319.11 446.61 319.18 446.66C319.25 446.71 319.84 446.17 320.96 445.56C321.621 445.207 322.323 444.939 323.05 444.76C323.477 444.657 323.912 444.587 324.35 444.55C324.83 444.49 325.22 444.55 325.35 444.75C325.48 444.95 325.35 444.86 325.27 444.98C325.106 445.098 324.928 445.195 324.74 445.27C324.339 445.452 323.929 445.613 323.51 445.75C322.787 445.988 322.044 446.159 321.29 446.26C320.565 446.293 319.843 446.38 319.13 446.52Z" fill="#263238"/>
<path d="M319.37 446.84C319.44 446.84 319.96 446.21 320.19 444.91C320.33 444.146 320.33 443.364 320.19 442.6C320.098 442.147 319.961 441.705 319.78 441.28C319.691 440.984 319.528 440.717 319.305 440.503C319.083 440.289 318.809 440.137 318.51 440.06C318.317 440.03 318.119 440.058 317.941 440.14C317.763 440.222 317.613 440.354 317.51 440.52C317.367 440.746 317.26 440.992 317.19 441.25C317.057 441.704 316.999 442.177 317.02 442.65C317.047 443.45 317.281 444.228 317.7 444.91C318.42 446.08 319.28 446.44 319.31 446.37C318.89 445.835 318.509 445.27 318.17 444.68C317.864 444.058 317.706 443.373 317.71 442.68C317.712 442.277 317.772 441.876 317.89 441.49C318.02 441.06 318.23 440.72 318.4 440.79C318.57 440.86 318.95 441.19 319.09 441.56C319.262 441.943 319.396 442.341 319.49 442.75C319.656 443.444 319.717 444.158 319.67 444.87C319.58 446.07 319.26 446.8 319.37 446.84Z" fill="#263238"/>
<path d="M412.5 257L339.81 259.33C339.81 259.33 323.63 367.38 324.07 374.88L314.07 453.26L343.07 454.26C343.07 454.26 347.64 428.85 350.82 411.45C352.94 399.88 356.82 382.9 357.82 373.24C358.82 363.58 373.43 297 373.43 297C373.43 297 374.69 374.37 374.72 377.59C374.75 380.81 371.36 454.15 371.36 454.15H400.19C401.68 440.91 405.19 387.94 405.98 377.24C407.36 357.91 414.12 302.31 414.75 288.36C415.38 274.41 412.5 257 412.5 257Z" fill="#263238"/>
<path d="M350.84 268.57C350.555 267.474 350.437 266.341 350.49 265.21C350.377 264.082 350.424 262.944 350.63 261.83C350.915 262.926 351.036 264.058 350.99 265.19C351.104 266.318 351.053 267.457 350.84 268.57Z" fill="#455A64"/>
<path d="M353.49 267.79C353.338 265.874 353.517 263.945 354.02 262.09C354.184 264.006 354.005 265.937 353.49 267.79V267.79Z" fill="#455A64"/>
<path d="M397.86 267.79C397.513 266.168 397.513 264.492 397.86 262.87C398.193 264.493 398.193 266.167 397.86 267.79V267.79Z" fill="#455A64"/>
<path d="M400.71 269.09C400.351 268.077 400.255 266.99 400.43 265.93C400.436 264.86 400.707 263.809 401.22 262.87C401.191 263.909 401.094 264.944 400.93 265.97C400.921 267.014 400.848 268.056 400.71 269.09V269.09Z" fill="#455A64"/>
<path d="M377.55 295.3C377.56 294.875 377.617 294.452 377.72 294.04C377.87 293.13 378.07 291.99 378.3 290.62C378.78 287.73 379.3 283.73 379.7 279.29C380.1 274.85 380.15 270.8 380.14 267.87C380.14 266.48 380.14 265.32 380.14 264.4C380.102 263.978 380.102 263.552 380.14 263.13C380.24 263.546 380.294 263.972 380.3 264.4C380.37 265.21 380.44 266.4 380.49 267.86C380.597 271.686 380.497 275.515 380.19 279.33C379.885 283.139 379.367 286.928 378.64 290.68C378.36 292.12 378.1 293.28 377.9 294.08C377.823 294.497 377.706 294.906 377.55 295.3V295.3Z" fill="#455A64"/>
<path d="M375.06 263.94C374.504 264.052 373.997 264.335 373.61 264.75C373.418 264.972 373.276 265.232 373.193 265.513C373.11 265.794 373.089 266.09 373.13 266.38C373.216 266.719 373.401 267.024 373.661 267.257C373.921 267.491 374.244 267.641 374.59 267.69C374.929 267.773 375.285 267.752 375.612 267.628C375.938 267.505 376.22 267.286 376.42 267C376.568 266.749 376.658 266.468 376.686 266.178C376.714 265.888 376.677 265.595 376.58 265.32C376.24 264.32 375.47 264.11 375.53 264.03C375.59 263.95 375.72 264.03 376.01 264.16C376.417 264.379 376.735 264.733 376.91 265.16C377.053 265.488 377.119 265.843 377.103 266.2C377.087 266.557 376.991 266.906 376.82 267.22C376.562 267.581 376.207 267.86 375.795 268.025C375.383 268.19 374.933 268.234 374.497 268.151C374.061 268.068 373.659 267.861 373.337 267.556C373.015 267.251 372.787 266.86 372.68 266.43C372.635 266.075 372.671 265.715 372.788 265.377C372.904 265.039 373.096 264.732 373.35 264.48C373.674 264.138 374.104 263.916 374.57 263.85C374.89 263.85 375.07 263.92 375.06 263.94Z" fill="#455A64"/>
<path d="M343.41 383.16C340.907 382.391 338.453 381.473 336.06 380.41C333.607 379.491 331.215 378.416 328.9 377.19C331.403 377.959 333.857 378.877 336.25 379.94C338.704 380.856 341.096 381.932 343.41 383.16V383.16Z" fill="#455A64"/>
<path d="M416.34 261.83C416.09 260.9 410.34 212.94 410.34 212.94L413.34 150.69L387.44 141.6L383.34 138.47L357.34 138.77L354.39 143.17L329.74 154.39L336.61 205.39L338.54 248.07L340.36 263.87L413.43 268.23L416.34 261.83Z" fill="#5865F2"/>
<g opacity="0.3">
<path d="M412.37 229.84L385 233.12C384.73 235.12 386.27 237.07 388.16 237.86C390.09 238.521 392.162 238.652 394.16 238.24C396.16 237.829 398.199 237.644 400.24 237.69C402.24 237.87 404.24 238.69 406.31 238.55C407.327 238.487 408.316 238.194 409.203 237.692C410.09 237.191 410.852 236.494 411.43 235.655C412.008 234.816 412.387 233.856 412.54 232.849C412.692 231.842 412.614 230.813 412.31 229.84H412.37Z" fill="black"/>
</g>
<path d="M413.3 150.69C413.3 150.69 419.37 151.53 422.91 162.16C426.45 172.79 434.77 211.38 435.3 214C435.83 216.62 433.53 225.13 424.3 228.93C415.42 232.57 408.41 231.42 408.41 231.42V211.91L412.3 207.66L410.78 200.77L413.3 150.69Z" fill="#5865F2"/>
<path d="M429.77 208.7C429.454 208.596 429.147 208.469 428.85 208.32C428.26 208.05 427.4 207.68 426.32 207.32C425.06 206.844 423.762 206.476 422.44 206.22C421.665 206.061 420.88 205.961 420.09 205.92C419.244 205.856 418.393 205.907 417.56 206.07C414.611 206.641 411.944 208.2 410 210.49C409.442 211.203 409 211.999 408.69 212.85C408.611 213.173 408.511 213.49 408.39 213.8C408.377 213.717 408.377 213.633 408.39 213.55C408.39 213.38 408.47 213.13 408.55 212.81C408.832 211.933 409.258 211.108 409.81 210.37C411.752 207.994 414.467 206.377 417.48 205.8C418.332 205.632 419.204 205.581 420.07 205.65C420.874 205.696 421.673 205.803 422.46 205.97C423.793 206.24 425.099 206.631 426.36 207.14C427.44 207.56 428.28 207.97 428.86 208.26L429.52 208.6L429.77 208.7Z" fill="#263238"/>
<path d="M424.28 205.06C424.28 205.11 423.55 204.78 422.33 204.53C420.738 204.194 419.091 204.224 417.512 204.619C415.934 205.014 414.466 205.764 413.22 206.81C412.22 207.61 411.78 208.23 411.75 208.2C411.72 208.17 411.84 208.02 412.06 207.75C412.359 207.356 412.694 206.991 413.06 206.66C414.301 205.547 415.795 204.754 417.413 204.35C419.03 203.945 420.721 203.942 422.34 204.34C422.83 204.452 423.309 204.61 423.77 204.81C423.951 204.869 424.123 204.953 424.28 205.06V205.06Z" fill="#263238"/>
<path d="M411.31 166.6C411.39 166.6 411.31 176.11 411.19 187.84C411.07 199.57 410.87 209.07 410.79 209.07C410.71 209.07 410.79 199.56 410.91 187.83C411.03 176.1 411.23 166.6 411.31 166.6Z" fill="#263238"/>
<path d="M344.91 86.19C343.631 85.8769 342.289 85.9418 341.047 86.3767C339.804 86.8116 338.715 87.5978 337.91 88.64C337.147 89.7071 336.728 90.9823 336.71 92.2943C336.692 93.6064 337.076 94.8925 337.81 95.98C338.485 96.8427 339.342 97.5449 340.321 98.036C341.3 98.5271 342.375 98.7949 343.47 98.82C345.666 98.8508 347.829 98.2876 349.73 97.19L350.05 91.56C349.757 90.2848 349.124 89.1125 348.22 88.1673C347.315 87.222 346.171 86.5388 344.91 86.19Z" fill="#263238"/>
<path d="M360.12 107.27C362.883 111.783 364.471 116.916 364.74 122.2C364.85 127.47 362.98 132.91 359.05 136.42C358.347 137.16 357.389 137.604 356.37 137.66C355.37 137.66 354.37 136.55 354.79 135.66C354.025 137.255 352.943 138.678 351.61 139.84C351.206 140.274 350.652 140.539 350.06 140.58C349.644 140.518 349.263 140.31 348.986 139.993C348.71 139.676 348.555 139.271 348.55 138.85C348.561 138.007 348.777 137.18 349.18 136.44C348.18 136.44 347.33 137.23 346.45 137.77C345.57 138.31 344.26 138.55 343.66 137.71C343.06 136.87 343.55 135.94 343.99 135.13C345.99 131.45 347.99 127.57 348.08 123.38C348.14 120.38 347.2 117.38 347.61 114.45C347.89 112.652 348.646 110.962 349.799 109.556C350.953 108.149 352.462 107.076 354.17 106.45C356.17 105.76 358.6 105.81 360.05 107.32" fill="#263238"/>
<path d="M383.89 129C385.71 126.12 389.49 124.94 390.89 121.83C393.34 116.35 392.63 111.49 392.01 105.52C391.58 101.43 391.57 95.58 388.83 92.52C386.9 90.36 385.54 89.06 383.83 86.76C381.9 84.23 379.83 81.21 381.37 78.41" fill="#263238"/>
<path d="M383.08 129.13C383.625 128.484 384.301 127.96 385.062 127.593C385.824 127.225 386.655 127.024 387.5 127C388.356 126.985 389.206 127.155 389.99 127.5L381.28 77.77C383.52 77.3 389.07 79.98 390.7 81.6C392.242 83.3107 393.492 85.2635 394.4 87.38C398.58 95.82 396.83 106.51 393.4 114.69C396.51 121.18 397.04 127.43 393.32 131.69L393.26 131.76L392.73 132.38C392.144 133.057 391.725 133.862 391.508 134.731C391.29 135.599 391.281 136.507 391.48 137.38V137.45C391.634 137.956 391.715 138.481 391.72 139.01C391.72 139.275 391.65 139.535 391.516 139.763C391.383 139.992 391.191 140.18 390.96 140.31C390.18 140.67 389.3 140.01 388.89 139.26C388.588 138.458 388.185 137.699 387.69 137C387.272 137.959 386.908 138.94 386.6 139.94C386.14 140.88 384.97 141.67 384.08 141.13C383.728 140.875 383.451 140.53 383.28 140.13C382.354 138.423 381.757 136.558 381.52 134.63C381.3 132.663 381.86 130.688 383.08 129.13V129.13Z" fill="#263238"/>
<path d="M353.9 101.45L357.26 138.77C358.06 146.15 374.4 150.69 374.4 150.69L378.89 156.12L380.8 150.12C381.98 148.23 384.41 145.98 383.99 142.12C383.63 138.85 383.43 134.97 383.42 134.63C383.42 134.63 394.14 131.42 393.76 120.4C393.58 115.07 392.82 106.16 391.56 96.28C390.9 91.1619 388.339 86.4795 384.385 83.1631C380.432 79.8467 375.375 78.1393 370.22 78.38H369.16C357.73 79.68 352.38 90.06 353.9 101.45Z" fill="#FFD6BE"/>
<path d="M383.47 134.72C378.39 135.059 373.324 133.876 368.92 131.32C368.92 131.32 372.68 139.08 383.63 137.58L383.47 134.72Z" fill="#FFB294"/>
<path d="M386.78 107C386.808 107.411 386.672 107.816 386.402 108.127C386.132 108.438 385.751 108.629 385.34 108.66C385.141 108.686 384.939 108.672 384.746 108.619C384.552 108.565 384.372 108.473 384.215 108.348C384.058 108.223 383.928 108.067 383.833 107.891C383.737 107.714 383.679 107.52 383.66 107.32C383.635 106.91 383.772 106.506 384.041 106.196C384.31 105.886 384.691 105.693 385.1 105.66C385.299 105.635 385.501 105.65 385.693 105.704C385.886 105.758 386.066 105.851 386.223 105.976C386.379 106.1 386.509 106.255 386.605 106.431C386.701 106.607 386.76 106.801 386.78 107V107Z" fill="#263238"/>
<path d="M389 101.46C388.84 101.62 387.59 101.46 386 101.94C384.41 102.42 383.28 103.19 383.08 103.13C382.88 103.07 383.13 102.86 383.6 102.5C384.303 102.008 385.084 101.639 385.91 101.41C386.704 101.172 387.536 101.091 388.36 101.17C388.85 101.23 389.07 101.38 389 101.46Z" fill="#263238"/>
<path d="M370.82 107.61C370.845 108.019 370.708 108.421 370.438 108.73C370.169 109.039 369.789 109.229 369.38 109.26C369.181 109.285 368.979 109.27 368.785 109.216C368.592 109.162 368.411 109.07 368.254 108.945C368.096 108.82 367.965 108.665 367.869 108.489C367.772 108.313 367.711 108.12 367.69 107.92C367.67 107.511 367.809 107.11 368.077 106.801C368.345 106.492 368.723 106.298 369.13 106.26C369.33 106.235 369.533 106.25 369.727 106.305C369.921 106.36 370.102 106.453 370.26 106.579C370.417 106.704 370.548 106.86 370.644 107.038C370.741 107.215 370.8 107.409 370.82 107.61Z" fill="#263238"/>
<path d="M372.73 104.19C372.51 104.25 371.5 103.49 369.87 103.06C368.24 102.63 366.87 102.76 366.74 102.61C366.61 102.46 366.92 102.4 367.52 102.33C368.374 102.259 369.234 102.34 370.06 102.57C370.862 102.762 371.622 103.101 372.3 103.57C372.73 103.93 372.84 104.17 372.73 104.19Z" fill="#263238"/>
<path d="M379.56 115.19C380.435 114.864 381.35 114.655 382.28 114.57C382.71 114.5 383.12 114.4 383.18 114.1C383.191 113.651 383.069 113.21 382.83 112.83C382.37 111.83 381.9 110.73 381.39 109.6C379.39 105 377.94 101.21 378.12 101.13C378.3 101.05 380.07 104.71 382.07 109.32L383.45 112.57C383.742 113.078 383.848 113.672 383.75 114.25C383.694 114.406 383.604 114.547 383.487 114.663C383.369 114.779 383.226 114.867 383.07 114.92C382.833 114.996 382.588 115.043 382.34 115.06C381.423 115.224 380.488 115.267 379.56 115.19V115.19Z" fill="#263238"/>
<path d="M374.63 116.59C374.91 116.59 375 118.4 376.63 119.59C378.26 120.78 380.21 120.53 380.23 120.78C380.25 121.03 379.81 121.16 378.99 121.22C377.917 121.285 376.855 120.97 375.99 120.33C375.164 119.712 374.608 118.798 374.44 117.78C374.32 117.05 374.5 116.59 374.63 116.59Z" fill="#263238"/>
<path d="M372.25 95.24C372.11 95.71 370.41 95.57 368.43 95.9C366.45 96.23 364.88 96.85 364.59 96.45C364.47 96.26 364.73 95.81 365.35 95.33C366.185 94.7387 367.148 94.3516 368.16 94.2C369.163 94.0319 370.191 94.1039 371.16 94.41C371.93 94.67 372.31 95 372.25 95.24Z" fill="#263238"/>
<path d="M389 96.8C388.72 97.21 387.44 96.93 385.95 97.05C384.46 97.17 383.22 97.57 382.89 97.2C382.74 97.02 382.89 96.61 383.42 96.2C384.124 95.6812 384.966 95.382 385.84 95.34C386.712 95.264 387.587 95.4521 388.35 95.88C388.92 96.22 389.13 96.6 389 96.8Z" fill="#263238"/>
<path d="M339.14 118C337.76 117.49 338.04 113.2 339.47 111.61C343.19 107.47 348.47 94.61 348.47 94.61C350.58 89.21 349.53 84.75 355.05 79.13C359.05 75.03 364.38 71.87 370.05 71.92C375.72 71.97 381.57 75.61 383.25 81.18L382.2 79.81C382.55 81.81 380.52 83.47 378.57 83.81C376.62 84.15 374.62 83.54 372.64 83.62C368.78 83.77 365.31 86.43 363.33 89.8C361.485 93.2913 360.498 97.1716 360.45 101.12C360.24 105.05 360.45 109 360.17 112.92C359.85 117.13 357.6 118.73 354.67 121.7C351.861 124.552 349.339 127.674 347.14 131.02C346.651 131.671 346.021 132.202 345.297 132.575C344.573 132.947 343.774 133.151 342.96 133.17C341.7 132.98 341.22 131.17 340.96 129.89C340.7 128.61 341.49 127.03 341.41 125.09C340.805 124.821 340.277 124.406 339.872 123.882C339.467 123.359 339.198 122.743 339.09 122.09C338.86 120.69 340.4 118.45 339.14 118Z" fill="#263238"/>
<path d="M356.32 111.93C356.13 111.85 348.65 110.04 349.24 117.56C349.83 125.08 357.24 122.93 357.24 122.71C357.24 122.49 356.32 111.93 356.32 111.93Z" fill="#FFD6BE"/>
<path d="M354.74 120.05C354.74 120.05 354.61 120.15 354.4 120.27C354.091 120.428 353.734 120.464 353.4 120.37C352.58 120.14 351.82 118.93 351.67 117.58C351.602 116.935 351.677 116.283 351.89 115.67C351.943 115.43 352.053 115.206 352.212 115.018C352.37 114.83 352.572 114.683 352.8 114.59C352.947 114.539 353.108 114.541 353.254 114.596C353.4 114.651 353.522 114.755 353.6 114.89C353.71 115.09 353.68 115.24 353.72 115.25C353.76 115.26 353.87 115.12 353.79 114.81C353.73 114.626 353.61 114.468 353.45 114.36C353.23 114.222 352.964 114.175 352.71 114.23C352.407 114.316 352.132 114.477 351.91 114.7C351.687 114.922 351.526 115.197 351.44 115.5C351.173 116.176 351.074 116.907 351.15 117.63C351.32 119.14 352.2 120.5 353.32 120.73C353.527 120.771 353.74 120.766 353.944 120.714C354.148 120.662 354.338 120.565 354.5 120.43C354.74 120.23 354.76 120.06 354.74 120.05Z" fill="#FFB294"/>
<path d="M411.78 209.86L397.23 209.67C396.739 209.664 396.256 209.789 395.83 210.034C395.404 210.278 395.052 210.633 394.81 211.06L384.81 232.62L385.18 234.08H402.11L412 211.84L411.78 209.86Z" fill="#263238"/>
<path d="M411.65 212.72L411.12 213.93L408.17 219.93C408.17 219.93 400.53 219.24 399.34 219.08C398.15 218.92 397.49 220.2 397.41 220.96C397.44 221.553 397.665 222.119 398.05 222.57C398.05 222.57 393.33 221.08 391.73 219.96C390.13 218.84 389.33 219.55 389.33 219.55C389.095 219.328 388.814 219.161 388.507 219.06C388.2 218.959 387.875 218.927 387.554 218.966C387.233 219.006 386.925 219.115 386.651 219.287C386.378 219.458 386.145 219.688 385.97 219.96C386.532 221.914 387.31 223.799 388.29 225.58C388.93 226.58 392.45 229.97 392.69 230.37C392.93 230.77 395.69 231.49 398.77 233.2C399.617 233.686 400.595 233.894 401.566 233.793C402.537 233.693 403.451 233.289 404.18 232.64H404.62C405.34 232.56 407.26 230.72 407.74 230.77C408.22 230.82 408.62 230.72 409.58 229.65C411.363 227.199 412.784 224.505 413.8 221.65C414.36 219.75 414.03 219.26 413.87 219.14C414.764 219.563 415.719 219.843 416.7 219.97C418.7 220.29 419.7 218.85 419.9 216.13C420.1 213.41 413.89 213.44 411.65 212.72Z" fill="#FFD6BE"/>
<path d="M410.62 225.15C410.456 225.214 410.285 225.257 410.11 225.28C409.79 225.34 409.3 225.4 408.71 225.45C405.582 225.64 402.463 224.947 399.71 223.45C399.293 223.227 398.889 222.98 398.5 222.71C398.352 222.619 398.214 222.512 398.09 222.39C398.09 222.39 398.73 222.76 399.79 223.3C401.175 223.988 402.639 224.501 404.15 224.83C405.661 225.151 407.206 225.288 408.75 225.24C409.88 225.23 410.61 225.11 410.62 225.15Z" fill="#FFB294"/>
<path d="M410.76 219.7C409.624 220.192 408.346 220.249 407.17 219.86C407.17 219.79 407.98 219.86 408.97 219.86C409.96 219.86 410.74 219.63 410.76 219.7Z" fill="#FFB294"/>
<path d="M414.38 219.44C414.38 219.51 413.27 219.05 411.88 218.67C410.49 218.29 409.33 218.11 409.34 218.04C410.226 218.027 411.107 218.159 411.95 218.43C412.81 218.631 413.631 218.972 414.38 219.44V219.44Z" fill="#FFB294"/>
<path d="M413.68 214.3C413.75 214.3 413.47 215.16 413.46 216.22C413.435 216.665 413.482 217.111 413.6 217.54C413.663 217.709 413.77 217.857 413.91 217.97C413.91 217.97 413.84 217.97 413.74 217.97C413.607 217.896 413.501 217.78 413.44 217.64C413.263 217.196 413.187 216.717 413.22 216.24C413.179 215.562 413.339 214.887 413.68 214.3Z" fill="#FFB294"/>
<path d="M406.33 229.79C406.254 229.801 406.176 229.801 406.1 229.79H405.42C404.83 229.79 403.98 229.71 402.93 229.59C401.698 229.456 400.482 229.202 399.3 228.83C398.608 228.597 397.939 228.303 397.3 227.95C396.63 227.59 395.97 227.16 395.3 226.73C392.3 224.79 389.55 223.04 387.8 221.89V221.84C387.844 221.412 387.998 221.004 388.247 220.653C388.496 220.303 388.831 220.022 389.22 219.84C389.33 219.84 389.39 219.77 389.39 219.78C389.192 219.904 389.001 220.041 388.82 220.19C388.329 220.625 388.018 221.228 387.95 221.88V221.8C389.72 222.9 392.45 224.62 395.49 226.57C396.17 227 396.82 227.42 397.49 227.78C398.127 228.133 398.797 228.425 399.49 228.65C400.651 229.033 401.847 229.305 403.06 229.46C404.06 229.6 404.95 229.67 405.54 229.73L406.21 229.8L406.33 229.79Z" fill="#FFB294"/>
<path d="M403.76 232.39C403.518 232.382 403.278 232.356 403.04 232.31C402.58 232.24 401.92 232.13 401.11 231.95C398.998 231.496 396.93 230.857 394.93 230.04C393.823 229.578 392.789 228.958 391.86 228.2C391.108 227.594 390.409 226.925 389.77 226.2C389.22 225.58 388.77 225.05 388.52 224.69C388.359 224.513 388.218 224.318 388.1 224.11C388.28 224.267 388.444 224.441 388.59 224.63C388.9 224.97 389.34 225.48 389.9 226.08C390.55 226.797 391.252 227.466 392 228.08C392.915 228.809 393.924 229.411 395 229.87C396.986 230.693 399.032 231.362 401.12 231.87C401.92 232.07 402.58 232.21 403.03 232.31C403.275 232.318 403.519 232.344 403.76 232.39V232.39Z" fill="#FFB294"/>
<path d="M332.53 166.87C331.934 165.427 331.42 163.951 330.99 162.45C330.483 160.975 330.059 159.473 329.72 157.95C330.321 159.391 330.835 160.867 331.26 162.37C331.769 163.844 332.193 165.347 332.53 166.87V166.87Z" fill="#263238"/>
<path d="M413.08 153.66C413.074 154.1 413.027 154.539 412.94 154.97C412.82 155.88 412.68 156.97 412.52 158.12C412.36 159.27 412.26 160.36 412.16 161.27C412.139 161.712 412.072 162.151 411.96 162.58C411.916 162.141 411.916 161.699 411.96 161.26C411.96 160.44 412.09 159.32 412.24 158.08C412.39 156.84 412.59 155.74 412.75 154.94C412.807 154.501 412.918 154.071 413.08 153.66V153.66Z" fill="#263238"/>
<path d="M387.66 226.81C387.33 227.139 386.964 227.431 386.57 227.68C385.85 228.22 384.79 228.96 383.45 229.83C379.954 232.097 376.327 234.157 372.59 236C368.854 237.854 365.01 239.483 361.08 240.88C359.57 241.42 358.34 241.82 357.48 242.06C357.045 242.225 356.592 242.339 356.13 242.4C356.544 242.184 356.976 242.003 357.42 241.86L360.95 240.52C363.95 239.37 367.95 237.67 372.35 235.52C376.75 233.37 380.53 231.15 383.24 229.52L386.45 227.52C386.829 227.244 387.234 227.006 387.66 226.81Z" fill="#263238"/>
<g opacity="0.3">
<path d="M332.41 231.61C329.783 230.097 327 228.874 324.11 227.96C321.196 227.056 318.066 227.133 315.2 228.18C314.89 228.31 314.54 228.51 314.52 228.85C314.5 229.19 315.08 229.54 315.52 229.61C321.08 230.49 326.95 230.9 332.52 231.72" fill="black"/>
</g>
<g opacity="0.3">
<path d="M334.58 177.66C332.675 187.441 333.295 197.545 336.38 207.02L334.58 177.66Z" fill="black"/>
</g>
<path d="M363.1 279.6C363.1 279.6 357.4 274.97 355.75 272.87C354.1 270.77 353.02 269.55 353.02 269.55C353.02 269.55 346.19 267.55 343.68 264.62C341.17 261.69 337.05 257.57 337.05 257.57L329 266.05C329 266.05 333.67 273.61 334.05 276.1C334.43 278.59 337.28 285.47 337.28 285.47L352.81 276.18C352.81 276.18 356.11 280.81 358.23 281.32C359.93 281.73 363 283 363.1 279.6Z" fill="#FFD6BE"/>
<path d="M329.66 154.39C329.66 154.39 324.06 155.81 318.52 176.67C313.52 195.51 306.7 231.87 306.93 235.52C307.16 239.17 328.8 272 328.8 272L333.47 273.66L343.47 265.3C343.47 265.3 346.75 259.87 345.81 258.54C344.87 257.21 340.71 254.43 340.71 254.43L332.49 231.73L337.05 201.64L329.66 154.39Z" fill="#5865F2"/>
<path d="M324.06 230.3C324.262 230.271 324.468 230.271 324.67 230.3L326.38 230.52L332.57 231.47H332.69L332.74 231.59L337.45 244.42L340.98 254.27L340.91 254.17C341.59 254.74 342.25 255.23 342.85 255.82C343.406 256.376 343.86 257.026 344.19 257.74C344.724 258.906 344.918 260.199 344.75 261.47C344.616 262.268 344.377 263.044 344.04 263.78C343.955 264.055 343.834 264.317 343.68 264.56C343.728 264.277 343.801 263.999 343.9 263.73C344.17 262.989 344.361 262.221 344.47 261.44C344.585 260.227 344.363 259.006 343.83 257.91C343.508 257.246 343.071 256.643 342.54 256.13C341.99 255.6 341.28 255.13 340.61 254.54H340.56V254.48L336.97 244.64C335.23 239.79 333.63 235.32 332.37 231.77L332.53 231.91L326.37 230.78L324.68 230.44C324.469 230.417 324.261 230.37 324.06 230.3V230.3Z" fill="#263238"/>
<path d="M334.73 177C334.88 177 335.82 192.34 336.84 211.27C337.86 230.2 338.56 245.56 338.41 245.57C338.26 245.58 337.31 230.24 336.3 211.3C335.29 192.36 334.58 177 334.73 177Z" fill="#263238"/>
<path d="M351.17 90C351.264 89.8964 351.368 89.8026 351.48 89.72L352.38 88.95C353.459 87.9854 354.462 86.9389 355.38 85.82C356.58 84.42 357.75 82.55 359.3 80.63C360.968 78.5125 363.18 76.888 365.7 75.93C367.989 75.0593 370.461 74.786 372.884 75.1359C375.307 75.4858 377.602 76.4474 379.55 77.93C380.232 78.4579 380.774 79.1445 381.13 79.93C381.38 80.5266 381.457 81.1818 381.35 81.82C381.281 82.22 381.116 82.5973 380.87 82.92C380.786 83.0321 380.685 83.13 380.57 83.21C380.922 82.814 381.152 82.3241 381.23 81.8C381.311 81.1875 381.221 80.5645 380.97 80C380.603 79.2662 380.069 78.629 379.41 78.14C377.477 76.7225 375.221 75.81 372.846 75.4852C370.471 75.1604 368.053 75.4336 365.81 76.28C363.339 77.2217 361.167 78.8105 359.52 80.88C357.98 82.76 356.78 84.62 355.52 86.02C354.588 87.0993 353.564 88.0963 352.46 89C352.06 89.33 351.74 89.57 351.51 89.73C351.405 89.8302 351.291 89.9205 351.17 90V90Z" fill="#455A64"/>
<path d="M348.58 95.94C349.449 96.2141 350.334 96.4346 351.23 96.6C353.41 96.9425 355.643 96.6302 357.646 95.7028C359.649 94.7753 361.331 93.2743 362.48 91.39C362.93 90.5936 363.334 89.7723 363.69 88.93C363.653 89.1794 363.589 89.4241 363.5 89.66C363.287 90.3019 363.006 90.9188 362.66 91.5C361.536 93.4667 359.831 95.0383 357.78 96C355.723 96.9423 353.428 97.2353 351.2 96.84C350.532 96.7235 349.878 96.5358 349.25 96.28C349.014 96.1942 348.789 96.08 348.58 95.94V95.94Z" fill="#455A64"/>
<path d="M336.73 93.51C336.797 93.3287 336.888 93.1572 337 93C337.249 92.5153 337.57 92.0704 337.95 91.68C338.563 91.0066 339.313 90.4726 340.149 90.114C340.986 89.7555 341.89 89.5807 342.8 89.6016C343.71 89.6224 344.605 89.8384 345.425 90.2349C346.244 90.6315 346.969 91.1993 347.55 91.9C347.913 92.3082 348.21 92.7704 348.43 93.27C348.53 93.442 348.595 93.6324 348.62 93.83C348.26 93.1736 347.827 92.5598 347.33 92C346.752 91.3478 346.046 90.8221 345.255 90.4555C344.465 90.089 343.607 89.8897 342.736 89.8699C341.865 89.8502 340.999 90.0106 340.193 90.341C339.386 90.6714 338.657 91.1647 338.05 91.79C337.555 92.3189 337.113 92.8949 336.73 93.51Z" fill="#455A64"/>
<path d="M351.28 135.7C351.146 135.611 351.022 135.507 350.91 135.39C350.557 135.078 350.223 134.744 349.91 134.39C348.764 133.115 347.826 131.667 347.13 130.1C346.082 127.773 345.563 125.242 345.61 122.69C345.733 119.559 346.641 116.509 348.25 113.82C349.838 111.157 351.652 108.634 353.67 106.28C355.48 104.07 357.09 102.08 358.3 100.28C359.272 98.889 360.135 97.4246 360.88 95.9C361.09 95.39 361.27 94.97 361.42 94.62C361.48 94.4688 361.551 94.3218 361.63 94.18C361.597 94.3383 361.547 94.4925 361.48 94.64C361.34 95 361.18 95.43 360.99 95.95C360.281 97.5051 359.442 98.9971 358.48 100.41C357.28 102.21 355.69 104.23 353.9 106.41C351.901 108.761 350.105 111.276 348.53 113.93C346.941 116.572 346.037 119.57 345.9 122.65C345.839 125.162 346.327 127.657 347.33 129.96C347.999 131.52 348.899 132.969 350 134.26C350.79 135.25 351.31 135.67 351.28 135.7Z" fill="#455A64"/>
<path d="M375.69 156C375.402 156.105 375.097 156.159 374.79 156.16C373.971 156.218 373.149 156.218 372.33 156.16C369.601 155.988 366.937 155.256 364.503 154.011C362.068 152.765 359.916 151.032 358.18 148.92C357.654 148.292 357.179 147.623 356.76 146.92C356.579 146.676 356.444 146.402 356.36 146.11C356.43 146.06 357.09 147.17 358.46 148.7C362.031 152.737 366.996 155.277 372.36 155.81C374.4 156 375.68 155.89 375.69 156Z" fill="#263238"/>
<path d="M387.23 142.68C387.554 143.334 387.735 144.05 387.76 144.78C387.942 146.54 387.67 148.317 386.97 149.941C386.269 151.566 385.164 152.984 383.76 154.06C383.207 154.527 382.558 154.868 381.86 155.06C381.86 154.98 382.55 154.59 383.53 153.74C384.81 152.641 385.834 151.276 386.53 149.74C387.198 148.185 387.509 146.501 387.44 144.81C387.35 143.5 387.14 142.71 387.23 142.68Z" fill="#263238"/>
</svg>
