<svg width="428" height="420" viewBox="0 0 428 420" fill="none" xmlns="http://www.w3.org/2000/svg">
<path d="M427.89 282.2H264V187.36H427.89V282.2ZM265 281.2H426.89V188.36H265V281.2Z" fill="#E0E0E0"/>
<path d="M394.08 237.93H285.95V241.1H394.08V237.93Z" fill="#F0F0F0"/>
<path d="M401.53 249.75H285.95V253.21H401.53V249.75Z" fill="#F0F0F0"/>
<path d="M401.53 261.71H285.95V265.17H401.53V261.71Z" fill="#F0F0F0"/>
<path d="M323.74 220.76H285.95V228.99H323.74V220.76Z" fill="#F0F0F0"/>
<path d="M427.39 187.86H264.53V202.96H427.39V187.86Z" fill="#E0E0E0"/>
<path d="M414.86 200.7C414.65 200.5 416.75 197.97 419.54 195.05C422.33 192.13 424.78 189.92 424.98 190.11C425.18 190.3 423.09 192.84 420.3 195.77C417.51 198.7 415.06 200.9 414.86 200.7Z" fill="white"/>
<path d="M425 200.7C424.8 200.9 422.36 198.7 419.56 195.77C416.76 192.84 414.67 190.31 414.88 190.11C415.09 189.91 417.52 192.11 420.32 195.05C423.12 197.99 425.19 200.5 425 200.7Z" fill="white"/>
<path d="M226.22 0.0499878H63.3604V93.9H226.22V0.0499878Z" fill="#E6E6E6"/>
<path d="M192.92 50.13H84.79V53.3H192.92V50.13Z" fill="#F0F0F0"/>
<path d="M200.37 61.95H84.79V65.41H200.37V61.95Z" fill="#F0F0F0"/>
<path d="M200.37 73.91H84.79V77.37H200.37V73.91Z" fill="#F0F0F0"/>
<path d="M122.58 32.96H84.79V41.19H122.58V32.96Z" fill="#F0F0F0"/>
<path d="M226.22 0.0499878H63.3604V15.15H226.22V0.0499878Z" fill="#E0E0E0"/>
<path d="M213.14 12.82C212.93 12.63 215.03 10.09 217.82 7.16999C220.61 4.24999 223.06 2.03999 223.26 2.23999C223.46 2.43999 221.37 4.96999 218.58 7.88999C215.79 10.81 213.34 13 213.14 12.82Z" fill="white"/>
<path d="M223.26 12.82C223.06 13.02 220.62 10.82 217.82 7.88998C215.02 4.95998 212.93 2.43998 213.14 2.23998C213.35 2.03998 215.78 4.23998 218.58 7.16998C221.38 10.1 223.47 12.63 223.26 12.82Z" fill="white"/>
<path d="M164.54 174.39H0.680176V79.54H164.54V174.39ZM1.68018 173.39H163.54V80.54H1.68018V173.39Z" fill="#E0E0E0"/>
<path d="M130.74 130.12H22.6104V133.29H130.74V130.12Z" fill="#F0F0F0"/>
<path d="M138.19 141.94H22.6104V145.4H138.19V141.94Z" fill="#F0F0F0"/>
<path d="M138.19 153.9H22.6104V157.36H138.19V153.9Z" fill="#F0F0F0"/>
<path d="M60.4004 112.95H22.6104V121.18H60.4004V112.95Z" fill="#F0F0F0"/>
<path d="M164.04 80.04H1.18018V95.14H164.04V80.04Z" fill="#E0E0E0"/>
<path d="M353.65 196.12H161.35V368.28H353.65V196.12Z" fill="#E6E6E6"/>
<path d="M171.02 141.89H20.3804V298.4H171.02V141.89Z" fill="#F0F0F0"/>
<path d="M171.02 141.89H20.3804V158.94H171.02V141.89Z" fill="#E0E0E0"/>
<path d="M32.8203 150.24C32.7929 150.858 32.5845 151.455 32.221 151.956C31.8576 152.457 31.355 152.84 30.7757 153.058C30.1965 153.276 29.5659 153.319 28.9625 153.181C28.359 153.044 27.8091 152.733 27.3811 152.286C26.953 151.839 26.6657 151.276 26.5547 150.667C26.4437 150.058 26.5139 149.43 26.7566 148.861C26.9994 148.291 27.4039 147.806 27.9201 147.464C28.4363 147.123 29.0414 146.941 29.6603 146.94C30.5162 146.961 31.3289 147.32 31.921 147.938C32.5131 148.557 32.8364 149.384 32.8203 150.24V150.24Z" fill="white"/>
<path d="M45.6503 150.24C45.6248 150.861 45.4172 151.461 45.0533 151.965C44.6894 152.469 44.1853 152.855 43.6037 153.075C43.0221 153.295 42.3887 153.339 41.7824 153.202C41.176 153.064 40.6234 152.751 40.1934 152.302C39.7634 151.853 39.4749 151.288 39.3639 150.676C39.2529 150.064 39.3242 149.433 39.569 148.862C39.8139 148.29 40.2213 147.803 40.7407 147.462C41.2601 147.12 41.8686 146.939 42.4903 146.94C43.3462 146.961 44.1589 147.32 44.751 147.938C45.3431 148.556 45.6664 149.384 45.6503 150.24V150.24Z" fill="white"/>
<path d="M58.4804 150.24C58.4549 150.861 58.2473 151.461 57.8834 151.965C57.5195 152.469 57.0154 152.855 56.4338 153.075C55.8522 153.295 55.2188 153.339 54.6124 153.202C54.0061 153.064 53.4535 152.751 53.0235 152.302C52.5935 151.853 52.305 151.288 52.194 150.676C52.083 150.064 52.1543 149.433 52.3991 148.862C52.6439 148.29 53.0514 147.803 53.5708 147.462C54.0902 147.12 54.6987 146.939 55.3204 146.94C56.1762 146.961 56.989 147.32 57.5811 147.938C58.1732 148.556 58.4965 149.384 58.4804 150.24V150.24Z" fill="white"/>
<path d="M406.38 34.28H214.08V225.94H406.38V34.28Z" fill="#F0F0F0"/>
<path d="M406.38 34.28H214.08V56.73H406.38V34.28Z" fill="#E0E0E0"/>
<path d="M230.46 45.28C230.425 46.0961 230.151 46.884 229.672 47.5456C229.192 48.2073 228.53 48.7137 227.765 49.0019C227.001 49.2901 226.169 49.3474 225.372 49.1667C224.575 48.9861 223.849 48.5754 223.284 47.9857C222.718 47.396 222.339 46.6532 222.192 45.8496C222.045 45.046 222.138 44.2169 222.458 43.4654C222.778 42.7138 223.312 42.0729 223.993 41.6222C224.675 41.1714 225.473 40.9308 226.29 40.93C227.419 40.9562 228.492 41.4287 229.273 42.2439C230.055 43.0592 230.482 44.1509 230.46 45.28V45.28Z" fill="white"/>
<path d="M246.13 42.34C246.685 42.942 247.049 43.6939 247.18 44.5019C247.31 45.3099 247.199 46.1383 246.862 46.8839C246.524 47.6295 245.975 48.2594 245.282 48.695C244.589 49.1306 243.783 49.3527 242.965 49.3336C242.147 49.3145 241.353 49.0551 240.681 48.5876C240.009 48.1202 239.49 47.4654 239.187 46.7049C238.885 45.9443 238.813 45.1116 238.981 44.3106C239.149 43.5095 239.548 42.7755 240.13 42.2C240.945 41.4244 242.034 41.0037 243.159 41.0299C244.284 41.0561 245.352 41.5273 246.13 42.34V42.34Z" fill="white"/>
<path d="M264.24 45.28C264.205 46.0961 263.931 46.884 263.452 47.5456C262.973 48.2073 262.31 48.7137 261.545 49.0019C260.781 49.2901 259.949 49.3474 259.152 49.1667C258.355 48.9861 257.629 48.5754 257.064 47.9857C256.499 47.396 256.119 46.6532 255.972 45.8496C255.825 45.046 255.918 44.2169 256.238 43.4654C256.558 42.7138 257.092 42.0729 257.773 41.6222C258.455 41.1714 259.254 40.9308 260.07 40.93C261.199 40.9562 262.272 41.4287 263.054 42.2439C263.835 43.0592 264.262 44.1509 264.24 45.28V45.28Z" fill="white"/>
<path d="M332.54 25.68L327.39 27.52L325.18 20.79C321.12 8.38001 308.18 1.79001 296.29 5.98001C284.4 10.17 278.07 23.78 282.13 36.19L284.34 42.92L279.17 44.77C277.198 45.5347 275.598 47.0296 274.7 48.9441C273.802 50.8587 273.677 53.0455 274.35 55.05L288.68 98.84C288.977 99.8323 289.471 100.755 290.132 101.552C290.793 102.35 291.608 103.007 292.527 103.483C293.447 103.96 294.453 104.247 295.486 104.327C296.519 104.407 297.558 104.279 298.54 103.95L351.91 84.86C353.907 84.0967 355.531 82.5885 356.439 80.6526C357.347 78.7167 357.47 76.5041 356.78 74.48L342.44 30.69C342.135 29.7005 341.633 28.7825 340.966 27.991C340.298 27.1995 339.478 26.5505 338.554 26.083C337.63 25.6154 336.621 25.3387 335.588 25.2695C334.555 25.2003 333.518 25.3399 332.54 25.68V25.68ZM291.86 32.68C290.765 29.4532 290.962 25.928 292.408 22.8429C293.855 19.7577 296.439 17.3521 299.62 16.13C301.19 15.5926 302.853 15.3772 304.509 15.4964C306.165 15.6156 307.779 16.0672 309.257 16.8241C310.734 17.581 312.044 18.6277 313.108 19.9018C314.172 21.176 314.968 22.6514 315.45 24.24L317.65 30.97L294.06 39.41L291.86 32.68ZM321.86 71.54L325.52 82.72C325.587 82.9442 325.565 83.1856 325.459 83.3942C325.353 83.6028 325.171 83.7624 324.95 83.84L319.82 85.67C319.616 85.7266 319.398 85.702 319.211 85.6013C319.025 85.5007 318.884 85.3318 318.82 85.13L315.13 74C313.095 73.8891 311.143 73.1594 309.534 71.9083C307.926 70.6573 306.738 68.9448 306.13 67C305.26 64.4289 305.419 61.6211 306.573 59.1644C307.726 56.7076 309.786 54.7925 312.32 53.82C313.571 53.3925 314.895 53.2213 316.214 53.3166C317.533 53.4118 318.819 53.7716 319.996 54.3744C321.172 54.9772 322.216 55.8108 323.063 56.8254C323.911 57.84 324.546 59.0149 324.93 60.28C325.573 62.2556 325.626 64.3759 325.083 66.3812C324.539 68.3865 323.423 70.1898 321.87 71.57L321.86 71.54Z" fill="#5865F2"/>
<path d="M327.16 27.4C327.16 27.54 317.61 31.13 305.73 35.4C293.85 39.67 284.16 43.1 284.11 43C284.06 42.9 293.66 39.28 305.55 35C317.44 30.72 327.11 27.27 327.16 27.4Z" fill="#263238"/>
<path d="M338.5 29.24C338.544 29.3268 338.581 29.4171 338.61 29.51C338.69 29.71 338.78 29.97 338.9 30.29C339.16 31.02 339.52 32.03 339.97 33.29L343.81 44.47C345.41 49.21 347.32 54.83 349.44 61.07C350.44 64.2 351.62 67.46 352.72 70.89C353.309 72.6576 353.563 74.5193 353.47 76.38C353.385 77.3477 353.11 78.2891 352.66 79.15C352.179 80.0081 351.538 80.7653 350.77 81.38C349.225 82.5078 347.51 83.3821 345.69 83.97L340.54 85.82L330.79 89.31L314.28 95.19L303.13 99.11L300.13 100.11L299.33 100.37C299.245 100.408 299.153 100.432 299.06 100.44C299.06 100.44 299.14 100.44 299.31 100.32L300.09 100.01L303.09 98.88L314.18 94.8L330.66 88.8L340.39 85.28L345.54 83.42C347.309 82.856 348.974 82.0083 350.47 80.91C351.184 80.3396 351.782 79.6367 352.23 78.84C352.654 78.0438 352.909 77.169 352.98 76.27C353.072 74.4772 352.828 72.683 352.26 70.98C351.18 67.58 350.04 64.29 349.01 61.16C346.93 54.91 345.01 49.27 343.49 44.53C341.97 39.79 340.69 35.98 339.81 33.3C339.39 31.99 339.07 30.97 338.81 30.23L338.57 29.43C338.54 29.3694 338.516 29.3057 338.5 29.24V29.24Z" fill="#263238"/>
<path d="M310.34 15.45C310.34 15.45 309.81 15.19 308.83 14.79C307.433 14.2533 305.955 13.9558 304.46 13.91C302.243 13.834 300.036 14.2506 298 15.13C295.523 16.225 293.405 17.9961 291.89 20.24C290.364 22.4775 289.545 25.1217 289.54 27.83C289.561 30.0497 289.897 32.2552 290.54 34.38C291.06 36.2 291.6 37.65 291.96 38.66C292.172 39.173 292.346 39.7011 292.48 40.24C292.196 39.7603 291.958 39.2547 291.77 38.73C291.36 37.73 290.77 36.31 290.19 34.48C289.478 32.3329 289.09 30.0915 289.04 27.83C289.013 25.0194 289.851 22.2686 291.44 19.95C293.008 17.6241 295.212 15.7982 297.79 14.69C299.89 13.8058 302.165 13.4158 304.44 13.55C305.968 13.6279 307.469 13.9837 308.87 14.6C309.244 14.7728 309.605 14.9733 309.95 15.2C310.092 15.2625 310.223 15.3468 310.34 15.45V15.45Z" fill="#263238"/>
<path d="M310.8 54.58C310.959 54.4833 311.127 54.3997 311.3 54.33C311.8 54.1041 312.319 53.9202 312.85 53.78C313.693 53.5312 314.562 53.3835 315.44 53.34C316.634 53.2759 317.828 53.4562 318.95 53.87C321.51 54.77 323.86 57.38 325.02 60.87C325.576 62.7429 325.576 64.7371 325.02 66.61C324.403 68.6428 323.297 70.4934 321.8 72L321.86 71.73C323.19 75.38 324.64 79.34 326.14 83.47L326.23 83.72L325.98 83.81L323.69 84.57L318.69 86.24L318.44 86.32L318.36 86.07C316.99 81.93 315.49 78.07 314.36 74.28L314.58 74.45C312.625 74.2876 310.761 73.5539 309.22 72.34C307.826 71.2662 306.682 69.9011 305.87 68.34C305.137 66.9556 304.772 65.4061 304.81 63.84C304.856 62.2395 305.256 60.6689 305.98 59.2409C306.705 57.8129 307.736 56.5628 309 55.58C309.52 55.1576 310.104 54.8201 310.73 54.58C310.165 54.9152 309.618 55.279 309.09 55.67C307.701 56.8449 306.637 58.3564 306 60.06C305.453 61.3447 305.197 62.7345 305.25 64.1298C305.304 65.525 305.666 66.8911 306.31 68.13C307.109 69.6318 308.225 70.942 309.58 71.97C311.05 73.1238 312.827 73.8194 314.69 73.97H314.86L314.91 74.12C316.01 77.84 317.52 81.73 318.91 85.89L318.58 85.73L323.58 84.06L325.86 83.29L325.7 83.63C324.21 79.5 322.77 75.53 321.45 71.88V71.73L321.57 71.61C323.024 70.1659 324.108 68.3924 324.73 66.44C325.26 64.6485 325.26 62.7416 324.73 60.95C323.64 57.59 321.39 55.04 318.95 54.14C317.87 53.7235 316.717 53.5297 315.56 53.57C314.696 53.5898 313.837 53.7072 313 53.92C311.51 54.29 310.81 54.63 310.8 54.58Z" fill="#263238"/>
<path d="M279.89 343.32L180 342.86C174.231 342.828 168.711 340.508 164.652 336.41C160.592 332.311 158.326 326.769 158.35 321L159.41 70.59C159.422 67.732 159.997 64.9044 161.102 62.2688C162.207 59.6332 163.821 57.2412 165.851 55.2296C167.881 53.2181 170.288 51.6263 172.933 50.5454C175.579 49.4644 178.412 48.9155 181.27 48.93L281.15 49.39C286.918 49.4191 292.44 51.7366 296.501 55.8334C300.562 59.9302 302.831 65.4714 302.81 71.24L301.75 321.64C301.738 324.499 301.163 327.327 300.058 329.964C298.953 332.601 297.34 334.994 295.31 337.007C293.28 339.021 290.873 340.614 288.228 341.697C285.582 342.78 282.749 343.332 279.89 343.32V343.32Z" fill="#455A64"/>
<path d="M281 58H261.64C261.008 58.0117 260.385 58.1477 259.806 58.4004C259.227 58.653 258.703 59.0172 258.265 59.4722C257.826 59.9272 257.482 60.4642 257.251 61.0523C257.02 61.6405 256.908 62.2683 256.92 62.9V66.41C256.932 67.0412 256.819 67.6686 256.588 68.2561C256.357 68.8437 256.013 69.38 255.574 69.8342C255.136 70.2884 254.612 70.6517 254.033 70.9032C253.454 71.1548 252.831 71.2896 252.2 71.3L214.46 71.13C213.183 71.096 211.972 70.5566 211.093 69.6304C210.213 68.7041 209.737 67.4668 209.77 66.19V62.68C209.802 61.4049 209.328 60.169 208.45 59.2431C207.573 58.3171 206.365 57.7766 205.09 57.74H198.28L181.33 57.66C177.298 57.636 173.421 59.2105 170.548 62.0387C167.675 64.867 166.039 68.7185 166 72.75L165 317.17C164.99 319.17 165.375 321.152 166.132 323.004C166.889 324.855 168.003 326.539 169.411 327.96C170.819 329.381 172.492 330.51 174.337 331.284C176.181 332.058 178.16 332.461 180.16 332.47L279.84 332.93C281.841 332.939 283.825 332.554 285.677 331.797C287.53 331.039 289.215 329.925 290.637 328.516C292.058 327.107 293.188 325.432 293.963 323.587C294.737 321.741 295.141 319.761 295.15 317.76L296.15 73.34C296.174 69.2971 294.591 65.4102 291.75 62.5337C288.909 59.6572 285.043 58.0264 281 58V58Z" fill="white"/>
<path d="M267.5 300.43L193.38 300.11C192.61 300.11 191.99 299.27 192 298.25L192.08 278.86C192.08 277.86 192.71 277 193.48 277L267.6 277.34C268.027 277.414 268.409 277.649 268.666 277.998C268.923 278.346 269.035 278.781 268.98 279.21L268.91 298.58C268.91 299.61 268.27 300.44 267.5 300.43Z" fill="#5865F2"/>
<path d="M207.488 292L206.326 290.333C206.277 290.339 206.204 290.341 206.106 290.341H204.821V292H203.764V286.308H206.106C206.599 286.308 207.028 286.389 207.391 286.552C207.76 286.715 208.041 286.948 208.237 287.251C208.432 287.555 208.529 287.915 208.529 288.333C208.529 288.761 208.424 289.13 208.212 289.439C208.006 289.748 207.708 289.978 207.318 290.13L208.627 292H207.488ZM207.464 288.333C207.464 287.97 207.345 287.69 207.106 287.495C206.868 287.3 206.518 287.203 206.057 287.203H204.821V289.471H206.057C206.518 289.471 206.868 289.374 207.106 289.178C207.345 288.978 207.464 288.696 207.464 288.333ZM213.981 291.114V292H209.712V286.308H213.867V287.194H210.769V288.674H213.517V289.544H210.769V291.114H213.981ZM219.022 289.089H220.022V291.358C219.73 291.591 219.388 291.77 218.998 291.894C218.607 292.019 218.206 292.081 217.794 292.081C217.214 292.081 216.691 291.957 216.225 291.707C215.759 291.452 215.393 291.103 215.127 290.658C214.862 290.214 214.729 289.712 214.729 289.154C214.729 288.596 214.862 288.094 215.127 287.65C215.393 287.205 215.759 286.858 216.225 286.609C216.697 286.354 217.225 286.227 217.811 286.227C218.288 286.227 218.721 286.305 219.112 286.463C219.502 286.62 219.83 286.85 220.096 287.154L219.429 287.804C218.995 287.371 218.472 287.154 217.859 287.154C217.458 287.154 217.1 287.238 216.786 287.406C216.477 287.574 216.233 287.81 216.054 288.113C215.881 288.417 215.794 288.764 215.794 289.154C215.794 289.534 215.881 289.875 216.054 290.179C216.233 290.482 216.477 290.721 216.786 290.894C217.1 291.068 217.456 291.154 217.851 291.154C218.296 291.154 218.686 291.057 219.022 290.862V289.089ZM221.417 286.308H222.474V292H221.417V286.308ZM225.778 292.081C225.339 292.081 224.913 292.019 224.501 291.894C224.094 291.77 223.772 291.604 223.533 291.398L223.899 290.577C224.132 290.761 224.417 290.913 224.753 291.032C225.095 291.146 225.436 291.203 225.778 291.203C226.2 291.203 226.515 291.135 226.721 291C226.932 290.864 227.038 290.685 227.038 290.463C227.038 290.301 226.978 290.168 226.859 290.065C226.745 289.956 226.599 289.872 226.42 289.813C226.241 289.753 225.997 289.685 225.688 289.609C225.255 289.506 224.902 289.403 224.631 289.3C224.366 289.197 224.135 289.038 223.94 288.821C223.75 288.598 223.655 288.3 223.655 287.926C223.655 287.612 223.739 287.327 223.907 287.072C224.081 286.812 224.338 286.606 224.68 286.454C225.027 286.303 225.45 286.227 225.948 286.227C226.295 286.227 226.637 286.27 226.973 286.357C227.309 286.444 227.599 286.568 227.843 286.731L227.51 287.552C227.26 287.406 227 287.295 226.729 287.219C226.458 287.143 226.195 287.105 225.94 287.105C225.523 287.105 225.211 287.175 225.005 287.316C224.805 287.457 224.704 287.644 224.704 287.877C224.704 288.04 224.761 288.173 224.875 288.276C224.994 288.379 225.143 288.46 225.322 288.52C225.501 288.579 225.745 288.647 226.054 288.723C226.477 288.821 226.824 288.924 227.095 289.032C227.366 289.135 227.596 289.295 227.786 289.512C227.981 289.729 228.079 290.021 228.079 290.39C228.079 290.704 227.992 290.989 227.819 291.244C227.651 291.499 227.393 291.702 227.046 291.854C226.699 292.005 226.276 292.081 225.778 292.081ZM230.202 287.203H228.316V286.308H233.146V287.203H231.259V292H230.202V287.203ZM237.663 292L236.5 290.333C236.452 290.339 236.378 290.341 236.281 290.341H234.996V292H233.939V286.308H236.281C236.774 286.308 237.202 286.389 237.566 286.552C237.934 286.715 238.216 286.948 238.411 287.251C238.606 287.555 238.704 287.915 238.704 288.333C238.704 288.761 238.598 289.13 238.387 289.439C238.181 289.748 237.883 289.978 237.492 290.13L238.802 292H237.663ZM237.639 288.333C237.639 287.97 237.52 287.69 237.281 287.495C237.042 287.3 236.693 287.203 236.232 287.203H234.996V289.471H236.232C236.693 289.471 237.042 289.374 237.281 289.178C237.52 288.978 237.639 288.696 237.639 288.333ZM244.156 291.114V292H239.887V286.308H244.042V287.194H240.944V288.674H243.692V289.544H240.944V291.114H244.156ZM244.858 289.317H247.094V290.162H244.858V289.317ZM249.949 292.081C249.51 292.081 249.085 292.019 248.673 291.894C248.266 291.77 247.943 291.604 247.705 291.398L248.071 290.577C248.304 290.761 248.589 290.913 248.925 291.032C249.266 291.146 249.608 291.203 249.949 291.203C250.372 291.203 250.686 291.135 250.892 291C251.104 290.864 251.21 290.685 251.21 290.463C251.21 290.301 251.15 290.168 251.031 290.065C250.917 289.956 250.77 289.872 250.592 289.813C250.413 289.753 250.169 289.685 249.86 289.609C249.426 289.506 249.074 289.403 248.803 289.3C248.537 289.197 248.307 289.038 248.111 288.821C247.922 288.598 247.827 288.3 247.827 287.926C247.827 287.612 247.911 287.327 248.079 287.072C248.252 286.812 248.51 286.606 248.851 286.454C249.198 286.303 249.621 286.227 250.12 286.227C250.467 286.227 250.808 286.27 251.144 286.357C251.481 286.444 251.771 286.568 252.015 286.731L251.681 287.552C251.432 287.406 251.172 287.295 250.901 287.219C250.629 287.143 250.367 287.105 250.112 287.105C249.694 287.105 249.383 287.175 249.177 287.316C248.976 287.457 248.876 287.644 248.876 287.877C248.876 288.04 248.933 288.173 249.047 288.276C249.166 288.379 249.315 288.46 249.494 288.52C249.673 288.579 249.917 288.647 250.226 288.723C250.648 288.821 250.995 288.924 251.266 289.032C251.537 289.135 251.768 289.295 251.958 289.512C252.153 289.729 252.25 290.021 252.25 290.39C252.25 290.704 252.164 290.989 251.99 291.244C251.822 291.499 251.565 291.702 251.218 291.854C250.871 292.005 250.448 292.081 249.949 292.081ZM257.567 291.114V292H253.298V286.308H257.454V287.194H254.356V288.674H257.104V289.544H254.356V291.114H257.567Z" fill="#E8E8E3"/>
<path d="M208.254 129.85L182.534 129.734L182.513 134.453L208.232 134.57L208.254 129.85Z" fill="#5865F2"/>
<path opacity="0.1" d="M208.254 129.85L182.534 129.734L182.513 134.453L208.232 134.57L208.254 129.85Z" fill="black"/>
<path d="M283.65 158.83C283.852 158.81 284.05 158.762 284.24 158.69C284.517 158.582 284.757 158.398 284.934 158.159C285.111 157.92 285.217 157.636 285.24 157.34C285.24 155.75 285.24 153.43 285.24 150.45C285.24 148.96 285.24 147.29 285.24 145.45C285.24 145 285.24 144.53 285.24 144.06C285.305 143.604 285.206 143.14 284.96 142.75C284.822 142.563 284.643 142.411 284.437 142.305C284.23 142.199 284.002 142.143 283.77 142.14H282.21H267.76L184.12 141.83C183.906 141.826 183.694 141.874 183.502 141.97C183.311 142.066 183.145 142.207 183.02 142.38C182.778 142.771 182.686 143.236 182.76 143.69C182.76 144.69 182.76 145.69 182.76 146.69C182.76 148.69 182.76 150.69 182.76 152.69C182.76 153.69 182.76 154.69 182.76 155.69C182.718 156.156 182.718 156.624 182.76 157.09C182.812 157.29 182.91 157.475 183.045 157.631C183.18 157.787 183.35 157.91 183.54 157.99C183.737 158.068 183.948 158.106 184.16 158.1H189.25L211.46 158.22L249.06 158.45L274.41 158.65L281.3 158.73H283.09C283.5 158.73 283.7 158.73 283.7 158.73H283.09H281.3H274.41H249.06L211.46 158.61L189.25 158.52H184.16C183.88 158.531 183.6 158.484 183.34 158.38C183.077 158.268 182.842 158.097 182.655 157.88C182.468 157.663 182.333 157.407 182.26 157.13C182.202 156.868 182.182 156.598 182.2 156.33V155.59C182.2 154.59 182.2 153.59 182.2 152.59C182.2 150.59 182.2 148.59 182.2 146.59C182.2 145.59 182.2 144.59 182.2 143.59C182.181 143.324 182.181 143.056 182.2 142.79C182.237 142.496 182.351 142.217 182.53 141.98C182.702 141.739 182.931 141.542 183.195 141.408C183.46 141.274 183.753 141.206 184.05 141.21L267.69 141.67L282.14 141.77H283.7C283.975 141.77 284.245 141.837 284.489 141.964C284.733 142.091 284.942 142.275 285.1 142.5C285.382 142.935 285.496 143.457 285.42 143.97C285.42 144.44 285.42 144.91 285.42 145.36C285.42 147.18 285.42 148.85 285.42 150.36C285.42 153.36 285.35 155.66 285.33 157.26C285.305 157.568 285.194 157.862 285.008 158.108C284.822 158.354 284.569 158.542 284.28 158.65C284.091 158.767 283.872 158.83 283.65 158.83V158.83Z" fill="#E0E0E0"/>
<path d="M237.3 146.85H190.26V151.26H237.3V146.85Z" fill="#5865F2"/>
<path opacity="0.2" d="M237.3 146.85H190.26V151.26H237.3V146.85Z" fill="white"/>
<path d="M208.079 172.909L182.359 172.792L182.337 177.512L208.057 177.629L208.079 172.909Z" fill="#5865F2"/>
<path opacity="0.1" d="M208.079 172.909L182.359 172.792L182.337 177.512L208.057 177.629L208.079 172.909Z" fill="black"/>
<path d="M283 201.89C283.202 201.865 283.402 201.828 283.6 201.78C283.879 201.691 284.136 201.543 284.354 201.347C284.571 201.15 284.744 200.909 284.86 200.64C285.017 200.236 285.079 199.802 285.04 199.37C285.04 198.89 285.04 198.37 285.04 197.79C285.04 196.63 285.04 195.31 285.04 193.79V187.44C285.088 186.98 284.986 186.517 284.75 186.12C284.503 185.712 284.115 185.41 283.66 185.27C283.162 185.181 282.655 185.154 282.15 185.19H267.76L184.41 184.88C183.962 184.881 183.529 185.045 183.192 185.341C182.856 185.637 182.638 186.045 182.58 186.49C182.58 187.44 182.58 188.49 182.58 189.49C182.58 191.49 182.58 193.49 182.58 195.49C182.58 196.49 182.58 197.49 182.58 198.49C182.543 198.957 182.563 199.428 182.64 199.89C182.765 200.295 183.022 200.648 183.37 200.89C183.739 201.124 184.173 201.236 184.61 201.21H186H188.89L211.02 201.32L248.49 201.55L273.75 201.75L280.62 201.83H282.41H283.01H282.41H280.62H273.75H248.49L211 201.79L188.87 201.71H184.52C183.979 201.742 183.442 201.598 182.99 201.3C182.535 200.985 182.203 200.522 182.05 199.99C181.96 199.482 181.933 198.965 181.97 198.45C181.97 197.45 181.97 196.45 181.97 195.45C181.97 193.45 181.97 191.45 181.97 189.45C181.97 188.45 181.97 187.45 181.97 186.45C182.043 185.878 182.322 185.353 182.754 184.972C183.187 184.591 183.743 184.38 184.32 184.38L267.67 184.84L282.06 184.95C282.596 184.917 283.134 184.954 283.66 185.06C284.179 185.23 284.618 185.586 284.89 186.06C285.149 186.5 285.261 187.012 285.21 187.52C285.21 187.99 285.21 188.45 285.21 188.91C285.21 190.72 285.21 192.38 285.21 193.91C285.21 195.44 285.21 196.73 285.21 197.91C285.21 198.48 285.21 199.01 285.21 199.5C285.246 199.947 285.174 200.397 285 200.81C284.87 201.086 284.682 201.331 284.449 201.527C284.216 201.724 283.944 201.868 283.65 201.95C283.431 201.968 283.211 201.948 283 201.89V201.89Z" fill="#E0E0E0"/>
<path d="M207.885 217.838L182.165 217.721L182.144 222.441L207.863 222.558L207.885 217.838Z" fill="#5865F2"/>
<path opacity="0.1" d="M207.885 217.838L182.165 217.721L182.144 222.441L207.863 222.558L207.885 217.838Z" fill="black"/>
<path d="M282.8 246.8C283.002 246.776 283.203 246.739 283.4 246.69C283.678 246.602 283.934 246.455 284.151 246.26C284.369 246.066 284.542 245.827 284.66 245.56C284.817 245.156 284.878 244.722 284.84 244.29C284.84 243.8 284.84 243.29 284.84 242.7C284.84 241.55 284.84 240.22 284.84 238.7V232.35C284.888 231.89 284.786 231.427 284.55 231.03C284.297 230.63 283.911 230.332 283.46 230.19C282.962 230.098 282.455 230.067 281.95 230.1H267.56L184.21 229.79C183.762 229.791 183.329 229.955 182.992 230.251C182.656 230.547 182.438 230.955 182.38 231.4C182.38 232.4 182.38 233.4 182.38 234.4C182.38 236.4 182.38 238.4 182.38 240.4C182.38 241.4 182.38 242.4 182.38 243.4C182.343 243.864 182.363 244.331 182.44 244.79C182.56 245.198 182.818 245.552 183.17 245.79C183.537 246.03 183.973 246.142 184.41 246.11H188.76L210.89 246.23L248.36 246.46L273.62 246.66L280.49 246.74H282.28C282.68 246.74 282.88 246.74 282.88 246.74C282.88 246.74 282.68 246.74 282.28 246.74H280.49H273.62H248.36L210.89 246.63L188.76 246.54H184.41C183.869 246.577 183.331 246.432 182.88 246.13C182.425 245.815 182.093 245.352 181.94 244.82C181.85 244.312 181.824 243.795 181.86 243.28C181.86 242.28 181.86 241.28 181.86 240.28C181.86 238.28 181.86 236.28 181.86 234.28C181.86 233.28 181.86 232.28 181.86 231.23C181.931 230.659 182.208 230.134 182.638 229.752C183.069 229.371 183.625 229.161 184.2 229.16L267.55 229.62L281.94 229.73C282.476 229.697 283.014 229.734 283.54 229.84C284.06 230.01 284.498 230.366 284.77 230.84C285.029 231.28 285.141 231.792 285.09 232.3C285.09 232.77 285.09 233.24 285.09 233.69C285.09 235.5 285.09 237.16 285.09 238.69C285.09 240.22 285.09 241.51 285.09 242.69C285.09 243.26 285.09 243.79 285.09 244.28C285.128 244.727 285.056 245.177 284.88 245.59C284.75 245.866 284.562 246.111 284.329 246.307C284.096 246.504 283.824 246.648 283.53 246.73C283.296 246.81 283.045 246.834 282.8 246.8V246.8Z" fill="#E0E0E0"/>
<path d="M236.295 191.157L189.256 190.943L189.236 195.353L236.275 195.567L236.295 191.157Z" fill="#5865F2"/>
<path opacity="0.2" d="M236.295 191.157L189.256 190.943L189.236 195.353L236.275 195.567L236.295 191.157Z" fill="white"/>
<path d="M193.51 238.64C193.48 239.042 193.334 239.427 193.087 239.746C192.841 240.066 192.507 240.306 192.125 240.437C191.744 240.568 191.332 240.585 190.942 240.484C190.551 240.384 190.199 240.171 189.928 239.872C189.657 239.572 189.481 239.201 189.419 238.802C189.358 238.403 189.415 237.995 189.584 237.629C189.752 237.262 190.025 236.954 190.367 236.74C190.709 236.527 191.107 236.419 191.51 236.43C192.067 236.461 192.59 236.71 192.964 237.124C193.338 237.538 193.535 238.083 193.51 238.64V238.64Z" fill="#5865F2"/>
<path d="M199.88 238.67C199.899 238.952 199.861 239.235 199.766 239.501C199.672 239.768 199.524 240.012 199.331 240.218C199.138 240.425 198.905 240.59 198.646 240.703C198.387 240.815 198.107 240.873 197.825 240.873C197.542 240.873 197.262 240.815 197.003 240.703C196.744 240.59 196.511 240.425 196.318 240.218C196.125 240.012 195.977 239.768 195.883 239.501C195.789 239.235 195.75 238.952 195.77 238.67C195.75 238.388 195.789 238.105 195.883 237.839C195.977 237.572 196.125 237.328 196.318 237.122C196.511 236.915 196.744 236.75 197.003 236.637C197.262 236.525 197.542 236.467 197.825 236.467C198.107 236.467 198.387 236.525 198.646 236.637C198.905 236.75 199.138 236.915 199.331 237.122C199.524 237.328 199.672 237.572 199.766 237.839C199.861 238.105 199.899 238.388 199.88 238.67V238.67Z" fill="#5865F2"/>
<path d="M206.26 238.7C206.23 239.102 206.084 239.487 205.837 239.806C205.591 240.126 205.257 240.366 204.875 240.497C204.494 240.628 204.082 240.645 203.692 240.544C203.301 240.444 202.949 240.231 202.678 239.932C202.407 239.632 202.231 239.261 202.169 238.862C202.108 238.463 202.165 238.055 202.334 237.689C202.502 237.322 202.775 237.014 203.117 236.8C203.459 236.587 203.857 236.479 204.26 236.49C204.816 236.524 205.337 236.774 205.711 237.187C206.085 237.6 206.282 238.143 206.26 238.7Z" fill="#5865F2"/>
<path d="M212.63 238.73C212.6 239.132 212.453 239.517 212.207 239.837C211.961 240.156 211.626 240.396 211.245 240.527C210.864 240.659 210.452 240.675 210.061 240.574C209.671 240.474 209.318 240.261 209.048 239.962C208.777 239.663 208.6 239.291 208.539 238.892C208.478 238.493 208.535 238.085 208.703 237.719C208.872 237.352 209.144 237.044 209.487 236.83C209.829 236.617 210.226 236.509 210.63 236.52C211.186 236.554 211.707 236.804 212.081 237.217C212.454 237.63 212.652 238.173 212.63 238.73Z" fill="#5865F2"/>
<path d="M219 238.75C218.972 239.153 218.827 239.539 218.582 239.86C218.337 240.18 218.003 240.422 217.621 240.555C217.24 240.688 216.828 240.705 216.437 240.606C216.046 240.506 215.692 240.294 215.42 239.995C215.149 239.696 214.971 239.324 214.909 238.925C214.847 238.526 214.904 238.118 215.072 237.751C215.24 237.384 215.513 237.074 215.856 236.861C216.198 236.647 216.596 236.539 217 236.55C217.554 236.584 218.074 236.832 218.447 237.243C218.821 237.654 219.019 238.195 219 238.75Z" fill="#5865F2"/>
<path d="M225.38 238.78C225.353 239.181 225.209 239.565 224.966 239.885C224.723 240.205 224.392 240.447 224.014 240.581C223.635 240.716 223.226 240.736 222.835 240.641C222.445 240.546 222.091 240.338 221.818 240.044C221.544 239.75 221.362 239.383 221.294 238.987C221.226 238.591 221.276 238.184 221.437 237.816C221.597 237.448 221.862 237.135 222.199 236.915C222.535 236.695 222.928 236.579 223.33 236.58C223.893 236.601 224.425 236.844 224.809 237.256C225.194 237.669 225.399 238.217 225.38 238.78V238.78Z" fill="#5865F2"/>
<path d="M231.75 238.81C231.769 239.092 231.731 239.375 231.637 239.641C231.542 239.908 231.394 240.152 231.201 240.358C231.009 240.565 230.775 240.73 230.516 240.843C230.257 240.955 229.977 241.013 229.695 241.013C229.412 241.013 229.133 240.955 228.873 240.843C228.614 240.73 228.381 240.565 228.188 240.358C227.996 240.152 227.847 239.908 227.753 239.641C227.659 239.375 227.62 239.092 227.64 238.81C227.62 238.528 227.659 238.245 227.753 237.979C227.847 237.712 227.996 237.468 228.188 237.262C228.381 237.055 228.614 236.89 228.873 236.777C229.133 236.665 229.412 236.607 229.695 236.607C229.977 236.607 230.257 236.665 230.516 236.777C230.775 236.89 231.009 237.055 231.201 237.262C231.394 237.468 231.542 237.712 231.637 237.979C231.731 238.245 231.769 238.528 231.75 238.81Z" fill="#5865F2"/>
<path d="M238.12 238.84C238.092 239.241 237.948 239.625 237.706 239.945C237.463 240.265 237.132 240.507 236.753 240.641C236.375 240.776 235.965 240.796 235.575 240.701C235.185 240.606 234.831 240.398 234.557 240.104C234.283 239.81 234.101 239.443 234.034 239.047C233.966 238.651 234.016 238.244 234.176 237.876C234.337 237.508 234.602 237.195 234.938 236.975C235.275 236.755 235.668 236.639 236.07 236.64C236.633 236.661 237.165 236.904 237.549 237.316C237.933 237.729 238.139 238.277 238.12 238.84V238.84Z" fill="#5865F2"/>
<path d="M244.49 238.87C244.462 239.273 244.317 239.659 244.072 239.98C243.827 240.301 243.493 240.542 243.111 240.675C242.73 240.808 242.318 240.825 241.927 240.726C241.535 240.626 241.182 240.414 240.91 240.115C240.639 239.816 240.461 239.444 240.399 239.045C240.337 238.646 240.394 238.238 240.562 237.871C240.73 237.504 241.003 237.194 241.345 236.981C241.688 236.767 242.086 236.659 242.49 236.67C243.044 236.704 243.563 236.952 243.937 237.363C244.311 237.774 244.509 238.315 244.49 238.87V238.87Z" fill="#5865F2"/>
<g opacity="0.2">
<path d="M193.51 238.64C193.48 239.042 193.334 239.427 193.087 239.746C192.841 240.066 192.507 240.306 192.125 240.437C191.744 240.568 191.332 240.585 190.942 240.484C190.551 240.384 190.199 240.171 189.928 239.872C189.657 239.572 189.481 239.201 189.419 238.802C189.358 238.403 189.415 237.995 189.584 237.629C189.752 237.262 190.025 236.954 190.367 236.74C190.709 236.527 191.107 236.419 191.51 236.43C192.067 236.461 192.59 236.71 192.964 237.124C193.338 237.538 193.535 238.083 193.51 238.64V238.64Z" fill="white"/>
<path d="M199.88 238.67C199.9 238.952 199.861 239.235 199.767 239.501C199.673 239.768 199.524 240.012 199.332 240.218C199.139 240.425 198.906 240.59 198.646 240.703C198.387 240.815 198.108 240.873 197.825 240.873C197.543 240.873 197.263 240.815 197.004 240.703C196.745 240.59 196.511 240.425 196.319 240.218C196.126 240.012 195.978 239.768 195.883 239.501C195.789 239.235 195.75 238.952 195.77 238.67C195.75 238.388 195.789 238.105 195.883 237.839C195.978 237.572 196.126 237.328 196.319 237.122C196.511 236.915 196.745 236.75 197.004 236.637C197.263 236.525 197.543 236.467 197.825 236.467C198.108 236.467 198.387 236.525 198.646 236.637C198.906 236.75 199.139 236.915 199.332 237.122C199.524 237.328 199.673 237.572 199.767 237.839C199.861 238.105 199.9 238.388 199.88 238.67V238.67Z" fill="white"/>
<path d="M206.26 238.7C206.23 239.102 206.084 239.487 205.837 239.806C205.591 240.126 205.257 240.366 204.875 240.497C204.494 240.628 204.082 240.645 203.692 240.544C203.301 240.444 202.949 240.231 202.678 239.932C202.407 239.632 202.231 239.261 202.169 238.862C202.108 238.463 202.165 238.055 202.334 237.689C202.502 237.322 202.775 237.014 203.117 236.8C203.459 236.587 203.857 236.479 204.26 236.49C204.816 236.524 205.337 236.774 205.711 237.187C206.085 237.6 206.282 238.143 206.26 238.7Z" fill="white"/>
<path d="M212.63 238.73C212.601 239.132 212.454 239.517 212.208 239.837C211.961 240.156 211.627 240.396 211.245 240.527C210.864 240.659 210.452 240.675 210.062 240.574C209.671 240.474 209.319 240.261 209.048 239.962C208.778 239.663 208.601 239.291 208.539 238.892C208.478 238.493 208.535 238.085 208.704 237.719C208.872 237.352 209.145 237.044 209.487 236.83C209.829 236.617 210.227 236.509 210.63 236.52C211.186 236.554 211.707 236.804 212.081 237.217C212.455 237.63 212.652 238.173 212.63 238.73Z" fill="white"/>
<path d="M219 238.75C218.972 239.153 218.827 239.539 218.582 239.86C218.337 240.18 218.003 240.422 217.621 240.555C217.24 240.688 216.828 240.705 216.437 240.606C216.046 240.506 215.692 240.294 215.42 239.995C215.149 239.696 214.971 239.324 214.909 238.925C214.847 238.526 214.904 238.118 215.072 237.751C215.24 237.384 215.513 237.074 215.856 236.861C216.198 236.647 216.596 236.539 217 236.55C217.554 236.584 218.074 236.832 218.447 237.243C218.821 237.654 219.019 238.195 219 238.75Z" fill="white"/>
<path d="M225.38 238.78C225.353 239.181 225.209 239.565 224.966 239.885C224.723 240.205 224.392 240.447 224.014 240.581C223.635 240.716 223.226 240.736 222.835 240.641C222.445 240.546 222.091 240.338 221.818 240.044C221.544 239.75 221.362 239.383 221.294 238.987C221.226 238.591 221.276 238.184 221.437 237.816C221.597 237.448 221.862 237.135 222.199 236.915C222.535 236.695 222.928 236.579 223.33 236.58C223.893 236.601 224.425 236.844 224.809 237.256C225.194 237.669 225.399 238.217 225.38 238.78V238.78Z" fill="white"/>
<path d="M231.75 238.81C231.769 239.092 231.731 239.375 231.637 239.641C231.542 239.908 231.394 240.152 231.201 240.358C231.009 240.565 230.775 240.73 230.516 240.843C230.257 240.955 229.977 241.013 229.695 241.013C229.412 241.013 229.133 240.955 228.873 240.843C228.614 240.73 228.381 240.565 228.188 240.358C227.996 240.152 227.847 239.908 227.753 239.641C227.659 239.375 227.62 239.092 227.64 238.81C227.62 238.528 227.659 238.245 227.753 237.979C227.847 237.712 227.996 237.468 228.188 237.262C228.381 237.055 228.614 236.89 228.873 236.777C229.133 236.665 229.412 236.607 229.695 236.607C229.977 236.607 230.257 236.665 230.516 236.777C230.775 236.89 231.009 237.055 231.201 237.262C231.394 237.468 231.542 237.712 231.637 237.979C231.731 238.245 231.769 238.528 231.75 238.81Z" fill="white"/>
<path d="M238.12 238.84C238.093 239.241 237.949 239.625 237.706 239.945C237.463 240.265 237.132 240.507 236.754 240.641C236.375 240.776 235.966 240.796 235.576 240.701C235.185 240.606 234.832 240.398 234.558 240.104C234.284 239.81 234.102 239.443 234.034 239.047C233.967 238.651 234.016 238.244 234.177 237.876C234.338 237.508 234.602 237.195 234.939 236.975C235.275 236.755 235.668 236.639 236.07 236.64C236.633 236.661 237.165 236.904 237.55 237.316C237.934 237.729 238.139 238.277 238.12 238.84V238.84Z" fill="white"/>
<path d="M244.49 238.87C244.463 239.273 244.317 239.659 244.072 239.98C243.827 240.301 243.493 240.542 243.112 240.675C242.73 240.808 242.318 240.825 241.927 240.726C241.536 240.626 241.182 240.414 240.911 240.115C240.639 239.816 240.461 239.444 240.399 239.045C240.337 238.646 240.394 238.238 240.562 237.871C240.731 237.504 241.003 237.194 241.346 236.981C241.689 236.767 242.087 236.659 242.49 236.67C243.045 236.704 243.564 236.952 243.938 237.363C244.311 237.774 244.509 238.315 244.49 238.87V238.87Z" fill="white"/>
</g>
<path d="M235.44 94.51C236.135 94.2041 236.724 93.7007 237.135 93.0623C237.545 92.424 237.759 91.679 237.75 90.92C237.776 90.4266 237.701 89.9331 237.53 89.4696C237.359 89.006 237.095 88.5822 236.755 88.2238C236.415 87.8654 236.006 87.58 235.552 87.3849C235.098 87.1899 234.609 87.0893 234.115 87.0893C233.621 87.0893 233.132 87.1899 232.678 87.3849C232.224 87.58 231.815 87.8654 231.474 88.2238C231.134 88.5822 230.871 89.006 230.7 89.4696C230.529 89.9331 230.454 90.4266 230.48 90.92C230.465 91.6866 230.677 92.4405 231.09 93.0866C231.503 93.7326 232.098 94.2419 232.8 94.55C227.2 95.39 227.45 101.47 227.45 101.47L240.69 101.53C240.69 101.53 241 95.34 235.44 94.51Z" fill="#5865F2"/>
<path opacity="0.1" d="M235.44 94.51C236.135 94.2041 236.724 93.7007 237.135 93.0623C237.545 92.424 237.759 91.679 237.75 90.92C237.776 90.4266 237.701 89.9331 237.53 89.4696C237.359 89.006 237.095 88.5822 236.755 88.2238C236.415 87.8654 236.006 87.58 235.552 87.3849C235.098 87.1899 234.609 87.0893 234.115 87.0893C233.621 87.0893 233.132 87.1899 232.678 87.3849C232.224 87.58 231.815 87.8654 231.474 88.2238C231.134 88.5822 230.871 89.006 230.7 89.4696C230.529 89.9331 230.454 90.4266 230.48 90.92C230.465 91.6866 230.677 92.4405 231.09 93.0866C231.503 93.7326 232.098 94.2419 232.8 94.55C227.2 95.39 227.45 101.47 227.45 101.47L240.69 101.53C240.69 101.53 241 95.34 235.44 94.51Z" fill="black"/>
<path d="M256.954 105.451L209.765 105.237L209.739 110.877L256.929 111.091L256.954 105.451Z" fill="#5865F2"/>
<path opacity="0.2" d="M256.954 105.451L209.765 105.237L209.739 110.877L256.929 111.091L256.954 105.451Z" fill="white"/>
<path d="M83.4702 134.68H83.0002L81.6402 134.78C80.9042 134.824 80.1724 134.921 79.4502 135.07C78.9825 135.136 78.5185 135.226 78.0602 135.34L76.5102 135.77C73.8721 136.579 71.3829 137.812 69.1402 139.42C66.1771 141.571 63.7029 144.324 61.8802 147.5C60.809 149.331 59.9564 151.281 59.3402 153.31C58.6927 155.516 58.3199 157.793 58.2302 160.09C58.1706 161.297 58.1907 162.506 58.2902 163.71C58.2902 164.32 58.4602 164.93 58.5402 165.55C58.6075 166.175 58.7246 166.794 58.8902 167.4C59.7894 171.413 61.614 175.16 64.2183 178.342C66.8227 181.525 70.1347 184.055 73.8902 185.73C76.6083 186.903 79.5217 187.557 82.4802 187.66C85.536 187.828 88.5947 187.39 91.4802 186.37L92.3602 186.04H92.4802L92.5802 186.1L105.19 192.5L104.82 192.82C103.47 188.64 102.17 184.59 100.91 180.7V180.55L101.02 180.44C104.079 177.359 106.35 173.586 107.64 169.44C108.809 165.65 109.15 161.653 108.64 157.72C108.187 154.225 107.063 150.849 105.33 147.78C103.837 145.143 101.91 142.777 99.6302 140.78C97.7497 139.199 95.6683 137.875 93.4402 136.84C91.7544 136.113 89.9986 135.56 88.2002 135.19L86.2002 134.86L84.7502 134.75L83.8702 134.69H83.5702C83.6699 134.679 83.7705 134.679 83.8702 134.69H84.7602L86.2102 134.75L88.2102 135.04C90.0309 135.383 91.8107 135.916 93.5202 136.63C95.7866 137.652 97.9055 138.974 99.8202 140.56C102.141 142.548 104.109 144.915 105.64 147.56C107.422 150.662 108.581 154.083 109.05 157.63C109.602 161.624 109.285 165.69 108.12 169.55C106.822 173.782 104.516 177.635 101.4 180.78L101.46 180.52C102.72 184.41 104.03 188.46 105.39 192.63L105.58 193.24L105.01 192.95L92.4002 186.56H92.6202L91.7202 186.89C88.7792 187.925 85.6638 188.373 82.5502 188.21C79.5279 188.095 76.5536 187.417 73.7802 186.21C68.4899 183.944 64.0884 180.007 61.2502 175C59.9441 172.688 58.9903 170.194 58.4202 167.6C58.2641 166.978 58.1472 166.347 58.0702 165.71C57.9902 165.08 57.8602 164.46 57.8302 163.84C57.5596 160.282 57.9357 156.704 58.9402 153.28C59.5718 151.223 60.4481 149.248 61.5502 147.4C63.4163 144.196 65.9421 141.424 68.9602 139.27C71.2399 137.658 73.7708 136.435 76.4502 135.65L78.0202 135.25C78.4823 135.143 78.9496 135.059 79.4202 135C80.1499 134.865 80.8886 134.785 81.6302 134.76L83.0002 134.71C83.156 134.689 83.3131 134.679 83.4702 134.68Z" fill="#5865F2"/>
<path d="M89.1702 158H87.3202L83.3202 152.38V148.69C83.3202 148.69 80.4602 148.51 80.8002 153.34C81.1402 158.17 80.8002 156.94 80.8002 156.94C80.8002 156.94 74.7302 156.94 74.2302 157.49C73.7302 158.04 73.7002 163.9 73.6302 167.17C73.5918 167.958 73.818 168.737 74.2728 169.382C74.7276 170.027 75.3848 170.501 76.1402 170.73C76.3519 170.789 76.5705 170.819 76.7902 170.82C78.3102 170.82 86.0402 169.59 86.0402 169.59H89.2302L89.1702 158Z" fill="#5865F2"/>
<path d="M94.4602 157.01L93.3202 169.65H90.1602V157.27L94.4602 157.01Z" fill="#5865F2"/>
<path d="M132.15 414.34V405.79L116.82 405.68L116.69 418.61L117.64 418.68C121.87 418.95 139.16 419.35 142 418.47C145.16 417.49 132.15 414.34 132.15 414.34Z" fill="#5865F2"/>
<path d="M142.36 417.67C142.36 417.81 136.62 417.93 129.55 417.93C122.48 417.93 116.74 417.81 116.74 417.67C116.74 417.53 122.48 417.41 129.55 417.41C136.62 417.41 142.36 417.53 142.36 417.67Z" fill="#263238"/>
<path d="M132.42 416.09C132.29 416.02 132.42 415.57 132.73 415.09C133.04 414.61 133.46 414.41 133.56 414.51C133.66 414.61 133.45 414.99 133.15 415.4C132.85 415.81 132.55 416.16 132.42 416.09Z" fill="#263238"/>
<path d="M133.4 416.65C133.26 416.65 133.33 416.09 133.63 415.56C133.93 415.03 134.33 414.71 134.44 414.79C134.55 414.87 134.37 415.32 134.09 415.79C133.81 416.26 133.53 416.7 133.4 416.65Z" fill="#263238"/>
<path d="M121.36 417.63C121.3 417.63 121.07 417.45 120.74 417.07C120.337 416.582 119.889 416.133 119.4 415.73C118.92 415.346 118.348 415.095 117.74 415C117.27 414.94 116.97 415 116.94 414.94C116.91 414.88 117.2 414.67 117.75 414.63C118.476 414.615 119.184 414.855 119.75 415.31C120.28 415.742 120.728 416.267 121.07 416.86C121.3 417.3 121.42 417.59 121.36 417.63Z" fill="#263238"/>
<path d="M132.47 414.48C132.54 414.6 132.28 414.9 131.84 415.06C131.4 415.22 131.01 415.16 130.99 415.06C130.97 414.96 131.28 414.75 131.66 414.61C132.04 414.47 132.39 414.36 132.47 414.48Z" fill="#263238"/>
<path d="M132.23 413.65C132.23 413.8 131.83 413.92 131.31 413.93C130.79 413.94 130.38 413.82 130.39 413.68C130.4 413.54 130.81 413.41 131.31 413.4C131.81 413.39 132.21 413.51 132.23 413.65Z" fill="#263238"/>
<path d="M169.9 414.34V405.79L154.57 405.68L154.44 418.48L155.39 418.55C159.62 418.82 176.92 419.35 179.75 418.47C182.91 417.49 169.9 414.34 169.9 414.34Z" fill="#5865F2"/>
<path d="M180.11 417.69C180.11 417.83 174.38 417.95 167.3 417.95C160.22 417.95 154.5 417.83 154.5 417.69C154.5 417.55 160.23 417.43 167.3 417.43C174.37 417.43 180.11 417.55 180.11 417.69Z" fill="#263238"/>
<path d="M170.17 416.09C170.05 416.02 170.17 415.57 170.48 415.09C170.79 414.61 171.21 414.41 171.31 414.51C171.41 414.61 171.2 414.99 170.9 415.4C170.6 415.81 170.3 416.16 170.17 416.09Z" fill="#263238"/>
<path d="M171.15 416.65C171.02 416.65 171.08 416.09 171.39 415.56C171.7 415.03 172.09 414.71 172.2 414.79C172.31 414.87 172.12 415.32 171.84 415.79C171.56 416.26 171.29 416.7 171.15 416.65Z" fill="#263238"/>
<path d="M159.11 417.63C159.05 417.63 158.83 417.45 158.49 417.07C158.087 416.582 157.639 416.133 157.15 415.73C156.67 415.346 156.098 415.095 155.49 415C155.03 414.94 154.72 415 154.69 414.94C154.66 414.88 154.95 414.67 155.5 414.63C156.226 414.615 156.934 414.855 157.5 415.31C158.033 415.739 158.481 416.265 158.82 416.86C159.05 417.3 159.17 417.59 159.11 417.63Z" fill="#263238"/>
<path d="M170.22 414.48C170.29 414.6 170.03 414.9 169.59 415.06C169.15 415.22 168.76 415.16 168.74 415.06C168.72 414.96 169.03 414.75 169.41 414.61C169.79 414.47 170.14 414.36 170.22 414.48Z" fill="#263238"/>
<path d="M170 413.65C170 413.8 169.6 413.92 169.08 413.93C168.56 413.94 168.16 413.82 168.17 413.68C168.18 413.54 168.58 413.41 169.08 413.4C169.58 413.39 170 413.51 170 413.65Z" fill="#263238"/>
<path d="M226.38 160.44C225.98 160.03 224.99 160.23 224.99 160.23C225.089 159.654 225.089 159.066 224.99 158.49C224.81 157.93 223.55 158.04 223.55 158.04C223.492 157.568 223.492 157.092 223.55 156.62C223.56 156.515 223.538 156.41 223.486 156.319C223.434 156.228 223.355 156.155 223.26 156.11C222.664 155.867 222.023 155.751 221.38 155.77C220.61 155.22 223.73 150.85 224.89 149.45C226.05 148.05 225.84 146.96 224.81 146.96C224.1 146.96 220.46 151.16 219.34 152.57C218.22 153.98 215.25 157.9 215.15 154.77C215.05 151.64 213.79 149.28 213 148.88C212.21 148.48 211.37 149.42 211.8 150.29C212.178 151.278 212.413 152.315 212.5 153.37C212.609 154.21 212.571 155.063 212.39 155.89C212.058 157.429 211.607 158.941 211.04 160.41H210.96C210.96 160.41 189.14 181.34 187.56 182.83C186.15 184.17 157.79 181.24 152.1 180.64C150.166 180.357 148.214 180.223 146.26 180.24C143.79 180.35 143.35 180.7 140.89 180.73C134.677 180.799 128.479 181.344 122.35 182.36C119.575 182.832 116.982 184.057 114.855 185.901C112.729 187.746 111.149 190.139 110.29 192.82C104.56 210.72 91.5799 253.09 89.2899 276.89C87.5595 280.028 85.9973 283.256 84.61 286.56C83 290.94 83.39 291.09 83.93 291.19C85.39 291.46 87.05 283.6 87.67 285.5C88.29 287.4 84.52 294.87 86.05 295.09C88.05 295.37 89.64 287.09 89.83 286.43C90.02 285.77 91.01 285.98 90.83 286.6C90.54 287.48 87.73 296.81 89.69 297.11C90.77 297.27 90.89 295.3 90.89 295.3C90.89 295.3 92.89 286.37 93.8 286.55C94.71 286.73 93.74 292 93.28 293.76C92.82 295.52 93.4599 296.41 94.3999 295.98C95.0399 295.68 96.57 290.33 96.99 288.59C97.41 286.85 98.4599 282.03 99.8699 284.82C101.28 287.61 103.42 289.23 104.3 289.27C104.498 289.247 104.685 289.165 104.837 289.035C104.988 288.905 105.097 288.733 105.15 288.541C105.203 288.348 105.197 288.144 105.132 287.955C105.068 287.766 104.949 287.601 104.79 287.48C104.033 286.741 103.383 285.899 102.86 284.98C102.393 284.264 102.055 283.472 101.86 282.64C101.457 280.981 101.222 279.286 101.16 277.58L101 276.58C103.24 265.49 109.69 232.94 119 212.15L122.82 220.01L124.48 225.83L114.3 250.96L157.72 250.39L151.24 225.45L159.11 199.45C167.62 199.64 189.47 199.96 193.11 198.31C197.69 196.31 221.38 166.39 221.38 166.39C222.924 165.19 224.403 163.908 225.81 162.55C225.81 162.55 227.25 161.34 226.38 160.44Z" fill="#FFBE9D"/>
<path d="M112.39 232.39C113.65 228.09 120.12 206.83 120.12 206.83C120.12 206.83 123.3 224.16 122.46 226.25C121.687 228.039 120.775 229.765 119.73 231.41C112.39 242.58 113.35 248.17 113.35 248.17L157.7 246.82C157.8 240.62 154.13 226.2 153.37 223.9C152.61 221.6 155.14 214.07 155.14 214.07C155.14 214.07 160.14 208.98 159.96 206.36C159.865 204.007 159.574 201.665 159.09 199.36L186.09 200.36L185.24 182.06L146.46 178.18C145.11 181.99 132.9 180.12 132.9 180.12C119.72 180.56 118.9 182.98 113.42 187.24C107.94 191.5 98.8701 228.06 98.8701 228.06L112.39 232.39Z" fill="#5865F2"/>
<path d="M138.61 228.06C137.841 228.197 137.058 228.238 136.28 228.18C134.83 228.18 132.84 228.08 130.65 227.86C128.46 227.64 126.48 227.33 125.07 227.05C124.292 226.95 123.53 226.755 122.8 226.47C123.582 226.47 124.362 226.544 125.13 226.69C126.55 226.87 128.52 227.12 130.7 227.34C132.88 227.56 134.86 227.71 136.29 227.81C137.069 227.82 137.846 227.904 138.61 228.06V228.06Z" fill="#263238"/>
<path d="M141.65 224.29C140.881 224.667 140.068 224.945 139.23 225.12C135.24 226.168 131.124 226.656 127 226.57C126.147 226.598 125.293 226.517 124.46 226.33C125.302 226.224 126.151 226.18 127 226.2C128.57 226.15 130.73 226.04 133.11 225.76C135.49 225.48 137.61 225.08 139.11 224.76C139.943 224.537 140.792 224.38 141.65 224.29V224.29Z" fill="#263238"/>
<path d="M156.57 207.47C156.55 208.232 156.446 208.99 156.26 209.73C156 211.12 155.6 213.02 155.09 215.1C154.58 217.18 154.09 219.1 153.65 220.4C153.473 221.144 153.211 221.865 152.87 222.55C152.926 221.79 153.067 221.039 153.29 220.31C153.67 218.75 154.1 216.95 154.58 214.98C155.06 213.01 155.52 211.21 155.9 209.65C156.035 208.899 156.26 208.167 156.57 207.47V207.47Z" fill="#263238"/>
<path d="M112.86 229.84C110.547 229.483 108.263 228.951 106.03 228.25C103.748 227.716 101.508 227.014 99.3301 226.15C101.642 226.513 103.925 227.044 106.16 227.74C108.443 228.272 110.682 228.974 112.86 229.84V229.84Z" fill="#263238"/>
<path d="M159.57 199.14C159.193 199.205 158.807 199.205 158.43 199.14C157.385 199.033 156.36 198.787 155.38 198.41C153.744 197.795 152.255 196.845 151.008 195.621C149.761 194.396 148.784 192.924 148.14 191.3C147.428 189.513 147.124 187.589 147.25 185.67C147.295 184.087 147.768 182.545 148.62 181.21C149.219 180.31 150.114 179.649 151.15 179.34C151.427 179.264 151.713 179.227 152 179.23C152.2 179.23 152.3 179.23 152.3 179.23C152.3 179.23 151.88 179.23 151.21 179.5C150.26 179.851 149.454 180.509 148.92 181.37C147.56 183.51 147.18 187.42 148.63 191.07C149.305 192.791 150.361 194.336 151.72 195.59C152.833 196.616 154.115 197.441 155.51 198.03C156.819 198.547 158.18 198.919 159.57 199.14V199.14Z" fill="#263238"/>
<path d="M182.88 200C182.63 196.933 182.55 193.855 182.64 190.78C182.562 187.707 182.655 184.632 182.92 181.57C183.17 184.633 183.25 187.708 183.16 190.78C183.244 193.856 183.15 196.935 182.88 200V200Z" fill="#263238"/>
<path d="M146.2 179.3C146.31 177.07 146.54 174.55 146.54 174.55C146.54 174.55 152.06 173.94 152.39 168.24C152.72 162.54 152.39 149.39 152.39 149.39L142.39 144.27L131.29 153L133 181.5L143.18 182.15C143.958 182.172 144.713 181.884 145.279 181.349C145.845 180.815 146.177 180.078 146.2 179.3V179.3Z" fill="#FFBE9D"/>
<path d="M147.19 163.73C147.19 163.73 147.19 163.84 147.1 163.97C147.026 164.064 146.929 164.139 146.82 164.188C146.71 164.237 146.59 164.258 146.47 164.25C145.83 164.25 145.21 163.51 144.99 162.65C144.885 162.233 144.885 161.797 144.99 161.38C145.011 161.198 145.076 161.024 145.181 160.874C145.286 160.724 145.426 160.602 145.59 160.52C145.725 160.464 145.876 160.464 146.01 160.52C146.11 160.57 146.191 160.65 146.24 160.75C146.31 160.92 146.24 161.03 146.24 161.02C146.24 161.01 146.24 160.92 146.14 160.82C146.088 160.748 146.011 160.699 145.924 160.68C145.837 160.662 145.747 160.676 145.67 160.72C145.547 160.794 145.445 160.898 145.374 161.022C145.302 161.146 145.263 161.287 145.26 161.43C145.176 161.802 145.176 162.188 145.26 162.56C145.46 163.34 146 163.97 146.48 164.03C146.574 164.043 146.669 164.036 146.761 164.01C146.852 163.984 146.937 163.94 147.01 163.88C147.13 163.8 147.17 163.72 147.19 163.73Z" fill="#EB996E"/>
<path d="M155.82 146.31C155.05 143.69 152.26 142.39 149.72 141.67C145.85 140.57 141.67 140.09 137.89 141.48C134.11 142.87 129.57 145.31 129.57 149.48C127.34 149.3 126.06 151.25 125.18 153.67C124.618 155.144 124.28 156.695 124.18 158.27V158.27C123.9 163.73 122.37 171.27 118.83 175.27C116.83 177.5 114.06 179.04 112.92 181.82C111.92 184.23 112.44 187.09 111.51 189.53C110.68 191.68 108.85 193.21 107.51 195.08C106.145 197.201 105.342 199.635 105.175 202.152C105.009 204.669 105.486 207.188 106.56 209.47C107.642 211.694 109.166 213.674 111.038 215.29C112.91 216.906 115.092 218.124 117.45 218.87C122.121 220.291 127.102 220.34 131.8 219.01C135.326 218.167 138.615 216.536 141.42 214.24C144.291 211.896 146.262 208.632 147 205C147.71 200.92 146.57 196.77 145.72 192.71C143.06 179.88 143.82 179.21 147.18 167.3C147.26 167.09 147.3 166.87 147.36 166.66C147.42 166.45 147.45 166.35 147.49 166.19C147.586 165.719 147.636 165.24 147.64 164.76C147.149 164.942 146.617 164.981 146.105 164.871C145.593 164.761 145.123 164.508 144.75 164.14C144.377 163.748 144.116 163.262 143.996 162.734C143.877 162.206 143.902 161.655 144.07 161.14C144.306 160.577 144.658 160.07 145.102 159.651C145.547 159.232 146.074 158.912 146.65 158.71C147.76 158.25 148.95 158.01 150.04 157.5C152.35 156.4 153.95 154.12 155.04 151.73C155.936 150.074 156.213 148.152 155.82 146.31V146.31Z" fill="#263238"/>
<path d="M147.59 164C147.801 164.312 147.976 164.648 148.11 165C148.41 165.63 148.81 166.52 149.25 167.55L149.33 167.74H149.12L148.12 167.83C147.43 167.83 146.85 167.96 146.17 167.95C146.111 167.937 146.056 167.909 146.01 167.868C145.965 167.828 145.93 167.777 145.91 167.72C145.88 167.629 145.88 167.531 145.91 167.44C145.933 167.305 145.963 167.172 146 167.04L146.18 166.33C146.27 165.856 146.411 165.394 146.6 164.95C146.581 165.433 146.511 165.912 146.39 166.38L146.25 167.09C146.2 167.33 146.11 167.7 146.25 167.67C146.75 167.67 147.46 167.56 148.12 167.52L149.12 167.43L148.99 167.65C148.56 166.65 148.2 165.71 147.99 165.06C147.806 164.728 147.671 164.371 147.59 164V164Z" fill="#5865F2"/>
<path d="M113.35 248.17L157.7 246.82L177 322.16L173.45 408.58H150L152.87 324L135.72 271.55L138.36 411.93L114.66 412.28L112.17 280.33C112.06 276.66 110.86 268.39 111.31 264.75L113.35 248.17Z" fill="#263238"/>
<path d="M141.62 272.62C140.894 272.666 140.165 272.622 139.45 272.49C138.11 272.33 136.28 272.05 134.27 271.65C132.26 271.25 130.46 270.79 129.16 270.42C128.465 270.267 127.793 270.025 127.16 269.7C127.16 269.55 130.42 270.33 134.42 271.14C138.42 271.95 141.64 272.47 141.62 272.62Z" fill="#455A64"/>
<path d="M173.21 403.84C173.21 403.98 167.9 404.1 161.35 404.1C154.8 404.1 149.48 403.98 149.48 403.84C149.48 403.7 154.79 403.58 161.35 403.58C167.91 403.58 173.21 403.69 173.21 403.84Z" fill="#455A64"/>
<path d="M138.15 408.28C138.15 408.43 132.99 408.54 126.63 408.54C120.27 408.54 115.12 408.43 115.12 408.28C115.12 408.13 120.28 408.02 126.63 408.02C132.98 408.02 138.15 408.14 138.15 408.28Z" fill="#455A64"/>
<path d="M135.09 407.92C134.95 407.92 134.33 377.25 133.7 339.42C133.07 301.59 132.7 270.9 132.83 270.9C132.96 270.9 133.6 301.56 134.22 339.41C134.84 377.26 135.24 407.92 135.09 407.92Z" fill="#455A64"/>
<path d="M170.06 403.84C170.049 403.704 170.049 403.566 170.06 403.43V402.23C170.06 401.15 170.14 399.6 170.2 397.63C170.34 393.63 170.54 387.82 170.79 380.7C171.33 366.38 172.09 346.64 172.92 324.85C172.92 324.64 172.92 324.44 172.92 324.26V324.33C167.67 303.33 162.92 284.27 159.47 270.48L155.47 254.17C155.01 252.26 154.66 250.77 154.41 249.73C154.29 249.24 154.21 248.86 154.14 248.57C154.101 248.44 154.077 248.306 154.07 248.17C154.122 248.296 154.162 248.427 154.19 248.56C154.27 248.84 154.37 249.22 154.51 249.7C154.78 250.7 155.17 252.22 155.67 254.12C156.67 257.98 158.08 263.54 159.84 270.39C163.32 284.17 168.12 303.18 173.44 324.21V324.28C173.44 324.46 173.44 324.67 173.44 324.87C172.55 346.66 171.74 366.39 171.15 380.71C170.84 387.84 170.58 393.61 170.4 397.63C170.3 399.63 170.22 401.15 170.17 402.23C170.17 402.74 170.11 403.14 170.1 403.43C170.101 403.568 170.088 403.705 170.06 403.84V403.84Z" fill="#455A64"/>
<path d="M162.41 322.5C160.725 323.054 158.99 323.439 157.23 323.65C155.07 324.02 153.23 324.28 152.4 324.32V324.12C152.67 324.2 152.81 324.25 152.81 324.29C152.81 324.33 152.64 324.29 152.36 324.29H151.76L152.36 324.11C153.14 323.88 154.98 323.5 157.14 323.11C158.872 322.734 160.637 322.53 162.41 322.5Z" fill="#455A64"/>
<path d="M162 325.37C160.44 325.441 158.877 325.371 157.33 325.16C155.768 325.128 154.212 324.957 152.68 324.65C155.805 324.395 158.951 324.638 162 325.37V325.37Z" fill="#455A64"/>
<path opacity="0.2" d="M113.16 249.76C113.685 250.434 114.347 250.991 115.102 251.392C115.856 251.794 116.687 252.031 117.54 252.09C119.326 252.302 121.133 252.268 122.91 251.99C134.36 250.72 146.49 249.55 157.7 246.82C143.19 247.63 127.86 247.36 113.35 248.17L113.2 249.41" fill="black"/>
<g opacity="0.2">
<path d="M128.11 270.21L136.29 301.95L135.72 271.55L128.11 270.21Z" fill="black"/>
</g>
</svg>
