<svg width="689" height="689" viewBox="0 0 689 689" fill="none" xmlns="http://www.w3.org/2000/svg">
<path d="M289.204 6.06215C312.23 1.45069 335.703 -0.540892 359.176 0.125321C373.835 0.11541 388.464 1.43846 402.884 4.07816C430.993 7.94013 458.059 16.8908 484.49 26.9168C503.688 35.504 523.825 43.5763 539.438 58.176C543.811 61.3565 541.451 67.7022 537.608 70.186C528.651 75.926 517.94 77.5919 507.728 79.8334C461.751 87.739 414.942 91.283 369.797 103.55C349.539 108.094 330.068 115.545 310.793 123.239C274.983 139.277 242.062 162.828 218.249 194.314C213.71 200.993 209.278 207.733 205.087 214.639C201.32 222.014 197.522 229.36 194.421 237.069C192.142 242.581 189.998 248.135 187.991 253.728C183.921 265.647 181.939 278.081 178.914 290.288C177.961 298.3 177.401 306.387 175.767 314.308C174.678 332.482 175.207 350.656 175.343 368.83C175.343 374.888 176.977 380.825 177.068 386.898C177.146 392.5 177.944 398.069 179.443 403.466C182.333 418.611 185.828 433.938 192.242 448.114C200.563 468.196 213.529 487.021 231.971 498.986C247.282 510.375 266.193 515.221 284.741 518.099C309.523 521.325 334.667 518.371 359.055 513.934C371.839 511.617 384.517 508.724 397.089 505.362C405.093 503.12 413.293 501.636 421.175 498.956C424.204 498.433 427.269 498.144 430.343 498.092C420.479 506.892 410.539 515.676 399.344 522.779C361.279 547.359 316.996 560.156 272.835 568.426C252.849 572.515 232.546 574.938 212.44 578.406C189.534 581.723 165.812 584.464 145.161 595.687C138.973 600.033 134.223 605.909 129.911 612.028C128.61 614.663 126.189 612.028 124.737 611.059C120.016 605.682 113.995 601.714 108.912 596.747C103.496 591.446 98.1247 586.206 92.9052 580.693C84.5086 570.925 75.9002 561.292 68.5021 550.751C53.7513 530.76 40.695 509.315 31.1183 486.355L29.4541 485.613C28.2589 479.025 24.9154 473.179 22.6763 466.924C17.446 453.223 13.209 439.162 9.99816 424.851C8.73618 420.47 7.75085 416.014 7.048 411.508C5.49322 406.446 4.55846 401.213 4.26426 395.924C1.45027 383.521 1.99491 370.738 0.194557 358.213C0.194557 347.763 -0.501378 337.237 0.739201 326.833C2.1462 318.185 1.5713 309.325 3.35652 300.693C5.11149 293.711 4.76352 286.366 6.97236 279.49C9.19353 267.216 12.226 255.104 16.0498 243.233C17.0029 240.204 17.9712 237.175 19.0756 234.146C21.1483 228.739 23.0243 223.256 24.9608 217.789C26.1083 215.299 27.0691 212.728 27.8353 210.095L29.3633 208.278C31.2071 202.858 33.5893 197.637 36.474 192.694C39.0156 187.514 41.6329 182.365 44.5529 177.382C44.8857 176.807 45.5362 175.656 45.8539 175.065C46.8222 173.005 47.9115 171.006 49.0764 169.007C67.2313 140.534 88.4119 113.561 113.95 91.3133C145.609 63.0979 181.965 40.6567 221.366 25.0085C243.275 16.3959 266.006 10.0475 289.204 6.06215Z" fill="#FFD900"/>
<path d="M552.827 96.296C559.136 92.6157 563.508 86.6335 567.881 80.9541C602.466 110.548 630.876 146.683 651.484 187.289C672.092 227.895 684.493 272.173 687.974 317.585C691.455 362.997 685.95 408.651 671.772 451.929C657.595 495.207 635.025 535.259 605.355 569.789C552.404 632.004 476.426 674.289 395.425 685.511C358.192 690.994 320.219 689.54 283.032 684.436C254.498 680.412 226.627 672.599 200.155 661.204C185.752 654.858 171.41 647.437 160.154 636.184C157.249 633.655 155.418 629.445 157.325 625.765C160.229 621.312 165.419 619.086 170.275 617.495C184.269 613.437 198.657 611.104 213.03 608.878C239.006 604.334 265.255 601.442 291.02 595.747C333.865 586.494 376.71 573.363 413.776 549.297C438.921 533.244 461.13 512.283 477.454 487.203C500.904 451.794 511.737 409.373 514.324 367.315C515.625 336.026 514.914 304.449 508.363 273.719C502.387 247.185 491.933 220.455 472.144 201.13C457.015 185.591 436.44 175.913 415.168 172.218C379.888 165.63 343.85 172.006 309.265 179.79C293.077 183.622 277.116 188.453 260.762 191.588C284.03 169.658 312.533 153.968 342.458 143.245C359.645 136.869 377.512 132.644 395.304 128.464C434.246 119.695 474.096 116.348 513.386 109.593C527.108 106.716 541.042 103.929 552.827 96.296Z" fill="#36B0F3"/>
</svg>
