<svg width="1081" height="288" viewBox="0 0 1081 288" fill="none" xmlns="http://www.w3.org/2000/svg">
<path d="M182.06 85.7904C181.74 84.8604 181.38 83.9804 180.96 83.1504C181.52 84.0904 181.88 84.9804 182.06 85.7904Z" fill="white"/>
<path d="M448.54 114.26C445.61 102.83 438.23 94.47 423.73 94.47C402.41 94.47 393.49 113.28 393.49 132.38C393.49 151.48 402.41 170.29 423.73 170.29C439.2 170.29 447.7 158.72 449.09 144.23H466.09C464.7 168.06 447.83 184.51 423.72 184.51C393.9 184.51 376.06 160.82 376.06 132.39C376.06 103.96 393.9 80.27 423.72 80.27C446.16 80.41 463.86 92.81 465.95 114.27H448.54V114.26Z" fill="white"/>
<path d="M476.42 146.03C476.42 124.01 489.66 108.12 512.79 108.12C535.92 108.12 549.16 124.01 549.16 146.03C549.16 168.19 535.92 184.08 512.79 184.08C489.66 184.08 476.42 168.19 476.42 146.03ZM533.28 146.03C533.28 133.63 527.01 120.67 512.79 120.67C498.57 120.67 492.3 133.63 492.3 146.03C492.3 158.57 498.57 171.53 512.79 171.53C527.01 171.54 533.28 158.57 533.28 146.03Z" fill="white"/>
<path d="M562.83 82.6201H578.72V97.6701H562.83V82.6201ZM562.83 110.08H578.72V182.13H562.83V110.08Z" fill="white"/>
<path d="M596 110.08H611.05V120.67L611.33 120.95C616.07 113.01 624.29 108.13 633.77 108.13C649.38 108.13 659.27 116.49 659.27 132.66V182.13H643.38V136.84C643.1 125.55 638.64 120.67 629.3 120.67C618.71 120.67 611.88 129.03 611.88 139.62V182.13H596V110.08Z" fill="white"/>
<path d="M765.05 182.13H753.9L751.25 170.42C741.91 181.01 733.41 184.5 721.29 184.5C691.47 184.5 673.63 160.81 673.63 132.38C673.63 103.95 691.47 80.2603 721.29 80.2603C743.03 80.2603 761.29 91.8303 763.94 114.26H746.94C745.27 101.16 733.84 94.4703 721.3 94.4703C699.98 94.4703 691.06 113.28 691.06 132.38C691.06 151.48 699.98 170.29 721.3 170.29C739.14 170.57 748.89 159.84 749.17 142.97H722.69V129.73H765.06V182.13H765.05Z" fill="white"/>
<path d="M794.18 150.21C794.18 161.5 800.31 171.53 813.55 171.53C822.75 171.53 828.32 167.49 831.11 159.54H846.16C842.68 175.29 829.3 184.07 813.55 184.07C790.97 184.07 778.29 168.32 778.29 146.16C778.29 125.67 791.67 108.11 813.13 108.11C835.85 108.11 849.78 128.6 847.13 150.2H794.18V150.21ZM831.25 139.76C830.69 129.73 823.86 120.67 813.13 120.67C802.12 120.67 794.59 129.03 794.18 139.76H831.25Z" fill="white"/>
<path d="M907.9 134.19C906.65 125.41 900.23 120.67 891.46 120.67C883.24 120.67 871.67 124.99 871.67 146.87C871.67 158.86 876.97 171.54 890.76 171.54C899.96 171.54 906.37 165.41 907.9 155.09H923.79C920.86 173.77 909.3 184.08 890.76 184.08C868.18 184.08 855.78 168.05 855.78 146.87C855.78 125.13 867.63 108.13 891.32 108.13C908.04 108.13 922.26 116.49 923.79 134.19H907.9Z" fill="white"/>
<path d="M937.17 82.6201H953.06V139.2L981.77 110.07H1001.28L973.69 136.55L1003.93 182.12H984.56L962.54 147.14L953.06 156.34V182.12H937.17V82.6201Z" fill="white"/>
<path d="M1008.25 146.03C1008.25 124.01 1021.49 108.12 1044.63 108.12C1067.76 108.12 1081 124.01 1081 146.03C1081 168.19 1067.76 184.08 1044.63 184.08C1021.49 184.08 1008.25 168.19 1008.25 146.03ZM1065.11 146.03C1065.11 133.63 1058.84 120.67 1044.62 120.67C1030.4 120.67 1024.13 133.63 1024.13 146.03C1024.13 158.57 1030.4 171.53 1044.62 171.53C1058.84 171.54 1065.11 158.57 1065.11 146.03Z" fill="white"/>
<path d="M143.85 0.510219C64.6 0.870219 0.649965 65.3902 0.999965 144.65C1.35997 223.9 65.9 287.85 145.14 287.5C224.39 287.14 288.34 222.61 287.99 143.37C287.63 64.1102 223.1 0.160219 143.85 0.510219ZM125.68 136.96C111.51 136.96 100.02 125.48 100.02 111.31C100.02 97.1502 111.51 85.6602 125.68 85.6602C139.84 85.6602 151.33 97.1502 151.33 111.31C151.34 125.48 139.85 136.96 125.68 136.96ZM146.14 164.7L146.27 164.54L146.41 164.38C153.73 169.1 162.09 170.77 170.44 171.01C178.8 171.23 187.32 170.6 195.7 168.91C204.07 167.17 212.3 164.6 220.25 161.32C224.71 159.48 229.15 157.47 233.38 155.11C233.41 155.09 233.43 155.08 233.46 155.06C236.09 153.48 238.66 151.81 241.19 150.09C241.74 149.7 242.27 149.29 242.79 148.87L242.85 148.94L243.07 149.2C236.62 155.07 228.94 159.43 221.12 163.28C213.22 167 204.98 170.05 196.47 172.25C187.99 174.44 179.14 176.1 170.18 175.28C161.37 174.49 152.08 171.4 146.14 164.7ZM211.98 136.96C211.97 133.88 214.45 131.4 217.51 131.37C220.59 131.36 223.07 133.83 223.1 136.9C223.11 139.97 220.63 142.48 217.57 142.49C214.5 142.51 212 140.03 211.98 136.96ZM168.03 274.59C162.49 235.76 196.4 197.73 215.52 178.27C219.86 173.86 226.57 167.78 232.81 161.32C257.63 138.11 262.57 110.38 211.77 96.5202C202.14 93.7302 192.16 89.7802 182.05 85.7902C181.73 84.8602 181.37 83.9802 180.95 83.1502C179.79 81.1502 177.76 78.8502 174.69 76.2402C168.09 70.5102 155.68 70.6602 144.97 73.2002C133.13 70.4102 121.45 69.4202 110.22 72.1102C61.1 85.6402 53.2 109.6 51.29 138.47C48.69 169.67 47.17 192.92 35.36 219.48C20.62 198.22 11.93 172.43 11.81 144.6C11.48 71.3202 70.62 11.6502 143.9 11.3202C217.18 10.9902 276.85 70.1202 277.18 143.4C277.48 208.85 230.31 263.46 168.03 274.59Z" fill="white"/>
<path d="M143.72 111.55C143.72 121.52 135.64 129.59 125.68 129.59C115.71 129.59 107.63 121.52 107.63 111.55C107.63 101.58 115.71 93.5103 125.68 93.5103C135.64 93.5003 143.72 101.58 143.72 111.55Z" fill="white"/>
</svg>
