<svg width="224" height="224" viewBox="0 0 224 224" fill="none" xmlns="http://www.w3.org/2000/svg">
<path d="M94.0713 2.25676C101.538 0.761423 109.149 0.115624 116.761 0.331653C121.514 0.328439 126.258 0.757456 130.934 1.61342C140.049 2.86572 148.826 5.7681 157.396 9.01917C163.622 11.8037 170.152 14.4212 175.215 19.1554C176.632 20.1867 175.867 22.2444 174.621 23.0498C171.717 24.9111 168.243 25.4513 164.932 26.1781C150.023 28.7417 134.844 29.8908 120.205 33.8687C113.636 35.342 107.322 37.7582 101.072 40.253C89.4597 45.4537 78.7845 53.0903 71.0627 63.3002C69.5909 65.4659 68.1535 67.6513 66.7945 69.8907C65.573 72.2824 64.3416 74.6642 63.3359 77.1639C62.5967 78.9515 61.9017 80.7522 61.2509 82.566C59.9312 86.4309 59.2885 90.4628 58.3073 94.4211C57.9983 97.019 57.8168 99.6414 57.2869 102.21C56.9337 108.103 57.1054 113.996 57.1496 119.889C57.1496 121.854 57.6794 123.779 57.7088 125.748C57.7341 127.565 57.993 129.37 58.4791 131.121C59.4161 136.032 60.5493 141.002 62.6294 145.598C65.3277 152.11 69.532 158.215 75.5123 162.094C80.4771 165.787 86.6094 167.359 92.624 168.292C100.66 169.338 108.813 168.38 116.722 166.941C120.867 166.19 124.978 165.252 129.055 164.162C131.65 163.435 134.309 162.954 136.865 162.084C137.848 161.915 138.842 161.821 139.838 161.805C136.64 164.658 133.416 167.506 129.786 169.809C117.443 177.78 103.083 181.93 88.7631 184.611C82.2824 185.937 75.6987 186.723 69.1788 187.847C61.7513 188.923 54.0588 189.812 47.3623 193.451C45.3558 194.86 43.8154 196.766 42.4172 198.75C41.9953 199.604 41.2103 198.75 40.7394 198.436C39.2087 196.692 37.2562 195.405 35.6078 193.795C33.8515 192.076 32.1099 190.377 30.4174 188.589C27.6946 185.421 24.9032 182.298 22.5042 178.88C17.7209 172.398 13.4872 165.444 10.3817 157.999L9.84209 157.758C9.45452 155.622 8.37032 153.726 7.64425 151.698C5.94822 147.255 4.57428 142.696 3.53312 138.055C3.1239 136.634 2.80438 135.189 2.57647 133.729C2.0723 132.087 1.76919 130.39 1.67379 128.675C0.761293 124.653 0.937905 120.508 0.354104 116.447C0.354104 113.058 0.128434 109.645 0.530716 106.271C0.986964 103.467 0.80054 100.594 1.37943 97.7949C1.94852 95.5309 1.83568 93.1491 2.55194 90.9195C3.2722 86.9397 4.25554 83.0121 5.49547 79.1627C5.80454 78.1805 6.11852 77.1983 6.47665 76.2161C7.14876 74.4628 7.75709 72.6851 8.38504 70.9122C8.75716 70.1049 9.06872 69.271 9.31716 68.4174L9.81265 67.8281C10.4105 66.0707 11.183 64.3778 12.1184 62.7747C12.9426 61.0952 13.7913 59.4254 14.7382 57.8097C14.8461 57.6231 15.057 57.2499 15.1601 57.0583C15.474 56.3905 15.8273 55.7422 16.205 55.094C22.0921 45.8613 28.9603 37.1149 37.2415 29.9006C47.5078 20.7514 59.2968 13.4745 72.0733 8.40039C79.1777 5.60763 86.5487 3.54906 94.0713 2.25676Z" fill="white"/>
<path d="M179.556 31.5164C181.602 30.323 183.02 28.3832 184.438 26.5415C195.653 36.1376 204.865 47.855 211.548 61.022C218.23 74.1891 222.251 88.5469 223.38 103.272C224.509 117.998 222.724 132.802 218.127 146.835C213.529 160.869 206.21 173.856 196.59 185.053C179.419 205.227 154.782 218.939 128.515 222.578C116.442 224.356 104.128 223.884 92.0696 222.229C82.8169 220.924 73.7792 218.391 65.1952 214.696C60.5248 212.638 55.874 210.232 52.224 206.583C51.2821 205.763 50.6885 204.397 51.3066 203.204C52.2486 201.76 53.9313 201.038 55.5061 200.523C60.044 199.207 64.7095 198.45 69.3701 197.728C77.7935 196.255 86.3052 195.317 94.6599 193.471C108.553 190.47 122.447 186.212 134.466 178.409C142.62 173.203 149.822 166.406 155.115 158.274C162.719 146.792 166.232 133.036 167.071 119.398C167.493 109.252 167.262 99.0128 165.138 89.0484C163.2 80.4444 159.81 71.7765 153.393 65.5101C148.487 60.4715 141.815 57.3334 134.918 56.1351C123.477 53.9988 111.791 56.0663 100.576 58.5906C95.3271 59.833 90.1514 61.3996 84.8482 62.4162C92.3934 55.3051 101.636 50.2174 111.34 46.7404C116.913 44.6729 122.707 43.3027 128.476 41.9473C141.104 39.1038 154.026 38.0185 166.767 35.8282C171.216 34.8951 175.735 33.9915 179.556 31.5164Z" fill="white"/>
</svg>
