<svg width="609" height="113" viewBox="0 0 609 113" fill="none" xmlns="http://www.w3.org/2000/svg">
<g clip-path="url(#clip0_704_202)">
<path d="M608.392 31.0439C608.267 13.9077 594.36 0 577.224 0C560.211 0 546.18 13.9077 546.18 31.0439C546.18 48.18 560.211 62.0877 577.224 62.0877C594.36 62.0877 608.267 48.18 608.392 31.0439ZM577.224 41.7231C571.263 41.7231 566.544 37.0045 566.544 31.0439C566.544 25.0835 571.263 20.3647 577.224 20.3647C583.184 20.3647 588.151 25.0835 588.151 31.0439C588.151 37.0045 583.184 41.7231 577.224 41.7231Z" fill="white"/>
<path d="M171.353 0C165.765 0 161.047 4.59459 161.047 10.3064V31.1681C161.047 36.756 156.328 41.3506 150.616 41.3506C145.028 41.3506 140.433 36.756 140.433 31.1681V10.3064C140.433 4.59459 135.59 0 130.002 0C124.29 0 119.572 4.59459 119.572 10.3064V31.1681C119.572 48.18 133.479 62.0877 150.616 62.0877C154.341 62.0877 157.942 61.5911 161.295 60.3492V82.3285C161.047 87.9165 156.824 92.5107 150.988 92.5107H151.609C145.897 92.5107 141.427 97.1053 141.427 102.693C141.427 108.281 145.897 113 151.361 113C168 112.876 181.536 99.4647 181.784 82.8252V82.7009V82.4524V82.2043V31.6648V31.1681V10.3064C181.784 4.59459 177.19 0 171.353 0Z" fill="#5865F2"/>
<path d="M72.5188 0C64.5718 0 57.2454 2.98035 51.7817 7.94736C46.318 2.98035 39.1155 0 31.1685 0C14.0319 0 0 13.9077 0 31.1681V51.9052C0 57.4931 4.71885 62.0877 10.431 62.0877C16.1432 62.0877 20.7375 57.4931 20.7375 51.9052V31.1681C20.7375 25.4559 25.4563 20.7374 31.1685 20.7374C36.8807 20.7374 41.351 25.4559 41.351 31.1681V51.9052C41.351 57.4931 46.0695 62.0877 51.7817 62.0877C57.4939 62.0877 62.0881 57.4931 62.0881 51.9052V31.1681C62.0881 25.4559 66.8069 20.7374 72.5188 20.7374C78.2306 20.7374 82.9495 25.4559 82.9495 31.1681V51.9052C82.9495 57.4931 87.544 62.0877 93.2562 62.0877C98.9681 62.0877 103.687 57.4931 103.687 51.9052V31.1681C103.687 14.0319 89.655 0 72.5188 0Z" fill="#5865F2"/>
<path d="M484.697 0C478.985 0 474.391 4.59459 474.391 10.3064C474.391 16.0186 478.985 20.3647 484.697 20.3647H495.128V51.7809C495.128 57.4931 499.722 62.0877 505.434 62.0877C511.022 62.0877 515.617 57.4931 515.617 51.7809V20.3647H526.047C531.635 20.3647 536.23 16.0186 536.23 10.3064C536.23 4.59459 531.635 0 526.047 0H484.697Z" fill="white"/>
<path d="M464.447 31.1681C464.447 14.0319 450.539 0.124207 433.527 0.124207C433.403 0.124207 433.403 0.124207 433.403 0.124207C418.998 0.124207 406.829 10.0582 403.352 23.345C402.731 25.8286 402.483 28.4362 402.359 31.1681V77.3611C402.359 83.0733 407.078 87.6679 412.789 87.6679C418.502 87.6679 423.096 83.0733 423.096 77.3611V31.1681C423.096 27.9396 424.586 25.0835 426.946 23.2207C429.429 21.1098 431.664 20.9855 433.403 20.8616C439.115 20.8616 443.834 25.4559 443.834 31.1681C443.834 33.5275 442.965 35.6384 441.723 37.3769C441.226 37.9978 440.605 38.4945 439.86 39.1154C439.984 38.9912 437.501 41.1021 437.252 41.4749C434.521 44.4545 433.775 49.0491 435.638 52.8985C438.121 57.9897 444.33 60.2249 449.422 57.7416H449.546L449.794 57.4931C450.415 57.1207 451.036 56.7479 451.533 56.3755C459.356 50.6633 464.447 41.4748 464.447 31.1681Z" fill="white"/>
<path d="M377.14 0C371.553 0 366.834 4.59459 366.834 10.3064V31.1681C366.834 36.756 362.115 41.3506 356.403 41.3506C350.815 41.3506 346.22 36.756 346.22 31.1681V10.3064C346.22 4.59459 341.378 0 335.79 0C330.078 0 325.359 4.59459 325.359 10.3064V31.1681C325.359 48.18 339.267 62.0877 356.403 62.0877C360.128 62.0877 363.729 61.5911 367.082 60.3492V82.3285C366.834 87.9165 362.612 92.5107 356.775 92.5107H357.396C351.684 92.5107 347.214 97.1053 347.214 102.693C347.214 108.281 351.685 113 357.148 113C373.788 112.876 387.323 99.4647 387.571 82.8252V82.7009V82.4524V82.2043V31.6648V31.1681V10.3064C387.571 4.59459 382.977 0 377.14 0Z" fill="white"/>
<path d="M308.836 10.1825C308.836 4.71851 304.366 0.124254 298.778 0C294.308 0.124254 289.962 1.11758 285.988 2.98034C284.125 1.11758 281.642 0 278.786 0C273.198 0 268.603 4.59459 268.603 10.3064V51.9052C268.603 57.4931 273.198 62.0877 278.786 62.0877C284.498 62.0877 289.092 57.4931 289.092 51.9052V29.9263C289.465 24.5869 293.811 20.4889 299.275 20.4889H298.654C304.242 20.4889 308.836 15.8944 308.836 10.1825Z" fill="white"/>
<path d="M194.146 31.0439C194.146 48.18 208.053 62.0877 225.19 62.0877H245.927C251.639 62.0877 256.234 57.4931 256.234 51.7809C256.234 46.0688 251.639 41.3506 245.927 41.3506H225.19C219.478 41.3506 214.883 36.756 214.883 31.0439C214.883 25.332 219.478 20.7374 225.19 20.7374H245.927C251.639 20.7374 256.234 16.0186 256.234 10.3064C256.234 4.59459 251.639 0 245.927 0H225.19C208.053 0 194.146 13.9077 194.146 31.0439Z" fill="white"/>
</g>
<defs>
<clipPath id="clip0_704_202">
<rect width="609" height="113" fill="white"/>
</clipPath>
</defs>
</svg>
