<svg width="1024" height="1024" viewBox="0 0 1024 1024" fill="none" xmlns="http://www.w3.org/2000/svg">
<rect width="1024" height="1024" fill="#10002B"/>
<path d="M457.204 174.062C480.23 169.451 503.703 167.459 527.176 168.125C541.835 168.115 556.464 169.438 570.884 172.078C598.993 175.94 626.059 184.891 652.49 194.917C671.688 203.504 691.825 211.576 707.438 226.176C711.811 229.356 709.451 235.702 705.608 238.186C696.651 243.926 685.94 245.592 675.728 247.833C629.751 255.739 582.942 259.283 537.797 271.55C517.539 276.094 498.068 283.545 478.793 291.239C442.983 307.277 410.062 330.828 386.249 362.314C381.71 368.993 377.278 375.733 373.087 382.639C369.32 390.014 365.522 397.36 362.421 405.069C360.142 410.581 357.998 416.135 355.991 421.728C351.921 433.647 349.939 446.081 346.914 458.288C345.961 466.3 345.401 474.387 343.767 482.308C342.678 500.482 343.207 518.656 343.343 536.83C343.343 542.888 344.977 548.825 345.068 554.898C345.146 560.5 345.944 566.069 347.443 571.466C350.333 586.611 353.828 601.938 360.242 616.114C368.563 636.196 381.529 655.021 399.971 666.986C415.282 678.375 434.193 683.221 452.741 686.099C477.523 689.325 502.667 686.371 527.055 681.934C539.839 679.617 552.517 676.724 565.089 673.362C573.093 671.12 581.293 669.636 589.175 666.956C592.204 666.433 595.269 666.144 598.343 666.092C588.479 674.892 578.539 683.676 567.344 690.779C529.279 715.359 484.996 728.156 440.835 736.426C420.849 740.515 400.546 742.938 380.44 746.406C357.534 749.723 333.812 752.464 313.161 763.687C306.973 768.033 302.223 773.909 297.911 780.028C296.61 782.663 294.189 780.028 292.737 779.059C288.016 773.682 281.995 769.714 276.912 764.747C271.496 759.446 266.125 754.206 260.905 748.693C252.509 738.925 243.9 729.292 236.502 718.751C221.751 698.76 208.695 677.315 199.118 654.355L197.454 653.613C196.259 647.025 192.915 641.179 190.676 634.924C185.446 621.223 181.209 607.162 177.998 592.851C176.736 588.47 175.751 584.014 175.048 579.508C173.493 574.446 172.558 569.213 172.264 563.924C169.45 551.521 169.995 538.738 168.195 526.213C168.195 515.763 167.499 505.237 168.739 494.833C170.146 486.185 169.571 477.325 171.357 468.693C173.111 461.711 172.764 454.366 174.972 447.49C177.194 435.216 180.226 423.104 184.05 411.233C185.003 408.204 185.971 405.175 187.076 402.146C189.148 396.739 191.024 391.256 192.961 385.789C194.108 383.299 195.069 380.728 195.835 378.095L197.363 376.278C199.207 370.858 201.589 365.637 204.474 360.694C207.016 355.514 209.633 350.365 212.553 345.382C212.886 344.807 213.536 343.656 213.854 343.065C214.822 341.005 215.911 339.006 217.076 337.007C235.231 308.534 256.412 281.561 281.95 259.313C313.609 231.098 349.965 208.657 389.366 193.009C411.275 184.396 434.006 178.047 457.204 174.062Z" fill="#FFD900"/>
<path d="M720.827 264.296C727.136 260.616 731.508 254.633 735.881 248.954C770.466 278.548 798.876 314.683 819.484 355.289C840.093 395.895 852.493 440.173 855.974 485.585C859.455 530.997 853.95 576.651 839.772 619.929C825.595 663.207 803.025 703.259 773.355 737.789C720.404 800.004 644.426 842.289 563.425 853.511C526.193 858.994 488.219 857.54 451.032 852.436C422.498 848.412 394.627 840.599 368.155 829.204C353.752 822.858 339.41 815.437 328.154 804.184C325.249 801.655 323.418 797.445 325.325 793.765C328.229 789.312 333.419 787.086 338.275 785.495C352.269 781.437 366.657 779.104 381.03 776.878C407.006 772.334 433.255 769.442 459.02 763.747C501.865 754.494 544.71 741.363 581.776 717.297C606.921 701.244 629.13 680.283 645.454 655.203C668.904 619.794 679.737 577.373 682.324 535.315C683.625 504.026 682.914 472.449 676.363 441.719C670.387 415.185 659.933 388.454 640.144 369.13C625.015 353.591 604.44 343.913 583.168 340.218C547.888 333.63 511.85 340.006 477.265 347.79C461.077 351.622 445.116 356.453 428.762 359.588C452.03 337.658 480.533 321.968 510.458 311.245C527.645 304.869 545.512 300.644 563.304 296.464C602.246 287.695 642.096 284.348 681.386 277.593C695.108 274.716 709.042 271.929 720.827 264.296Z" fill="#36B0F3"/>
</svg>
