<svg width="490" height="113" viewBox="0 0 490 113" fill="none" xmlns="http://www.w3.org/2000/svg">
<path d="M58.4 21C52 21 46.1 23.4 41.7 27.4C37.3 23.4 31.5 21 25.1 21C11.3 21 7.45058e-08 32.2 7.45058e-08 46.1V62.8C7.45058e-08 67.3 3.8 71 8.4 71C13 71 16.7 67.3 16.7 62.8V46.1C16.7 41.5 20.5 37.7 25.1 37.7C29.7 37.7 33.3 41.5 33.3 46.1V62.8C33.3 67.3 37.1 71 41.7 71C46.3 71 50 67.3 50 62.8V46.1C50 41.5 53.8 37.7 58.4 37.7C63 37.7 66.8 41.5 66.8 46.1V62.8C66.8 67.3 70.5 71 75.1 71C79.7 71 83.5 67.3 83.5 62.8V46.1C83.5 32.3 72.2 21 58.4 21ZM41.7 80.5C37.1 80.5 33.4 84.2 33.4 88.8C33.4 93.4 37.1 97.1 41.7 97.1C46.3 97.1 50 93.4 50 88.8C50 84.2 46.3 80.5 41.7 80.5ZM137.992 21C133.492 21 129.692 24.7 129.692 29.3V46.1C129.692 50.6 125.892 54.3 121.292 54.3C116.792 54.3 113.092 50.6 113.092 46.1V29.3C113.092 24.7 109.192 21 104.692 21C100.092 21 96.2922 24.7 96.2922 29.3V46.1C96.2922 59.8 107.492 71 121.292 71C124.292 71 127.192 70.6 129.892 69.6V87.3C129.692 91.8 126.292 95.5 121.592 95.5H122.092C117.492 95.5 113.892 99.2 113.892 103.7C113.892 108.2 117.492 112 121.892 112C135.292 111.9 146.192 101.1 146.392 87.7V87.6V87.4V87.2V46.5V46.1V29.3C146.392 24.7 142.692 21 137.992 21ZM96.2922 95.5C91.6922 95.5 87.9922 99.2 87.9922 103.7C87.9922 108.4 91.6922 112.1 96.2922 112.1C100.792 112.1 104.692 108.4 104.692 103.7C104.692 99.2 100.792 95.5 96.2922 95.5Z" fill="#36B0F3"/>
<path d="M156.348 46C156.348 59.8 167.548 71 181.348 71H198.048C202.648 71 206.348 67.3 206.348 62.7C206.348 58.1 202.648 54.3 198.048 54.3H181.348C176.748 54.3 173.048 50.6 173.048 46C173.048 41.4 176.748 37.7 181.348 37.7H198.048C202.648 37.7 206.348 33.9 206.348 29.3C206.348 24.7 202.648 21 198.048 21H181.348C167.548 21 156.348 32.2 156.348 46ZM248.709 29.2C248.709 24.8 245.109 21.1 240.609 21C237.009 21.1 233.509 21.9 230.309 23.4C228.809 21.9 226.809 21 224.509 21C220.009 21 216.309 24.7 216.309 29.3V62.8C216.309 67.3 220.009 71 224.509 71C229.109 71 232.809 67.3 232.809 62.8V45.1C233.109 40.8 236.609 37.5 241.009 37.5H240.509C245.009 37.5 248.709 33.8 248.709 29.2ZM303.715 21C299.215 21 295.415 24.7 295.415 29.3V46.1C295.415 50.6 291.615 54.3 287.015 54.3C282.515 54.3 278.815 50.6 278.815 46.1V29.3C278.815 24.7 274.915 21 270.415 21C265.815 21 262.015 24.7 262.015 29.3V46.1C262.015 59.8 273.215 71 287.015 71C290.015 71 292.915 70.6 295.615 69.6V87.3C295.415 91.8 292.015 95.5 287.315 95.5H287.815C283.215 95.5 279.615 99.2 279.615 103.7C279.615 108.2 283.215 112 287.615 112C301.015 111.9 311.915 101.1 312.115 87.7V87.6V87.4V87.2V46.5V46.1V29.3C312.115 24.7 308.415 21 303.715 21ZM262.015 95.5C257.415 95.5 253.715 99.2 253.715 103.7C253.715 108.4 257.415 112.1 262.015 112.1C266.515 112.1 270.415 108.4 270.415 103.7C270.415 99.2 266.515 95.5 262.015 95.5ZM374.023 46.1C374.023 32.3 362.823 21.1 349.123 21.1C349.023 21.1 349.023 21.1 349.023 21.1C337.423 21.1 327.623 29.1 324.823 39.8C324.323 41.8 324.123 43.9 324.023 46.1V83.3C324.023 87.9 327.823 91.6 332.423 91.6C337.023 91.6 340.723 87.9 340.723 83.3V46.1C340.723 43.5 341.923 41.2 343.823 39.7C345.823 38 347.623 37.9 349.023 37.8C353.623 37.8 357.423 41.5 357.423 46.1C357.423 48 356.723 49.7 355.723 51.1C355.323 51.6 354.823 52 354.223 52.5C354.323 52.4 352.323 54.1 352.123 54.4C349.923 56.8 349.323 60.5 350.823 63.6C352.823 67.7 357.823 69.5 361.923 67.5H362.023L362.223 67.3C362.723 67 363.223 66.7 363.623 66.4C369.923 61.8 374.023 54.4 374.023 46.1ZM406.931 17.1C411.531 17.1 415.231 13.4 415.231 8.8C415.231 4.2 411.531 0.499996 406.931 0.499996C402.331 0.499996 398.631 4.2 398.631 8.8C398.631 13.4 402.331 17.1 406.931 17.1ZM390.331 21C385.731 21 382.031 24.7 382.031 29.3C382.031 33.9 385.731 37.4 390.331 37.4H398.731V62.7C398.731 67.3 402.431 71 407.031 71C411.531 71 415.231 67.3 415.231 62.7V37.4H423.631C428.131 37.4 431.831 33.9 431.831 29.3C431.831 24.7 428.131 21 423.631 21H390.331ZM489.944 46C489.844 32.2 478.644 21 464.844 21C451.144 21 439.844 32.2 439.844 46C439.844 59.8 451.144 71 464.844 71C478.644 71 489.844 59.8 489.944 46ZM464.844 54.6C460.044 54.6 456.244 50.8 456.244 46C456.244 41.2 460.044 37.4 464.844 37.4C469.644 37.4 473.644 41.2 473.644 46C473.644 50.8 469.644 54.6 464.844 54.6Z" fill="#FFD900"/>
</svg>
